SplineFontDB: 3.2
FontName: EvergrowSans-Medium
FullName: Evergrow Sans Medium
FamilyName: Evergrow Sans 
Weight: Medium
Copyright: Copyright 2020 The Plus Jakarta Sans Project Authors (https://github.com/tokotype/PlusJakartaSans)\n\nModification Stijn de Vries (https://github.com/stijndevries/Eudoxus-Sans?tab=OFL-1.1-1-ov-file)\n\nModification TenWeb Inc. 2024\n\nThis Font Software is licensed under the SIL Open Font License, Version 1.1. (https://openfontlicense.org/open-font-license-official-text/)
Version: 1.000
ItalicAngle: 0
UnderlinePosition: -175
UnderlineWidth: 40
Ascent: 800
Descent: 200
InvalidEm: 0
sfntRevision: 0x00020147
LayerCount: 2
Layer: 0 1 "Back" 1
Layer: 1 1 "Fore" 0
XUID: [1021 212 447365028 12560784]
StyleMap: 0x0040
FSType: 0
OS2Version: 4
OS2_WeightWidthSlopeOnly: 0
OS2_UseTypoMetrics: 1
CreationTime: 1610050419
ModificationTime: 1723620218
PfmFamily: 81
TTFWeight: 500
TTFWidth: 5
LineGap: 0
VLineGap: 0
Panose: 0 0 0 0 0 0 0 0 0 0
OS2TypoAscent: 1038
OS2TypoAOffset: 0
OS2TypoDescent: -222
OS2TypoDOffset: 0
OS2TypoLinegap: 0
OS2WinAscent: 1214
OS2WinAOffset: 0
OS2WinDescent: 395
OS2WinDOffset: 0
HheadAscent: 1038
HheadAOffset: 0
HheadDescent: -222
HheadDOffset: 0
OS2SubXSize: 650
OS2SubYSize: 600
OS2SubXOff: 0
OS2SubYOff: 75
OS2SupXSize: 650
OS2SupYSize: 600
OS2SupXOff: 0
OS2SupYOff: 350
OS2StrikeYSize: 50
OS2StrikeYPos: 270
OS2CapHeight: 745
OS2XHeight: 539
OS2Vendor: 'UKWN'
OS2CodePages: 20000193.00000000
OS2UnicodeRanges: a10000ff.4000607b.00000000.00000000
Lookup: 1 0 0 "'aalt' Access All Alternates in Latin lookup 0" { "'aalt' Access All Alternates in Latin lookup 0 subtable"  } ['aalt' ('DFLT' <'dflt' > 'latn' <'AZE ' 'CAT ' 'CRT ' 'KAZ ' 'MOL ' 'ROM ' 'TAT ' 'TRK ' 'dflt' > ) ]
Lookup: 3 0 0 "'aalt' Access All Alternates in Latin lookup 1" { "'aalt' Access All Alternates in Latin lookup 1 subtable"  } ['aalt' ('DFLT' <'dflt' > 'latn' <'AZE ' 'CAT ' 'CRT ' 'KAZ ' 'MOL ' 'ROM ' 'TAT ' 'TRK ' 'dflt' > ) ]

StartChar: .notdef
Encoding: 65536 -1 0
Width: 600
GlyphClass: 1
Flags: W
LayerCount: 2
Fore
SplineSet
492 -240 m 1,0,-1
 112 -240 l 1,1,-1
 112 960 l 1,2,-1
 492 960 l 1,3,-1
 492 -240 l 1,0,-1
400 -157 m 1,4,-1
 400 -118 l 1,5,-1
 277 -118 l 1,6,-1
 361 -61 l 1,7,-1
 400 -61 l 1,8,-1
 400 -22 l 1,9,-1
 200 -22 l 1,10,-1
 200 -61 l 1,11,-1
 284 -61 l 1,12,-1
 200 -118 l 1,13,-1
 200 -157 l 1,14,-1
 400 -157 l 1,4,-1
400 6 m 1,15,-1
 400 142 l 1,16,-1
 200 142 l 1,17,-1
 200 6 l 1,18,-1
 400 6 l 1,15,-1
400 214 m 1,19,-1
 400 349 l 1,20,-1
 280 349 l 1,21,-1
 280 282 l 1,22,-1
 320 282 l 1,23,-1
 320 310 l 1,24,-1
 360 310 l 1,25,-1
 360 253 l 1,26,-1
 240 253 l 1,27,-1
 240 349 l 1,28,-1
 200 349 l 1,29,-1
 200 214 l 1,30,-1
 400 214 l 1,19,-1
400 376 m 1,31,-1
 400 496 l 1,32,-1
 360 496 l 1,33,-1
 360 416 l 1,34,-1
 200 416 l 1,35,-1
 200 376 l 1,36,-1
 400 376 l 1,31,-1
320 444 m 1,37,-1
 320 528 l 1,38,-1
 400 528 l 1,39,-1
 400 568 l 1,40,-1
 200 568 l 1,41,-1
 200 528 l 1,42,-1
 280 528 l 1,43,-1
 280 484 l 1,44,-1
 200 484 l 1,45,-1
 200 444 l 1,46,-1
 320 444 l 1,37,-1
400 600 m 1,47,-1
 400 641 l 1,48,-1
 320 641 l 1,49,-1
 320 725 l 1,50,-1
 200 725 l 1,51,-1
 200 600 l 1,52,-1
 400 600 l 1,47,-1
400 756 m 1,53,-1
 400 796 l 1,54,-1
 320 796 l 1,55,-1
 320 840 l 1,56,-1
 400 840 l 1,57,-1
 400 880 l 1,58,-1
 202 880 l 1,59,-1
 202 840 l 1,60,-1
 280 840 l 1,61,-1
 280 796 l 1,62,-1
 200 796 l 1,63,-1
 200 756 l 1,64,-1
 400 756 l 1,53,-1
240 102 m 1,65,-1
 360 102 l 1,66,-1
 360 46 l 1,67,-1
 240 46 l 1,68,-1
 240 102 l 1,65,-1
240 684 m 1,69,-1
 280 684 l 1,70,-1
 280 641 l 1,71,-1
 240 641 l 1,72,-1
 240 684 l 1,69,-1
EndSplineSet
Validated: 1
EndChar

StartChar: A
Encoding: 65 65 3
Width: 672
GlyphClass: 2
Flags: W
AnchorPoint: "Anchor-6" 336 745 basechar 0
AnchorPoint: "Anchor-5" 609 35 basechar 0
AnchorPoint: "Anchor-4" 336 0 basechar 0
LayerCount: 2
Fore
SplineSet
278 745 m 1,0,-1
 394 745 l 1,1,-1
 661 0 l 1,2,-1
 556 0 l 1,3,-1
 495 175 l 1,4,-1
 177 175 l 1,5,-1
 116 0 l 1,6,-1
 11 0 l 1,7,-1
 278 745 l 1,0,-1
464 265 m 1,8,-1
 336 634 l 1,9,-1
 208 265 l 1,10,-1
 464 265 l 1,8,-1
EndSplineSet
Validated: 1
Substitution2: "Single Substitution lookup 28 subtable" ordfeminine
Substitution2: "'aalt' Access All Alternates in Latin lookup 0 subtable" ordfeminine
Position2: "'cpsp' Capital Spacing in Latin lookup 0 subtable" dx=5 dy=0 dh=10 dv=0
EndChar

StartChar: Aogonek
Encoding: 260 260 24
Width: 672
GlyphClass: 2
Flags: W
AnchorPoint: "Anchor-6" 336 745 basechar 0
AnchorPoint: "Anchor-5" 609 35 basechar 0
AnchorPoint: "Anchor-4" 336 0 basechar 0
LayerCount: 2
Fore
SplineSet
278 745 m 1,0,-1
 394 745 l 1,1,-1
 661 0 l 1,2,-1
 594 0 l 1,3,4
 538 -30 538 -30 538 -72 c 0,5,6
 538 -94 538 -94 552.5 -106.5 c 128,-1,7
 567 -119 567 -119 592 -119 c 0,8,9
 628 -119 628 -119 668 -91 c 1,10,-1
 698 -139 l 1,11,12
 648 -181 648 -181 585 -181 c 0,13,14
 535 -181 535 -181 503 -155.5 c 128,-1,15
 471 -130 471 -130 471 -88 c 0,16,17
 471 -55 471 -55 491.5 -27 c 128,-1,18
 512 1 512 1 549 19 c 1,19,-1
 495 175 l 1,20,-1
 177 175 l 1,21,-1
 116 0 l 1,22,-1
 11 0 l 1,23,-1
 278 745 l 1,0,-1
464 265 m 1,24,-1
 336 634 l 1,25,-1
 208 265 l 1,26,-1
 464 265 l 1,24,-1
EndSplineSet
Validated: 1
Position2: "'cpsp' Capital Spacing in Latin lookup 0 subtable" dx=5 dy=0 dh=10 dv=0
EndChar

StartChar: AE
Encoding: 198 198 28
Width: 987
GlyphClass: 2
Flags: W
AnchorPoint: "Anchor-6" 494 745 basechar 0
AnchorPoint: "Anchor-4" 494 0 basechar 0
LayerCount: 2
Fore
SplineSet
278 745 m 1,0,-1
 949 745 l 1,1,-1
 949 655 l 1,2,-1
 562 655 l 1,3,-1
 562 419 l 1,4,-1
 929 419 l 1,5,-1
 929 329 l 1,6,-1
 562 329 l 1,7,-1
 562 90 l 1,8,-1
 949 90 l 1,9,-1
 948 0 l 1,10,-1
 463 0 l 1,11,-1
 463 175 l 1,12,-1
 177 175 l 1,13,-1
 116 0 l 1,14,-1
 11 0 l 1,15,-1
 278 745 l 1,0,-1
463 265 m 1,16,-1
 463 655 l 1,17,-1
 344 655 l 1,18,-1
 208 265 l 1,19,-1
 463 265 l 1,16,-1
EndSplineSet
Validated: 1
Position2: "'cpsp' Capital Spacing in Latin lookup 0 subtable" dx=5 dy=0 dh=10 dv=0
EndChar

StartChar: B
Encoding: 66 66 30
Width: 692
GlyphClass: 2
Flags: W
AnchorPoint: "Anchor-6" 347 745 basechar 0
AnchorPoint: "Anchor-4" 347 0 basechar 0
LayerCount: 2
Fore
SplineSet
83 745 m 1,0,-1
 396 745 l 2,1,2
 496 745 496 745 554.5 692 c 128,-1,3
 613 639 613 639 613 550 c 0,4,5
 613 503 613 503 593.5 465 c 128,-1,6
 574 427 574 427 537 401 c 1,7,8
 589 372 589 372 616 325 c 128,-1,9
 643 278 643 278 643 221 c 0,10,11
 643 118 643 118 577 59 c 128,-1,12
 511 0 511 0 397 0 c 2,13,-1
 83 0 l 1,14,-1
 83 745 l 1,0,-1
401 90 m 2,15,16
 466 90 466 90 505 125 c 128,-1,17
 544 160 544 160 544 220 c 0,18,19
 544 279 544 279 505 315 c 128,-1,20
 466 351 466 351 401 351 c 2,21,-1
 181 351 l 1,22,-1
 181 90 l 1,23,-1
 401 90 l 2,15,16
394 439 m 2,24,25
 448 439 448 439 481 470 c 128,-1,26
 514 501 514 501 514 551 c 256,27,28
 514 601 514 601 481.5 628.5 c 128,-1,29
 449 656 449 656 394 656 c 2,30,-1
 181 656 l 1,31,-1
 181 439 l 1,32,-1
 394 439 l 2,24,25
EndSplineSet
Validated: 1
Position2: "'cpsp' Capital Spacing in Latin lookup 0 subtable" dx=5 dy=0 dh=10 dv=0
EndChar

StartChar: C
Encoding: 67 67 31
Width: 779
GlyphClass: 2
Flags: W
AnchorPoint: "Anchor-6" 390 745 basechar 0
AnchorPoint: "Anchor-4" 390 0 basechar 0
LayerCount: 2
Fore
SplineSet
238.5 37.5 m 128,-1,1
 155 87 155 87 108 174.5 c 128,-1,2
 61 262 61 262 61 372 c 256,3,4
 61 482 61 482 108 570 c 128,-1,5
 155 658 155 658 238.5 707.5 c 128,-1,6
 322 757 322 757 426 757 c 0,7,8
 500 757 500 757 562 730.5 c 128,-1,9
 624 704 624 704 667 661 c 128,-1,10
 710 618 710 618 729 568 c 1,11,-1
 639 527 l 1,12,13
 612 591 612 591 556.5 628.5 c 128,-1,14
 501 666 501 666 426 666 c 0,15,16
 348 666 348 666 287.5 629 c 128,-1,17
 227 592 227 592 193 525 c 128,-1,18
 159 458 159 458 159 372 c 256,19,20
 159 286 159 286 193 219.5 c 128,-1,21
 227 153 227 153 287.5 116 c 128,-1,22
 348 79 348 79 426 79 c 0,23,24
 501 79 501 79 556.5 116.5 c 128,-1,25
 612 154 612 154 639 218 c 1,26,-1
 729 177 l 1,27,28
 710 126 710 126 667 83 c 128,-1,29
 624 40 624 40 562 14 c 128,-1,30
 500 -12 500 -12 426 -12 c 0,31,0
 322 -12 322 -12 238.5 37.5 c 128,-1,1
EndSplineSet
Validated: 1
Position2: "'cpsp' Capital Spacing in Latin lookup 0 subtable" dx=5 dy=0 dh=10 dv=0
EndChar

StartChar: Ccedilla
Encoding: 199 199 34
Width: 779
GlyphClass: 2
Flags: W
AnchorPoint: "Anchor-4" 390 0 basechar 0
LayerCount: 2
Fore
SplineSet
420 -12 m 1,0,-1
 415 -62 l 1,1,2
 427 -60 427 -60 434 -60 c 0,3,4
 470 -60 470 -60 493.5 -81 c 128,-1,5
 517 -102 517 -102 517 -136 c 0,6,7
 517 -177 517 -177 485.5 -203.5 c 128,-1,8
 454 -230 454 -230 398 -230 c 0,9,10
 379 -230 379 -230 357 -226 c 128,-1,11
 335 -222 335 -222 320 -216 c 1,12,-1
 332 -166 l 1,13,14
 359 -176 359 -176 392 -176 c 0,15,16
 415 -176 415 -176 428 -166 c 128,-1,17
 441 -156 441 -156 441 -139 c 0,18,19
 441 -124 441 -124 432 -116 c 128,-1,20
 423 -108 423 -108 406 -108 c 0,21,22
 382 -108 382 -108 366 -116 c 1,23,-1
 345 -107 l 1,24,-1
 357 -6 l 1,25,26
 270 9 270 9 203 61.5 c 128,-1,27
 136 114 136 114 98.5 194.5 c 128,-1,28
 61 275 61 275 61 372 c 0,29,30
 61 482 61 482 108 570 c 128,-1,31
 155 658 155 658 238.5 707.5 c 128,-1,32
 322 757 322 757 426 757 c 0,33,34
 500 757 500 757 562 730.5 c 128,-1,35
 624 704 624 704 667 661 c 128,-1,36
 710 618 710 618 729 568 c 1,37,-1
 639 527 l 1,38,39
 612 591 612 591 556.5 628.5 c 128,-1,40
 501 666 501 666 426 666 c 0,41,42
 348 666 348 666 287.5 629 c 128,-1,43
 227 592 227 592 193 525 c 128,-1,44
 159 458 159 458 159 372 c 256,45,46
 159 286 159 286 193 219.5 c 128,-1,47
 227 153 227 153 287.5 116 c 128,-1,48
 348 79 348 79 426 79 c 0,49,50
 501 79 501 79 556.5 116.5 c 128,-1,51
 612 154 612 154 639 218 c 1,52,-1
 729 177 l 1,53,54
 710 126 710 126 667 83 c 128,-1,55
 624 40 624 40 562 14 c 128,-1,56
 500 -12 500 -12 426 -12 c 2,57,-1
 420 -12 l 1,0,-1
EndSplineSet
Validated: 1
Position2: "'cpsp' Capital Spacing in Latin lookup 0 subtable" dx=5 dy=0 dh=10 dv=0
EndChar

StartChar: uni1E08
Encoding: 7688 7688 35
Width: 779
GlyphClass: 2
Flags: W
AnchorPoint: "Anchor-4" 390 0 basechar 0
LayerCount: 2
Fore
SplineSet
420 -12 m 1,0,-1
 415 -62 l 1,1,2
 427 -60 427 -60 434 -60 c 0,3,4
 470 -60 470 -60 493.5 -81 c 128,-1,5
 517 -102 517 -102 517 -136 c 0,6,7
 517 -177 517 -177 485.5 -203.5 c 128,-1,8
 454 -230 454 -230 398 -230 c 0,9,10
 379 -230 379 -230 357 -226 c 128,-1,11
 335 -222 335 -222 320 -216 c 1,12,-1
 332 -166 l 1,13,14
 359 -176 359 -176 392 -176 c 0,15,16
 415 -176 415 -176 428 -166 c 128,-1,17
 441 -156 441 -156 441 -139 c 0,18,19
 441 -124 441 -124 432 -116 c 128,-1,20
 423 -108 423 -108 406 -108 c 0,21,22
 382 -108 382 -108 366 -116 c 1,23,-1
 345 -107 l 1,24,-1
 357 -6 l 1,25,26
 270 9 270 9 203 61.5 c 128,-1,27
 136 114 136 114 98.5 194.5 c 128,-1,28
 61 275 61 275 61 372 c 0,29,30
 61 482 61 482 108 570 c 128,-1,31
 155 658 155 658 238.5 707.5 c 128,-1,32
 322 757 322 757 426 757 c 0,33,34
 500 757 500 757 562 730.5 c 128,-1,35
 624 704 624 704 667 661 c 128,-1,36
 710 618 710 618 729 568 c 1,37,-1
 639 527 l 1,38,39
 612 591 612 591 556.5 628.5 c 128,-1,40
 501 666 501 666 426 666 c 0,41,42
 348 666 348 666 287.5 629 c 128,-1,43
 227 592 227 592 193 525 c 128,-1,44
 159 458 159 458 159 372 c 256,45,46
 159 286 159 286 193 219.5 c 128,-1,47
 227 153 227 153 287.5 116 c 128,-1,48
 348 79 348 79 426 79 c 0,49,50
 501 79 501 79 556.5 116.5 c 128,-1,51
 612 154 612 154 639 218 c 1,52,-1
 729 177 l 1,53,54
 710 126 710 126 667 83 c 128,-1,55
 624 40 624 40 562 14 c 128,-1,56
 500 -12 500 -12 426 -12 c 2,57,-1
 420 -12 l 1,0,-1
423 991 m 1,58,-1
 522 991 l 1,59,-1
 430 847 l 1,60,-1
 350 847 l 1,61,-1
 423 991 l 1,58,-1
EndSplineSet
Validated: 1
Position2: "'cpsp' Capital Spacing in Latin lookup 0 subtable" dx=5 dy=0 dh=10 dv=0
EndChar

StartChar: D
Encoding: 68 68 38
Width: 741
GlyphClass: 2
Flags: W
AnchorPoint: "Anchor-6" 380 745 basechar 0
AnchorPoint: "Anchor-4" 380 0 basechar 0
LayerCount: 2
Fore
SplineSet
83 745 m 1,0,-1
 327 745 l 2,1,2
 439 745 439 745 523.5 699 c 128,-1,3
 608 653 608 653 654 568.5 c 128,-1,4
 700 484 700 484 700 373 c 256,5,6
 700 262 700 262 654 177.5 c 128,-1,7
 608 93 608 93 523.5 46.5 c 128,-1,8
 439 0 439 0 327 0 c 2,9,-1
 83 0 l 1,10,-1
 83 745 l 1,0,-1
328 90 m 2,11,12
 410 90 410 90 471 124.5 c 128,-1,13
 532 159 532 159 565 223 c 128,-1,14
 598 287 598 287 598 373 c 256,15,16
 598 459 598 459 565 522.5 c 128,-1,17
 532 586 532 586 470.5 620.5 c 128,-1,18
 409 655 409 655 328 655 c 2,19,-1
 181 655 l 1,20,-1
 181 90 l 1,21,-1
 328 90 l 2,11,12
EndSplineSet
Validated: 1
Position2: "'cpsp' Capital Spacing in Latin lookup 0 subtable" dx=5 dy=0 dh=10 dv=0
EndChar

StartChar: uni01C4
Encoding: 452 452 39
Width: 1321
GlyphClass: 1
Flags: W
LayerCount: 2
Fore
SplineSet
83 745 m 1,0,-1
 327 745 l 2,1,2
 439 745 439 745 523.5 699 c 128,-1,3
 608 653 608 653 654 568.5 c 128,-1,4
 700 484 700 484 700 373 c 256,5,6
 700 262 700 262 654 177.5 c 128,-1,7
 608 93 608 93 523.5 46.5 c 128,-1,8
 439 0 439 0 327 0 c 2,9,-1
 83 0 l 1,10,-1
 83 745 l 1,0,-1
328 90 m 2,11,12
 410 90 410 90 471 124.5 c 128,-1,13
 532 159 532 159 565 223 c 128,-1,14
 598 287 598 287 598 373 c 256,15,16
 598 459 598 459 565 522.5 c 128,-1,17
 532 586 532 586 470.5 620.5 c 128,-1,18
 409 655 409 655 328 655 c 2,19,-1
 181 655 l 1,20,-1
 181 90 l 1,21,-1
 328 90 l 2,11,12
761 72 m 1,22,-1
 1165 655 l 1,23,-1
 784 655 l 1,24,-1
 784 745 l 1,25,-1
 1293 745 l 1,26,-1
 1293 673 l 1,27,-1
 889 90 l 1,28,-1
 1302 90 l 1,29,-1
 1302 0 l 1,30,-1
 761 0 l 1,31,-1
 761 72 l 1,22,-1
955 991 m 1,32,-1
 1031 896 l 1,33,-1
 1109 991 l 1,34,-1
 1194 991 l 1,35,-1
 1078 847 l 1,36,-1
 983 847 l 1,37,-1
 869 991 l 1,38,-1
 955 991 l 1,32,-1
EndSplineSet
Validated: 1
Position2: "'cpsp' Capital Spacing in Latin lookup 0 subtable" dx=5 dy=0 dh=10 dv=0
EndChar

StartChar: Eth
Encoding: 208 208 40
Width: 741
GlyphClass: 2
Flags: W
AnchorPoint: "Anchor-6" 380 745 basechar 0
AnchorPoint: "Anchor-4" 380 0 basechar 0
LayerCount: 2
Fore
SplineSet
83 337 m 1,0,-1
 -6 337 l 1,1,-1
 -6 408 l 1,2,-1
 83 408 l 1,3,-1
 83 745 l 1,4,-1
 327 745 l 2,5,6
 439 745 439 745 523.5 699 c 128,-1,7
 608 653 608 653 654 568.5 c 128,-1,8
 700 484 700 484 700 373 c 256,9,10
 700 262 700 262 654 177.5 c 128,-1,11
 608 93 608 93 523.5 46.5 c 128,-1,12
 439 0 439 0 327 0 c 2,13,-1
 83 0 l 1,14,-1
 83 337 l 1,0,-1
328 90 m 2,15,16
 410 90 410 90 471 124.5 c 128,-1,17
 532 159 532 159 565 223 c 128,-1,18
 598 287 598 287 598 373 c 256,19,20
 598 459 598 459 565 522.5 c 128,-1,21
 532 586 532 586 470.5 620.5 c 128,-1,22
 409 655 409 655 328 655 c 2,23,-1
 181 655 l 1,24,-1
 181 408 l 1,25,-1
 370 408 l 1,26,-1
 370 337 l 1,27,-1
 181 337 l 1,28,-1
 181 90 l 1,29,-1
 328 90 l 2,15,16
EndSplineSet
Validated: 1
Position2: "'cpsp' Capital Spacing in Latin lookup 0 subtable" dx=5 dy=0 dh=10 dv=0
EndChar

StartChar: uni01C5
Encoding: 453 453 45
Width: 1201
GlyphClass: 1
Flags: W
LayerCount: 2
Fore
SplineSet
83 745 m 1,0,-1
 327 745 l 2,1,2
 439 745 439 745 523.5 699 c 128,-1,3
 608 653 608 653 654 568.5 c 128,-1,4
 700 484 700 484 700 373 c 256,5,6
 700 262 700 262 654 177.5 c 128,-1,7
 608 93 608 93 523.5 46.5 c 128,-1,8
 439 0 439 0 327 0 c 2,9,-1
 83 0 l 1,10,-1
 83 745 l 1,0,-1
328 90 m 2,11,12
 410 90 410 90 471 124.5 c 128,-1,13
 532 159 532 159 565 223 c 128,-1,14
 598 287 598 287 598 373 c 256,15,16
 598 459 598 459 565 522.5 c 128,-1,17
 532 586 532 586 470.5 620.5 c 128,-1,18
 409 655 409 655 328 655 c 2,19,-1
 181 655 l 1,20,-1
 181 90 l 1,21,-1
 328 90 l 2,11,12
761 79 m 1,22,-1
 1054 450 l 1,23,-1
 777 450 l 1,24,-1
 777 539 l 1,25,-1
 1180 539 l 1,26,-1
 1180 460 l 1,27,-1
 889 89 l 1,28,-1
 1182 89 l 1,29,-1
 1182 0 l 1,30,-1
 761 0 l 1,31,-1
 761 79 l 1,22,-1
892 784 m 1,32,-1
 968 690 l 1,33,-1
 1046 784 l 1,34,-1
 1131 784 l 1,35,-1
 1015 640 l 1,36,-1
 920 640 l 1,37,-1
 806 784 l 1,38,-1
 892 784 l 1,32,-1
EndSplineSet
Validated: 1
Position2: "'cpsp' Capital Spacing in Latin lookup 0 subtable" dx=5 dy=0 dh=10 dv=0
EndChar

StartChar: E
Encoding: 69 69 46
Width: 606
GlyphClass: 2
Flags: W
AnchorPoint: "Anchor-6" 325 745 basechar 0
AnchorPoint: "Anchor-5" 508 35 basechar 0
AnchorPoint: "Anchor-4" 325 0 basechar 0
LayerCount: 2
Fore
SplineSet
83 745 m 1,0,-1
 568 745 l 1,1,-1
 568 655 l 1,2,-1
 181 655 l 1,3,-1
 181 419 l 1,4,-1
 548 419 l 1,5,-1
 548 329 l 1,6,-1
 181 329 l 1,7,-1
 181 90 l 1,8,-1
 568 90 l 1,9,-1
 568 0 l 1,10,-1
 83 0 l 1,11,-1
 83 745 l 1,0,-1
EndSplineSet
Validated: 1
Position2: "'cpsp' Capital Spacing in Latin lookup 0 subtable" dx=5 dy=0 dh=10 dv=0
EndChar

StartChar: uni1E1C
Encoding: 7708 7708 50
Width: 606
GlyphClass: 2
Flags: W
AnchorPoint: "Anchor-5" 508 35 basechar 0
AnchorPoint: "Anchor-4" 325 0 basechar 0
LayerCount: 2
Fore
SplineSet
83 745 m 1,0,-1
 568 745 l 1,1,-1
 568 655 l 1,2,-1
 181 655 l 1,3,-1
 181 419 l 1,4,-1
 548 419 l 1,5,-1
 548 329 l 1,6,-1
 181 329 l 1,7,-1
 181 90 l 1,8,-1
 568 90 l 1,9,-1
 568 0 l 1,10,-1
 356 0 l 1,11,-1
 350 -62 l 1,12,13
 362 -60 362 -60 369 -60 c 0,14,15
 405 -60 405 -60 428.5 -81 c 128,-1,16
 452 -102 452 -102 452 -136 c 0,17,18
 452 -177 452 -177 420.5 -203.5 c 128,-1,19
 389 -230 389 -230 333 -230 c 0,20,21
 314 -230 314 -230 292 -226 c 128,-1,22
 270 -222 270 -222 255 -216 c 1,23,-1
 267 -166 l 1,24,25
 294 -176 294 -176 327 -176 c 0,26,27
 350 -176 350 -176 363 -166 c 128,-1,28
 376 -156 376 -156 376 -139 c 0,29,30
 376 -124 376 -124 367 -116 c 128,-1,31
 358 -108 358 -108 341 -108 c 0,32,33
 317 -108 317 -108 301 -116 c 1,34,-1
 280 -107 l 1,35,-1
 293 0 l 1,36,-1
 83 0 l 1,37,-1
 83 745 l 1,0,-1
251 986 m 1,38,39
 251 956 251 956 272.5 934 c 128,-1,40
 294 912 294 912 325 912 c 256,41,42
 356 912 356 912 378 934 c 128,-1,43
 400 956 400 956 400 986 c 1,44,-1
 470 986 l 1,45,46
 470 949 470 949 450.5 917 c 128,-1,47
 431 885 431 885 397.5 866 c 128,-1,48
 364 847 364 847 325 847 c 256,49,50
 286 847 286 847 252.5 866 c 128,-1,51
 219 885 219 885 199.5 917 c 128,-1,52
 180 949 180 949 180 986 c 1,53,-1
 251 986 l 1,38,39
EndSplineSet
Validated: 1
Position2: "'cpsp' Capital Spacing in Latin lookup 0 subtable" dx=5 dy=0 dh=10 dv=0
EndChar

StartChar: Eogonek
Encoding: 280 280 67
Width: 606
GlyphClass: 2
Flags: W
AnchorPoint: "Anchor-6" 325 745 basechar 0
AnchorPoint: "Anchor-5" 508 35 basechar 0
AnchorPoint: "Anchor-4" 325 0 basechar 0
LayerCount: 2
Fore
SplineSet
83 745 m 1,0,-1
 568 745 l 1,1,-1
 568 655 l 1,2,-1
 181 655 l 1,3,-1
 181 419 l 1,4,-1
 548 419 l 1,5,-1
 548 329 l 1,6,-1
 181 329 l 1,7,-1
 181 90 l 1,8,-1
 568 90 l 1,9,-1
 568 0 l 1,10,-1
 493 0 l 1,11,12
 437 -30 437 -30 437 -72 c 0,13,14
 437 -94 437 -94 451.5 -106.5 c 128,-1,15
 466 -119 466 -119 491 -119 c 0,16,17
 527 -119 527 -119 567 -91 c 1,18,-1
 597 -139 l 1,19,20
 547 -181 547 -181 484 -181 c 0,21,22
 434 -181 434 -181 402 -155.5 c 128,-1,23
 370 -130 370 -130 370 -88 c 0,24,25
 370 -63 370 -63 382 -40 c 128,-1,26
 394 -17 394 -17 417 0 c 1,27,-1
 83 0 l 1,28,-1
 83 745 l 1,0,-1
EndSplineSet
Validated: 1
Position2: "'cpsp' Capital Spacing in Latin lookup 0 subtable" dx=5 dy=0 dh=10 dv=0
EndChar

StartChar: F
Encoding: 70 70 69
Width: 583
GlyphClass: 2
Flags: W
AnchorPoint: "Anchor-6" 292 745 basechar 0
AnchorPoint: "Anchor-4" 292 0 basechar 0
LayerCount: 2
Fore
SplineSet
83 745 m 1,0,-1
 555 745 l 1,1,-1
 555 655 l 1,2,-1
 181 655 l 1,3,-1
 181 414 l 1,4,-1
 520 414 l 1,5,-1
 520 324 l 1,6,-1
 181 324 l 1,7,-1
 181 0 l 1,8,-1
 83 0 l 1,9,-1
 83 745 l 1,0,-1
EndSplineSet
Validated: 1
Position2: "'cpsp' Capital Spacing in Latin lookup 0 subtable" dx=5 dy=0 dh=10 dv=0
EndChar

StartChar: G
Encoding: 71 71 70
Width: 817
GlyphClass: 2
Flags: W
AnchorPoint: "Anchor-6" 409 745 basechar 0
AnchorPoint: "Anchor-4" 409 0 basechar 0
LayerCount: 2
Fore
SplineSet
239.5 37.5 m 128,-1,1
 156 87 156 87 108.5 174.5 c 128,-1,2
 61 262 61 262 61 372 c 256,3,4
 61 482 61 482 108 570 c 128,-1,5
 155 658 155 658 238.5 707.5 c 128,-1,6
 322 757 322 757 426 757 c 0,7,8
 500 757 500 757 562 730.5 c 128,-1,9
 624 704 624 704 667 661 c 128,-1,10
 710 618 710 618 729 568 c 1,11,-1
 641 525 l 1,12,13
 615 591 615 591 559 628.5 c 128,-1,14
 503 666 503 666 426 666 c 0,15,16
 348 666 348 666 287.5 629 c 128,-1,17
 227 592 227 592 193 525 c 128,-1,18
 159 458 159 458 159 372 c 256,19,20
 159 286 159 286 193 219.5 c 128,-1,21
 227 153 227 153 288 116 c 128,-1,22
 349 79 349 79 427 79 c 0,23,24
 494 79 494 79 549.5 108 c 128,-1,25
 605 137 605 137 637 188.5 c 128,-1,26
 669 240 669 240 669 306 c 2,27,-1
 669 310 l 1,28,-1
 426 310 l 1,29,-1
 426 395 l 1,30,-1
 768 395 l 1,31,-1
 768 329 l 2,32,33
 768 228 768 228 722 150.5 c 128,-1,34
 676 73 676 73 598 30.5 c 128,-1,35
 520 -12 520 -12 427 -12 c 0,36,0
 323 -12 323 -12 239.5 37.5 c 128,-1,1
EndSplineSet
Validated: 1
Substitution2: "'ss03' Style Set 3 in Latin lookup 22 subtable" G.ss03
Substitution2: "'ss01' Style Set 1 in Latin lookup 20 subtable" G.ss01
Substitution2: "'salt' Stylistic Alternatives in Latin lookup 19 subtable" G.ss01
AlternateSubs2: "'aalt' Access All Alternates in Latin lookup 1 subtable" G.ss01 G.ss03
Position2: "'cpsp' Capital Spacing in Latin lookup 0 subtable" dx=5 dy=0 dh=10 dv=0
EndChar

StartChar: G.ss01
Encoding: 65537 -1 71
Width: 794
GlyphClass: 2
Flags: W
AnchorPoint: "Anchor-6" 416 745 basechar 0
AnchorPoint: "Anchor-4" 397 0 basechar 0
LayerCount: 2
Fore
SplineSet
229.5 37.5 m 128,-1,1
 146 87 146 87 98.5 174.5 c 128,-1,2
 51 262 51 262 51 372 c 256,3,4
 51 482 51 482 98 570 c 128,-1,5
 145 658 145 658 228.5 707.5 c 128,-1,6
 312 757 312 757 416 757 c 0,7,8
 490 757 490 757 552 730.5 c 128,-1,9
 614 704 614 704 657 661 c 128,-1,10
 700 618 700 618 720 568 c 1,11,-1
 631 525 l 1,12,13
 605 591 605 591 549 628.5 c 128,-1,14
 493 666 493 666 416 666 c 256,15,16
 339 666 339 666 278.5 629 c 128,-1,17
 218 592 218 592 184 525 c 128,-1,18
 150 458 150 458 150 372 c 256,19,20
 150 286 150 286 184 219.5 c 128,-1,21
 218 153 218 153 279 116 c 128,-1,22
 340 79 340 79 417 79 c 0,23,24
 484 79 484 79 539.5 107.5 c 128,-1,25
 595 136 595 136 627.5 187.5 c 128,-1,26
 660 239 660 239 660 305 c 2,27,-1
 660 310 l 1,28,-1
 416 310 l 1,29,-1
 416 395 l 1,30,-1
 748 395 l 1,31,-1
 748 0 l 1,32,-1
 661 0 l 1,33,-1
 661 99 l 1,34,35
 617 46 617 46 553.5 17 c 128,-1,36
 490 -12 490 -12 417 -12 c 0,37,0
 313 -12 313 -12 229.5 37.5 c 128,-1,1
EndSplineSet
Validated: 1
Position2: "'cpsp' Capital Spacing in Latin lookup 0 subtable" dx=5 dy=0 dh=10 dv=0
EndChar

StartChar: G.ss03
Encoding: 65538 -1 72
Width: 796
GlyphClass: 2
Flags: W
AnchorPoint: "Anchor-6" 423 745 basechar 0
AnchorPoint: "Anchor-4" 398 0 basechar 0
LayerCount: 2
Fore
SplineSet
244 37 m 128,-1,1
 159 86 159 86 110 174 c 128,-1,2
 61 262 61 262 61 374 c 0,3,4
 61 484 61 484 108.5 571.5 c 128,-1,5
 156 659 156 659 239 708 c 128,-1,6
 322 757 322 757 424 757 c 0,7,8
 499 757 499 757 561.5 730.5 c 128,-1,9
 624 704 624 704 667 661 c 128,-1,10
 710 618 710 618 729 568 c 1,11,-1
 641 525 l 1,12,13
 615 591 615 591 559 628.5 c 128,-1,14
 503 666 503 666 426 666 c 256,15,16
 349 666 349 666 288 629 c 128,-1,17
 227 592 227 592 193 525.5 c 128,-1,18
 159 459 159 459 159 373 c 0,19,20
 159 283 159 283 195.5 216.5 c 128,-1,21
 232 150 232 150 294.5 114.5 c 128,-1,22
 357 79 357 79 433 79 c 0,23,24
 508 79 508 79 570 111 c 128,-1,25
 632 143 632 143 666 199 c 1,26,-1
 666 310 l 1,27,-1
 426 310 l 1,28,-1
 426 395 l 1,29,-1
 758 395 l 1,30,-1
 758 170 l 1,31,32
 712 84 712 84 625 36 c 128,-1,33
 538 -12 538 -12 433 -12 c 0,34,0
 329 -12 329 -12 244 37 c 128,-1,1
EndSplineSet
Validated: 1
Position2: "'cpsp' Capital Spacing in Latin lookup 0 subtable" dx=5 dy=0 dh=10 dv=0
EndChar

StartChar: H
Encoding: 72 72 91
Width: 735
GlyphClass: 2
Flags: W
AnchorPoint: "Anchor-6" 368 745 basechar 0
AnchorPoint: "Anchor-4" 368 0 basechar 0
LayerCount: 2
Fore
SplineSet
83 745 m 1,0,-1
 181 745 l 1,1,-1
 181 413 l 1,2,-1
 554 413 l 1,3,-1
 554 745 l 1,4,-1
 653 745 l 1,5,-1
 653 0 l 1,6,-1
 554 0 l 1,7,-1
 554 323 l 1,8,-1
 181 323 l 1,9,-1
 181 0 l 1,10,-1
 83 0 l 1,11,-1
 83 745 l 1,0,-1
EndSplineSet
Validated: 1
Position2: "'cpsp' Capital Spacing in Latin lookup 0 subtable" dx=5 dy=0 dh=10 dv=0
EndChar

StartChar: Hbar
Encoding: 294 294 92
Width: 735
GlyphClass: 2
Flags: W
AnchorPoint: "Anchor-6" 368 745 basechar 0
AnchorPoint: "Anchor-4" 368 0 basechar 0
LayerCount: 2
Fore
SplineSet
83 560 m 1,0,-1
 8 560 l 1,1,-1
 8 631 l 1,2,-1
 83 631 l 1,3,-1
 83 745 l 1,4,-1
 181 745 l 1,5,-1
 181 631 l 1,6,-1
 554 631 l 1,7,-1
 554 745 l 1,8,-1
 653 745 l 1,9,-1
 653 631 l 1,10,-1
 728 631 l 1,11,-1
 728 560 l 1,12,-1
 653 560 l 1,13,-1
 653 0 l 1,14,-1
 554 0 l 1,15,-1
 554 323 l 1,16,-1
 181 323 l 1,17,-1
 181 0 l 1,18,-1
 83 0 l 1,19,-1
 83 560 l 1,0,-1
554 413 m 1,20,-1
 554 560 l 1,21,-1
 181 560 l 1,22,-1
 181 413 l 1,23,-1
 554 413 l 1,20,-1
EndSplineSet
Validated: 1
Position2: "'cpsp' Capital Spacing in Latin lookup 0 subtable" dx=5 dy=0 dh=10 dv=0
EndChar

StartChar: I
Encoding: 73 73 96
Width: 264
GlyphClass: 2
Flags: W
AnchorPoint: "Anchor-6" 132 745 basechar 0
AnchorPoint: "Anchor-5" 132 35 basechar 0
AnchorPoint: "Anchor-4" 132 0 basechar 0
LayerCount: 2
Fore
SplineSet
83 745 m 1,0,-1
 181 745 l 1,1,-1
 181 0 l 1,2,-1
 83 0 l 1,3,-1
 83 745 l 1,0,-1
EndSplineSet
Validated: 1
Substitution2: "'ss01' Style Set 1 in Latin lookup 20 subtable" I.ss01
Substitution2: "'salt' Stylistic Alternatives in Latin lookup 19 subtable" I.ss01
Substitution2: "'aalt' Access All Alternates in Latin lookup 0 subtable" I.ss01
Position2: "'cpsp' Capital Spacing in Latin lookup 0 subtable" dx=5 dy=0 dh=10 dv=0
EndChar

StartChar: I.ss01
Encoding: 65551 -1 97
Width: 403
GlyphClass: 2
Flags: W
AnchorPoint: "Anchor-6" 202 745 basechar 0
AnchorPoint: "Anchor-5" 202 35 basechar 0
AnchorPoint: "Anchor-4" 202 0 basechar 0
LayerCount: 2
Fore
SplineSet
47 86 m 1,0,-1
 152 86 l 1,1,-1
 152 659 l 1,2,-1
 47 659 l 1,3,-1
 47 745 l 1,4,-1
 356 745 l 1,5,-1
 356 659 l 1,6,-1
 251 659 l 1,7,-1
 251 86 l 1,8,-1
 356 86 l 1,9,-1
 356 0 l 1,10,-1
 47 0 l 1,11,-1
 47 86 l 1,0,-1
EndSplineSet
Validated: 1
Position2: "'cpsp' Capital Spacing in Latin lookup 0 subtable" dx=5 dy=0 dh=10 dv=0
EndChar

StartChar: Iogonek
Encoding: 302 302 122
Width: 264
GlyphClass: 2
Flags: W
AnchorPoint: "Anchor-6" 132 745 basechar 0
AnchorPoint: "Anchor-5" 132 35 basechar 0
AnchorPoint: "Anchor-4" 132 0 basechar 0
LayerCount: 2
Fore
SplineSet
25.5 -155.5 m 128,-1,1
 -7 -130 -7 -130 -7 -88 c 0,2,3
 -7 -52 -7 -52 17 -22.5 c 128,-1,4
 41 7 41 7 83 24 c 1,5,-1
 83 745 l 1,6,-1
 181 745 l 1,7,-1
 181 0 l 1,8,-1
 117 0 l 1,9,10
 61 -30 61 -30 61 -72 c 0,11,12
 61 -94 61 -94 75.5 -106.5 c 128,-1,13
 90 -119 90 -119 115 -119 c 0,14,15
 151 -119 151 -119 191 -91 c 1,16,-1
 221 -139 l 1,17,18
 171 -181 171 -181 108 -181 c 0,19,0
 58 -181 58 -181 25.5 -155.5 c 128,-1,1
EndSplineSet
Validated: 1
Substitution2: "'ss01' Style Set 1 in Latin lookup 20 subtable" Iogonek.ss01
Substitution2: "'salt' Stylistic Alternatives in Latin lookup 19 subtable" Iogonek.ss01
Substitution2: "'aalt' Access All Alternates in Latin lookup 0 subtable" Iogonek.ss01
Position2: "'cpsp' Capital Spacing in Latin lookup 0 subtable" dx=5 dy=0 dh=10 dv=0
EndChar

StartChar: Iogonek.ss01
Encoding: 65564 -1 123
Width: 403
GlyphClass: 2
Flags: W
AnchorPoint: "Anchor-6" 202 745 basechar 0
AnchorPoint: "Anchor-5" 202 35 basechar 0
AnchorPoint: "Anchor-4" 202 0 basechar 0
LayerCount: 2
Fore
SplineSet
47 86 m 1,0,-1
 152 86 l 1,1,-1
 152 659 l 1,2,-1
 47 659 l 1,3,-1
 47 745 l 1,4,-1
 356 745 l 1,5,-1
 356 659 l 1,6,-1
 251 659 l 1,7,-1
 251 86 l 1,8,-1
 356 86 l 1,9,-1
 356 0 l 1,10,-1
 187 0 l 1,11,12
 131 -30 131 -30 131 -72 c 0,13,14
 131 -94 131 -94 145.5 -106.5 c 128,-1,15
 160 -119 160 -119 185 -119 c 0,16,17
 221 -119 221 -119 261 -91 c 1,18,-1
 291 -139 l 1,19,20
 241 -181 241 -181 178 -181 c 0,21,22
 128 -181 128 -181 96 -155.5 c 128,-1,23
 64 -130 64 -130 64 -88 c 0,24,25
 64 -63 64 -63 76 -40 c 128,-1,26
 88 -17 88 -17 111 0 c 1,27,-1
 47 0 l 1,28,-1
 47 86 l 1,0,-1
EndSplineSet
Validated: 1
Position2: "'cpsp' Capital Spacing in Latin lookup 0 subtable" dx=5 dy=0 dh=10 dv=0
EndChar

StartChar: J
Encoding: 74 74 126
Width: 386
GlyphClass: 2
Flags: W
AnchorPoint: "Anchor-6" 255 745 basechar 0
AnchorPoint: "Anchor-4" 205 0 basechar 0
LayerCount: 2
Fore
SplineSet
50 95 m 1,0,-1
 91 95 l 2,1,2
 144 95 144 95 175 126.5 c 128,-1,3
 206 158 206 158 206 212 c 2,4,-1
 206 745 l 1,5,-1
 305 745 l 1,6,-1
 305 214 l 2,7,8
 305 116 305 116 247 58 c 128,-1,9
 189 0 189 0 91 0 c 2,10,-1
 50 0 l 1,11,-1
 50 95 l 1,0,-1
EndSplineSet
Validated: 1
Substitution2: "'ss03' Style Set 3 in Latin lookup 22 subtable" J.ss03
Substitution2: "'aalt' Access All Alternates in Latin lookup 0 subtable" J.ss03
Position2: "'cpsp' Capital Spacing in Latin lookup 0 subtable" dx=5 dy=0 dh=10 dv=0
EndChar

StartChar: J.ss03
Encoding: 65566 -1 127
Width: 590
GlyphClass: 2
Flags: W
AnchorPoint: "Anchor-6" 459 745 basechar 0
AnchorPoint: "Anchor-4" 304 0 basechar 0
LayerCount: 2
Fore
SplineSet
124 37.5 m 128,-1,1
 59 87 59 87 40 170 c 1,2,-1
 131 196 l 1,3,4
 148 141 148 141 187.5 110 c 128,-1,5
 227 79 227 79 282 79 c 0,6,7
 341 79 341 79 375 114.5 c 128,-1,8
 409 150 409 150 409 208 c 2,9,-1
 409 745 l 1,10,-1
 508 745 l 1,11,-1
 508 208 l 2,12,13
 508 145 508 145 480.5 95 c 128,-1,14
 453 45 453 45 401.5 16.5 c 128,-1,15
 350 -12 350 -12 281 -12 c 0,16,0
 189 -12 189 -12 124 37.5 c 128,-1,1
EndSplineSet
Validated: 1
Position2: "'cpsp' Capital Spacing in Latin lookup 0 subtable" dx=5 dy=0 dh=10 dv=0
EndChar

StartChar: K
Encoding: 75 75 130
Width: 662
GlyphClass: 2
Flags: W
AnchorPoint: "Anchor-6" 331 745 basechar 0
AnchorPoint: "Anchor-4" 331 0 basechar 0
LayerCount: 2
Fore
SplineSet
83 745 m 1,0,-1
 181 745 l 1,1,-1
 181 364 l 1,2,-1
 513 745 l 1,3,-1
 636 745 l 1,4,-1
 366 433 l 1,5,-1
 651 0 l 1,6,-1
 534 0 l 1,7,-1
 298 354 l 1,8,-1
 181 220 l 1,9,-1
 181 0 l 1,10,-1
 83 0 l 1,11,-1
 83 745 l 1,0,-1
EndSplineSet
Validated: 1
Substitution2: "'ss03' Style Set 3 in Latin lookup 22 subtable" K.ss03
Substitution2: "'ss01' Style Set 1 in Latin lookup 20 subtable" K.ss01
Substitution2: "'salt' Stylistic Alternatives in Latin lookup 19 subtable" K.ss01
AlternateSubs2: "'aalt' Access All Alternates in Latin lookup 1 subtable" K.ss01 K.ss03
Position2: "'cpsp' Capital Spacing in Latin lookup 0 subtable" dx=5 dy=0 dh=10 dv=0
EndChar

StartChar: K.ss01
Encoding: 65568 -1 131
Width: 656
GlyphClass: 2
Flags: W
AnchorPoint: "Anchor-6" 329 745 basechar 0
AnchorPoint: "Anchor-4" 329 0 basechar 0
LayerCount: 2
Fore
SplineSet
281 327 m 1,0,-1
 174 327 l 1,1,-1
 174 0 l 1,2,-1
 75 0 l 1,3,-1
 75 745 l 1,4,-1
 174 745 l 1,5,-1
 174 418 l 1,6,-1
 282 418 l 1,7,-1
 492 745 l 1,8,-1
 611 745 l 1,9,-1
 372 374 l 1,10,-1
 648 0 l 1,11,-1
 527 0 l 1,12,-1
 281 327 l 1,0,-1
EndSplineSet
Validated: 1
Position2: "'cpsp' Capital Spacing in Latin lookup 0 subtable" dx=5 dy=0 dh=10 dv=0
EndChar

StartChar: K.ss03
Encoding: 65569 -1 132
Width: 691
GlyphClass: 2
Flags: W
AnchorPoint: "Anchor-6" 346 745 basechar 0
AnchorPoint: "Anchor-4" 346 0 basechar 0
LayerCount: 2
Fore
SplineSet
579.5 4 m 128,-1,1
 548 14 548 14 515.5 46.5 c 128,-1,2
 483 79 483 79 438 147 c 2,3,-1
 299 355 l 1,4,-1
 181 220 l 1,5,-1
 181 0 l 1,6,-1
 83 0 l 1,7,-1
 83 745 l 1,8,-1
 181 745 l 1,9,-1
 181 364 l 1,10,-1
 513 745 l 1,11,-1
 636 745 l 1,12,-1
 366 434 l 1,13,-1
 545 164 l 2,14,15
 576 117 576 117 600 98 c 128,-1,16
 624 79 624 79 662 79 c 2,17,-1
 680 79 l 1,18,-1
 680 -6 l 1,19,-1
 660 -6 l 2,20,0
 611 -6 611 -6 579.5 4 c 128,-1,1
EndSplineSet
Validated: 1
Position2: "'cpsp' Capital Spacing in Latin lookup 0 subtable" dx=5 dy=0 dh=10 dv=0
EndChar

StartChar: L
Encoding: 76 76 136
Width: 535
GlyphClass: 2
Flags: W
AnchorPoint: "Anchor-7" 370 501 basechar 0
AnchorPoint: "Anchor-6" 132 745 basechar 0
AnchorPoint: "Anchor-4" 295 0 basechar 0
LayerCount: 2
Fore
SplineSet
83 745 m 1,0,-1
 181 745 l 1,1,-1
 181 90 l 1,2,-1
 508 90 l 1,3,-1
 508 0 l 1,4,-1
 83 0 l 1,5,-1
 83 745 l 1,0,-1
EndSplineSet
Validated: 1
Position2: "'cpsp' Capital Spacing in Latin lookup 0 subtable" dx=5 dy=0 dh=10 dv=0
EndChar

StartChar: Ldot
Encoding: 319 319 141
Width: 535
GlyphClass: 2
Flags: W
AnchorPoint: "Anchor-7" 370 501 basechar 0
AnchorPoint: "Anchor-6" 132 745 basechar 0
AnchorPoint: "Anchor-4" 295 0 basechar 0
LayerCount: 2
Fore
SplineSet
83 745 m 1,0,-1
 181 745 l 1,1,-1
 181 90 l 1,2,-1
 508 90 l 1,3,-1
 508 0 l 1,4,-1
 83 0 l 1,5,-1
 83 745 l 1,0,-1
300.5 417 m 128,-1,7
 319 435 319 435 345 435 c 256,8,9
 371 435 371 435 389 417 c 128,-1,10
 407 399 407 399 407 373 c 0,11,12
 407 346 407 346 389 328 c 128,-1,13
 371 310 371 310 345 310 c 256,14,15
 319 310 319 310 300.5 328.5 c 128,-1,16
 282 347 282 347 282 373 c 256,17,6
 282 399 282 399 300.5 417 c 128,-1,7
EndSplineSet
Validated: 1
Position2: "'cpsp' Capital Spacing in Latin lookup 0 subtable" dx=5 dy=0 dh=10 dv=0
EndChar

StartChar: Lslash
Encoding: 321 321 145
Width: 535
GlyphClass: 2
Flags: W
AnchorPoint: "Anchor-7" 370 501 basechar 0
AnchorPoint: "Anchor-6" 132 745 basechar 0
AnchorPoint: "Anchor-4" 295 0 basechar 0
LayerCount: 2
Fore
SplineSet
83 320 m 1,0,-1
 -25 285 l 1,1,-1
 -25 361 l 1,2,-1
 83 396 l 1,3,-1
 83 745 l 1,4,-1
 181 745 l 1,5,-1
 181 427 l 1,6,-1
 288 461 l 1,7,-1
 288 385 l 1,8,-1
 181 351 l 1,9,-1
 181 90 l 1,10,-1
 508 90 l 1,11,-1
 508 0 l 1,12,-1
 83 0 l 1,13,-1
 83 320 l 1,0,-1
EndSplineSet
Validated: 1
Position2: "'cpsp' Capital Spacing in Latin lookup 0 subtable" dx=5 dy=0 dh=10 dv=0
EndChar

StartChar: M
Encoding: 77 77 146
Width: 855
GlyphClass: 2
Flags: W
AnchorPoint: "Anchor-6" 428 745 basechar 0
AnchorPoint: "Anchor-4" 428 0 basechar 0
LayerCount: 2
Fore
SplineSet
83 745 m 1,0,-1
 173 745 l 1,1,-1
 429 381 l 1,2,-1
 683 745 l 1,3,-1
 773 745 l 1,4,-1
 773 0 l 1,5,-1
 674 0 l 1,6,-1
 674 561 l 1,7,-1
 432 220 l 1,8,-1
 424 220 l 1,9,-1
 181 566 l 1,10,-1
 181 0 l 1,11,-1
 83 0 l 1,12,-1
 83 745 l 1,0,-1
EndSplineSet
Validated: 1
Position2: "'cpsp' Capital Spacing in Latin lookup 0 subtable" dx=5 dy=0 dh=10 dv=0
EndChar

StartChar: N
Encoding: 78 78 148
Width: 738
GlyphClass: 2
Flags: W
AnchorPoint: "Anchor-6" 369 745 basechar 0
AnchorPoint: "Anchor-4" 369 0 basechar 0
LayerCount: 2
Fore
SplineSet
83 745 m 1,0,-1
 165 745 l 1,1,-1
 556 195 l 1,2,-1
 556 745 l 1,3,-1
 655 745 l 1,4,-1
 655 0 l 1,5,-1
 573 0 l 1,6,-1
 181 558 l 1,7,-1
 181 0 l 1,8,-1
 83 0 l 1,9,-1
 83 745 l 1,0,-1
EndSplineSet
Validated: 1
Position2: "'cpsp' Capital Spacing in Latin lookup 0 subtable" dx=5 dy=0 dh=10 dv=0
EndChar

StartChar: Eng
Encoding: 330 330 158
Width: 738
GlyphClass: 1
Flags: W
LayerCount: 2
Fore
SplineSet
426 -216 m 1,1,-1
 426 -129 l 1,2,3
 447 -132 447 -132 466 -132 c 0,4,5
 509 -132 509 -132 533.5 -110 c 128,-1,6
 558 -88 558 -88 558 -43 c 2,7,-1
 558 20 l 1,8,-1
 181 557 l 1,9,-1
 181 0 l 1,10,-1
 83 0 l 1,11,-1
 83 745 l 1,12,-1
 165 745 l 1,13,-1
 556 194 l 1,14,-1
 556 745 l 1,15,-1
 655 745 l 1,16,-1
 655 -43 l 2,17,18
 655 -127 655 -127 603 -174 c 128,-1,19
 551 -221 551 -221 470 -221 c 0,20,0
 444 -221 444 -221 426 -216 c 1,1,-1
EndSplineSet
Validated: 1
Position2: "'cpsp' Capital Spacing in Latin lookup 0 subtable" dx=5 dy=0 dh=10 dv=0
EndChar

StartChar: O
Encoding: 79 79 159
Width: 878
GlyphClass: 2
Flags: W
AnchorPoint: "Anchor-7" 858 745 basechar 0
AnchorPoint: "Anchor-6" 439 745 basechar 0
AnchorPoint: "Anchor-5" 502 35 basechar 0
AnchorPoint: "Anchor-4" 439 0 basechar 0
LayerCount: 2
Fore
SplineSet
247.5 38 m 128,-1,1
 161 88 161 88 111 176 c 128,-1,2
 61 264 61 264 61 373 c 256,3,4
 61 482 61 482 111 570 c 128,-1,5
 161 658 161 658 247.5 707.5 c 128,-1,6
 334 757 334 757 439 757 c 256,7,8
 544 757 544 757 630.5 707 c 128,-1,9
 717 657 717 657 767.5 569.5 c 128,-1,10
 818 482 818 482 818 373 c 256,11,12
 818 264 818 264 767.5 176 c 128,-1,13
 717 88 717 88 630.5 38 c 128,-1,14
 544 -12 544 -12 439 -12 c 256,15,0
 334 -12 334 -12 247.5 38 c 128,-1,1
195 224.5 m 128,-1,17
 231 157 231 157 295 118 c 128,-1,18
 359 79 359 79 439 79 c 256,19,20
 519 79 519 79 583 118 c 128,-1,21
 647 157 647 157 683 224.5 c 128,-1,22
 719 292 719 292 719 373 c 256,23,24
 719 454 719 454 683 521 c 128,-1,25
 647 588 647 588 583 627 c 128,-1,26
 519 666 519 666 439 666 c 256,27,28
 359 666 359 666 295 627 c 128,-1,29
 231 588 231 588 195 521 c 128,-1,30
 159 454 159 454 159 373 c 256,31,16
 159 292 159 292 195 224.5 c 128,-1,17
EndSplineSet
Validated: 1
Substitution2: "Single Substitution lookup 28 subtable" ordmasculine
Substitution2: "'aalt' Access All Alternates in Latin lookup 0 subtable" ordmasculine
Position2: "'cpsp' Capital Spacing in Latin lookup 0 subtable" dx=5 dy=0 dh=10 dv=0
EndChar

StartChar: Ohorn
Encoding: 416 416 175
Width: 878
GlyphClass: 2
Flags: W
AnchorPoint: "Anchor-6" 439 745 basechar 0
AnchorPoint: "Anchor-4" 439 0 basechar 0
LayerCount: 2
Fore
SplineSet
247.5 38 m 128,-1,1
 161 88 161 88 111 176 c 128,-1,2
 61 264 61 264 61 373 c 256,3,4
 61 482 61 482 111 570 c 128,-1,5
 161 658 161 658 247.5 707.5 c 128,-1,6
 334 757 334 757 439 757 c 2,7,-1
 649 757 l 2,8,9
 698 757 698 757 698 808 c 0,10,11
 698 839 698 839 676 887 c 1,12,-1
 776 887 l 1,13,14
 801 841 801 841 801 799 c 0,15,16
 801 740 801 740 768 709.5 c 128,-1,17
 735 679 735 679 677 676 c 1,18,19
 743 624 743 624 780.5 545 c 128,-1,20
 818 466 818 466 818 373 c 0,21,22
 818 264 818 264 767.5 176 c 128,-1,23
 717 88 717 88 630.5 38 c 128,-1,24
 544 -12 544 -12 439 -12 c 256,25,0
 334 -12 334 -12 247.5 38 c 128,-1,1
195 224.5 m 128,-1,27
 231 157 231 157 295 118 c 128,-1,28
 359 79 359 79 439 79 c 256,29,30
 519 79 519 79 583 118 c 128,-1,31
 647 157 647 157 683 224.5 c 128,-1,32
 719 292 719 292 719 373 c 256,33,34
 719 454 719 454 683 521 c 128,-1,35
 647 588 647 588 583 627 c 128,-1,36
 519 666 519 666 439 666 c 256,37,38
 359 666 359 666 295 627 c 128,-1,39
 231 588 231 588 195 521 c 128,-1,40
 159 454 159 454 159 373 c 256,41,26
 159 292 159 292 195 224.5 c 128,-1,27
EndSplineSet
Validated: 1
Position2: "'cpsp' Capital Spacing in Latin lookup 0 subtable" dx=5 dy=0 dh=10 dv=0
EndChar

StartChar: uni01EA
Encoding: 490 490 186
Width: 878
GlyphClass: 2
Flags: W
AnchorPoint: "Anchor-7" 858 745 basechar 0
AnchorPoint: "Anchor-6" 439 745 basechar 0
AnchorPoint: "Anchor-5" 502 35 basechar 0
AnchorPoint: "Anchor-4" 439 0 basechar 0
LayerCount: 2
Fore
SplineSet
583 118 m 128,-1,1
 647 157 647 157 683 224.5 c 128,-1,2
 719 292 719 292 719 373 c 256,3,4
 719 454 719 454 683 521 c 128,-1,5
 647 588 647 588 583 627 c 128,-1,6
 519 666 519 666 439 666 c 256,7,8
 359 666 359 666 295 627 c 128,-1,9
 231 588 231 588 195 521 c 128,-1,10
 159 454 159 454 159 373 c 256,11,12
 159 292 159 292 195 224.5 c 128,-1,13
 231 157 231 157 295 118 c 128,-1,14
 359 79 359 79 439 79 c 256,15,0
 519 79 519 79 583 118 c 128,-1,1
111 570 m 128,-1,17
 161 658 161 658 247.5 707.5 c 128,-1,18
 334 757 334 757 439 757 c 256,19,20
 544 757 544 757 630.5 707 c 128,-1,21
 717 657 717 657 767.5 569.5 c 128,-1,22
 818 482 818 482 818 373 c 0,23,24
 818 269 818 269 772.5 184 c 128,-1,25
 727 99 727 99 647 47.5 c 128,-1,26
 567 -4 567 -4 469 -11 c 1,27,28
 431 -37 431 -37 431 -72 c 0,29,30
 431 -94 431 -94 445.5 -106.5 c 128,-1,31
 460 -119 460 -119 485 -119 c 0,32,33
 521 -119 521 -119 561 -91 c 1,34,-1
 591 -139 l 1,35,36
 541 -181 541 -181 478 -181 c 0,37,38
 428 -181 428 -181 396 -155.5 c 128,-1,39
 364 -130 364 -130 364 -88 c 0,40,41
 364 -43 364 -43 399 -10 c 1,42,43
 303 -1 303 -1 226 51 c 128,-1,44
 149 103 149 103 105 187 c 128,-1,45
 61 271 61 271 61 373 c 0,46,16
 61 482 61 482 111 570 c 128,-1,17
EndSplineSet
Validated: 1
Position2: "'cpsp' Capital Spacing in Latin lookup 0 subtable" dx=5 dy=0 dh=10 dv=0
EndChar

StartChar: Oslash
Encoding: 216 216 187
Width: 878
GlyphClass: 2
Flags: W
AnchorPoint: "Anchor-7" 858 745 basechar 0
AnchorPoint: "Anchor-6" 439 745 basechar 0
AnchorPoint: "Anchor-5" 502 35 basechar 0
AnchorPoint: "Anchor-4" 439 0 basechar 0
LayerCount: 2
Fore
SplineSet
226 51 m 1,1,-1
 184 0 l 1,2,-1
 76 0 l 1,3,-1
 163 105 l 1,4,5
 115 157 115 157 88 225.5 c 128,-1,6
 61 294 61 294 61 373 c 0,7,8
 61 482 61 482 111 570 c 128,-1,9
 161 658 161 658 247.5 707.5 c 128,-1,10
 334 757 334 757 439 757 c 0,11,12
 556 757 556 757 652 694 c 1,13,-1
 694 745 l 1,14,-1
 802 745 l 1,15,-1
 715 641 l 1,16,17
 764 589 764 589 791 520.5 c 128,-1,18
 818 452 818 452 818 373 c 0,19,20
 818 264 818 264 767.5 176 c 128,-1,21
 717 88 717 88 630.5 38 c 128,-1,22
 544 -12 544 -12 439 -12 c 0,23,0
 322 -12 322 -12 226 51 c 1,1,-1
176 267.5 m 128,-1,25
 193 218 193 218 225 179 c 1,26,-1
 592 622 l 1,27,28
 524 666 524 666 439 666 c 0,29,30
 359 666 359 666 295 627 c 128,-1,31
 231 588 231 588 195 521 c 128,-1,32
 159 454 159 454 159 373 c 0,33,24
 159 317 159 317 176 267.5 c 128,-1,25
439 79 m 0,35,36
 519 79 519 79 583 118 c 128,-1,37
 647 157 647 157 683 224.5 c 128,-1,38
 719 292 719 292 719 373 c 0,39,40
 719 428 719 428 702 477.5 c 128,-1,41
 685 527 685 527 653 566 c 1,42,-1
 286 124 l 1,43,34
 353 79 353 79 439 79 c 0,35,36
EndSplineSet
Validated: 1
Position2: "'cpsp' Capital Spacing in Latin lookup 0 subtable" dx=5 dy=0 dh=10 dv=0
EndChar

StartChar: OE
Encoding: 338 338 193
Width: 1248
GlyphClass: 1
Flags: W
LayerCount: 2
Fore
SplineSet
247.5 38 m 128,-1,1
 161 88 161 88 111 176 c 128,-1,2
 61 264 61 264 61 373 c 256,3,4
 61 482 61 482 111 570 c 128,-1,5
 161 658 161 658 247.5 707.5 c 128,-1,6
 334 757 334 757 439 757 c 0,7,8
 524 757 524 757 598.5 722.5 c 128,-1,9
 673 688 673 688 724 626 c 1,10,-1
 724 745 l 1,11,-1
 1209 745 l 1,12,-1
 1209 655 l 1,13,-1
 823 655 l 1,14,-1
 823 419 l 1,15,-1
 1189 419 l 1,16,-1
 1189 329 l 1,17,-1
 823 329 l 1,18,-1
 823 90 l 1,19,-1
 1209 90 l 1,20,-1
 1209 0 l 1,21,-1
 724 0 l 1,22,-1
 724 119 l 1,23,24
 673 57 673 57 598.5 22.5 c 128,-1,25
 524 -12 524 -12 439 -12 c 0,26,0
 334 -12 334 -12 247.5 38 c 128,-1,1
195 224.5 m 128,-1,28
 231 157 231 157 295 118 c 128,-1,29
 359 79 359 79 439 79 c 256,30,31
 519 79 519 79 583 118 c 128,-1,32
 647 157 647 157 683 224.5 c 128,-1,33
 719 292 719 292 719 373 c 256,34,35
 719 454 719 454 683 521 c 128,-1,36
 647 588 647 588 583 627 c 128,-1,37
 519 666 519 666 439 666 c 256,38,39
 359 666 359 666 295 627 c 128,-1,40
 231 588 231 588 195 521 c 128,-1,41
 159 454 159 454 159 373 c 256,42,27
 159 292 159 292 195 224.5 c 128,-1,28
EndSplineSet
Validated: 1
Position2: "'cpsp' Capital Spacing in Latin lookup 0 subtable" dx=5 dy=0 dh=10 dv=0
EndChar

StartChar: P
Encoding: 80 80 194
Width: 645
GlyphClass: 2
Flags: W
AnchorPoint: "Anchor-6" 323 745 basechar 0
AnchorPoint: "Anchor-4" 323 0 basechar 0
LayerCount: 2
Fore
SplineSet
83 745 m 1,0,-1
 346 745 l 2,1,2
 420 745 420 745 476.5 717 c 128,-1,3
 533 689 533 689 564 637 c 128,-1,4
 595 585 595 585 595 515 c 256,5,6
 595 445 595 445 564 393 c 128,-1,7
 533 341 533 341 476.5 313 c 128,-1,8
 420 285 420 285 346 285 c 2,9,-1
 181 285 l 1,10,-1
 181 0 l 1,11,-1
 83 0 l 1,12,-1
 83 745 l 1,0,-1
349 375 m 2,13,14
 416 375 416 375 456 413 c 128,-1,15
 496 451 496 451 496 515 c 256,16,17
 496 579 496 579 456 617 c 128,-1,18
 416 655 416 655 349 655 c 2,19,-1
 181 655 l 1,20,-1
 181 375 l 1,21,-1
 349 375 l 2,13,14
EndSplineSet
Validated: 1
Position2: "'cpsp' Capital Spacing in Latin lookup 0 subtable" dx=5 dy=0 dh=10 dv=0
EndChar

StartChar: Thorn
Encoding: 222 222 195
Width: 640
GlyphClass: 1
Flags: W
LayerCount: 2
Fore
SplineSet
75 745 m 1,0,-1
 174 745 l 1,1,-1
 174 603 l 1,2,-1
 339 603 l 2,3,4
 413 603 413 603 469 574.5 c 128,-1,5
 525 546 525 546 556.5 494 c 128,-1,6
 588 442 588 442 588 372 c 0,7,8
 588 303 588 303 556.5 251 c 128,-1,9
 525 199 525 199 469 171 c 128,-1,10
 413 143 413 143 339 143 c 2,11,-1
 174 143 l 1,12,-1
 174 0 l 1,13,-1
 75 0 l 1,14,-1
 75 745 l 1,0,-1
342 233 m 2,15,16
 409 233 409 233 449 270.5 c 128,-1,17
 489 308 489 308 489 373 c 0,18,19
 489 437 489 437 448.5 475 c 128,-1,20
 408 513 408 513 342 513 c 2,21,-1
 174 513 l 1,22,-1
 174 233 l 1,23,-1
 342 233 l 2,15,16
EndSplineSet
Validated: 1
Position2: "'cpsp' Capital Spacing in Latin lookup 0 subtable" dx=5 dy=0 dh=10 dv=0
EndChar

StartChar: Q
Encoding: 81 81 196
Width: 878
GlyphClass: 2
Flags: W
AnchorPoint: "Anchor-6" 439 745 basechar 0
AnchorPoint: "Anchor-4" 439 0 basechar 0
LayerCount: 2
Fore
SplineSet
251 37.5 m 128,-1,1
 163 87 163 87 112 175 c 128,-1,2
 61 263 61 263 61 373 c 0,3,4
 61 482 61 482 111 570 c 128,-1,5
 161 658 161 658 247.5 707.5 c 128,-1,6
 334 757 334 757 439 757 c 256,7,8
 544 757 544 757 630.5 707 c 128,-1,9
 717 657 717 657 767.5 569.5 c 128,-1,10
 818 482 818 482 818 373 c 0,11,12
 818 297 818 297 793.5 230.5 c 128,-1,13
 769 164 769 164 725 113 c 1,14,-1
 816 12 l 1,15,-1
 736 -52 l 1,16,-1
 647 46 l 1,17,18
 558 -12 558 -12 445 -12 c 0,19,0
 339 -12 339 -12 251 37.5 c 128,-1,1
195 224.5 m 128,-1,21
 231 157 231 157 295 118 c 128,-1,22
 359 79 359 79 439 79 c 0,23,24
 518 79 518 79 582 118 c 1,25,-1
 421 296 l 1,26,-1
 502 359 l 1,27,-1
 658 186 l 1,28,29
 688 225 688 225 703.5 272.5 c 128,-1,30
 719 320 719 320 719 373 c 0,31,32
 719 454 719 454 683 521 c 128,-1,33
 647 588 647 588 583 627 c 128,-1,34
 519 666 519 666 439 666 c 256,35,36
 359 666 359 666 295 627 c 128,-1,37
 231 588 231 588 195 521 c 128,-1,38
 159 454 159 454 159 373 c 256,39,20
 159 292 159 292 195 224.5 c 128,-1,21
EndSplineSet
Validated: 1
Substitution2: "'ss03' Style Set 3 in Latin lookup 22 subtable" Q.ss03
Substitution2: "'aalt' Access All Alternates in Latin lookup 0 subtable" Q.ss03
Position2: "'cpsp' Capital Spacing in Latin lookup 0 subtable" dx=5 dy=0 dh=10 dv=0
EndChar

StartChar: Q.ss03
Encoding: 65572 -1 197
Width: 878
GlyphClass: 1
Flags: W
LayerCount: 2
Fore
SplineSet
583 118 m 128,-1,1
 647 157 647 157 683 224.5 c 128,-1,2
 719 292 719 292 719 373 c 256,3,4
 719 454 719 454 683 521 c 128,-1,5
 647 588 647 588 583 627 c 128,-1,6
 519 666 519 666 439 666 c 256,7,8
 359 666 359 666 295 627 c 128,-1,9
 231 588 231 588 195 521 c 128,-1,10
 159 454 159 454 159 373 c 256,11,12
 159 292 159 292 195 224.5 c 128,-1,13
 231 157 231 157 295 118 c 128,-1,14
 359 79 359 79 439 79 c 256,15,0
 519 79 519 79 583 118 c 128,-1,1
111 570 m 128,-1,17
 161 658 161 658 247.5 707.5 c 128,-1,18
 334 757 334 757 439 757 c 256,19,20
 544 757 544 757 630.5 707 c 128,-1,21
 717 657 717 657 767.5 569.5 c 128,-1,22
 818 482 818 482 818 373 c 0,23,24
 818 272 818 272 774.5 189 c 128,-1,25
 731 106 731 106 655.5 54 c 128,-1,26
 580 2 580 2 486 -9 c 1,27,-1
 486 -18 l 2,28,29
 486 -60 486 -60 512 -79.5 c 128,-1,30
 538 -99 538 -99 589 -99 c 2,31,-1
 760 -99 l 1,32,-1
 760 -180 l 1,33,-1
 578 -180 l 2,34,35
 487 -180 487 -180 439.5 -140 c 128,-1,36
 392 -100 392 -100 392 -20 c 2,37,-1
 392 -9 l 1,38,39
 298 2 298 2 222.5 54 c 128,-1,40
 147 106 147 106 104 189 c 128,-1,41
 61 272 61 272 61 373 c 0,42,16
 61 482 61 482 111 570 c 128,-1,17
EndSplineSet
Validated: 1
Position2: "'cpsp' Capital Spacing in Latin lookup 0 subtable" dx=5 dy=0 dh=10 dv=0
EndChar

StartChar: R
Encoding: 82 82 198
Width: 648
GlyphClass: 2
Flags: W
AnchorPoint: "Anchor-6" 320 745 basechar 0
AnchorPoint: "Anchor-4" 320 0 basechar 0
LayerCount: 2
Fore
SplineSet
83 745 m 1,0,-1
 346 745 l 2,1,2
 420 745 420 745 476.5 717 c 128,-1,3
 533 689 533 689 564 637 c 128,-1,4
 595 585 595 585 595 515 c 0,5,6
 595 437 595 437 555.5 381.5 c 128,-1,7
 516 326 516 326 447 302 c 1,8,-1
 620 0 l 1,9,-1
 506 0 l 1,10,-1
 345 285 l 1,11,-1
 181 285 l 1,12,-1
 181 0 l 1,13,-1
 83 0 l 1,14,-1
 83 745 l 1,0,-1
349 375 m 2,15,16
 415 375 415 375 455.5 413 c 128,-1,17
 496 451 496 451 496 515 c 256,18,19
 496 579 496 579 455.5 617 c 128,-1,20
 415 655 415 655 349 655 c 2,21,-1
 181 655 l 1,22,-1
 181 375 l 1,23,-1
 349 375 l 2,15,16
EndSplineSet
Validated: 1
Substitution2: "'ss03' Style Set 3 in Latin lookup 22 subtable" R.ss03
Substitution2: "'aalt' Access All Alternates in Latin lookup 0 subtable" R.ss03
Position2: "'cpsp' Capital Spacing in Latin lookup 0 subtable" dx=5 dy=0 dh=10 dv=0
EndChar

StartChar: R.ss03
Encoding: 65573 -1 199
Width: 650
GlyphClass: 2
Flags: W
AnchorPoint: "Anchor-6" 318 745 basechar 0
AnchorPoint: "Anchor-4" 318 0 basechar 0
LayerCount: 2
Fore
SplineSet
83 745 m 1,0,-1
 346 745 l 2,1,2
 420 745 420 745 476.5 717 c 128,-1,3
 533 689 533 689 564 637 c 128,-1,4
 595 585 595 585 595 515 c 0,5,6
 595 407 595 407 525 345 c 1,7,8
 587 316 587 316 587 232 c 0,9,10
 587 155 587 155 588.5 103.5 c 128,-1,11
 590 52 590 52 597 0 c 1,12,-1
 498 0 l 1,13,14
 491 50 491 50 489.5 100 c 128,-1,15
 488 150 488 150 488 225 c 0,16,17
 488 285 488 285 422 285 c 2,18,-1
 181 285 l 1,19,-1
 181 0 l 1,20,-1
 83 0 l 1,21,-1
 83 745 l 1,0,-1
349 375 m 2,22,23
 416 375 416 375 456 413 c 128,-1,24
 496 451 496 451 496 515 c 256,25,26
 496 579 496 579 456 617 c 128,-1,27
 416 655 416 655 349 655 c 2,28,-1
 181 655 l 1,29,-1
 181 375 l 1,30,-1
 349 375 l 2,22,23
EndSplineSet
Validated: 1
Position2: "'cpsp' Capital Spacing in Latin lookup 0 subtable" dx=5 dy=0 dh=10 dv=0
EndChar

StartChar: S
Encoding: 83 83 214
Width: 646
GlyphClass: 2
Flags: W
AnchorPoint: "Anchor-6" 323 745 basechar 0
AnchorPoint: "Anchor-4" 323 0 basechar 0
LayerCount: 2
Fore
SplineSet
203 16.5 m 128,-1,1
 143 45 143 45 104 92.5 c 128,-1,2
 65 140 65 140 50 195 c 1,3,-1
 140 223 l 1,4,5
 161 156 161 156 218.5 117 c 128,-1,6
 276 78 276 78 339 78 c 0,7,8
 381 78 381 78 414.5 95 c 128,-1,9
 448 112 448 112 467 138 c 128,-1,10
 486 164 486 164 486 190 c 0,11,12
 486 231 486 231 457.5 264 c 128,-1,13
 429 297 429 297 379 308 c 2,14,-1
 253 336 l 2,15,16
 173 353 173 353 126.5 412.5 c 128,-1,17
 80 472 80 472 80 549 c 0,18,19
 80 608 80 608 110.5 655.5 c 128,-1,20
 141 703 141 703 194 730 c 128,-1,21
 247 757 247 757 311 757 c 0,22,23
 382 757 382 757 437.5 732 c 128,-1,24
 493 707 493 707 528.5 665.5 c 128,-1,25
 564 624 564 624 579 576 c 1,26,-1
 490 544 l 1,27,28
 468 603 468 603 417.5 635 c 128,-1,29
 367 667 367 667 312 667 c 0,30,31
 274 667 274 667 244 650.5 c 128,-1,32
 214 634 214 634 197 608 c 128,-1,33
 180 582 180 582 180 555 c 0,34,35
 180 513 180 513 210.5 478.5 c 128,-1,36
 241 444 241 444 287 434 c 2,37,-1
 401 408 l 2,38,39
 491 388 491 388 539 332 c 128,-1,40
 587 276 587 276 587 198 c 0,41,42
 587 139 587 139 556 91 c 128,-1,43
 525 43 525 43 468.5 15.5 c 128,-1,44
 412 -12 412 -12 339 -12 c 0,45,0
 263 -12 263 -12 203 16.5 c 128,-1,1
EndSplineSet
Validated: 1
Position2: "'cpsp' Capital Spacing in Latin lookup 0 subtable" dx=5 dy=0 dh=10 dv=0
EndChar

StartChar: Scedilla
Encoding: 350 350 219
Width: 646
GlyphClass: 2
Flags: W
AnchorPoint: "Anchor-4" 323 0 basechar 0
LayerCount: 2
Fore
SplineSet
290 -226 m 128,-1,1
 268 -222 268 -222 253 -216 c 1,2,-1
 265 -166 l 1,3,4
 292 -176 292 -176 325 -176 c 0,5,6
 348 -176 348 -176 361 -166 c 128,-1,7
 374 -156 374 -156 374 -139 c 0,8,9
 374 -124 374 -124 365 -116 c 128,-1,10
 356 -108 356 -108 339 -108 c 0,11,12
 315 -108 315 -108 299 -116 c 1,13,-1
 278 -107 l 1,14,-1
 290 -9 l 1,15,16
 197 5 197 5 134 62 c 128,-1,17
 71 119 71 119 50 195 c 1,18,-1
 140 223 l 1,19,20
 161 156 161 156 218.5 117 c 128,-1,21
 276 78 276 78 339 78 c 0,22,23
 381 78 381 78 414.5 95 c 128,-1,24
 448 112 448 112 467 138 c 128,-1,25
 486 164 486 164 486 190 c 0,26,27
 486 231 486 231 457.5 264 c 128,-1,28
 429 297 429 297 379 308 c 2,29,-1
 253 336 l 2,30,31
 173 353 173 353 126.5 412.5 c 128,-1,32
 80 472 80 472 80 549 c 0,33,34
 80 608 80 608 110.5 655.5 c 128,-1,35
 141 703 141 703 194 730 c 128,-1,36
 247 757 247 757 311 757 c 0,37,38
 382 757 382 757 437.5 732 c 128,-1,39
 493 707 493 707 528.5 665.5 c 128,-1,40
 564 624 564 624 579 576 c 1,41,-1
 490 544 l 1,42,43
 468 603 468 603 417.5 635 c 128,-1,44
 367 667 367 667 312 667 c 0,45,46
 274 667 274 667 244 650.5 c 128,-1,47
 214 634 214 634 197 608 c 128,-1,48
 180 582 180 582 180 555 c 0,49,50
 180 513 180 513 210.5 478.5 c 128,-1,51
 241 444 241 444 287 434 c 2,52,-1
 401 408 l 2,53,54
 491 388 491 388 539 332 c 128,-1,55
 587 276 587 276 587 198 c 0,56,57
 587 141 587 141 558 94.5 c 128,-1,58
 529 48 529 48 476 19.5 c 128,-1,59
 423 -9 423 -9 353 -12 c 1,60,-1
 348 -62 l 1,61,62
 360 -60 360 -60 367 -60 c 0,63,64
 403 -60 403 -60 426.5 -81 c 128,-1,65
 450 -102 450 -102 450 -136 c 0,66,67
 450 -177 450 -177 418.5 -203.5 c 128,-1,68
 387 -230 387 -230 331 -230 c 0,69,0
 312 -230 312 -230 290 -226 c 128,-1,1
EndSplineSet
Validated: 1
Substitution2: "'locl' Localized Forms in Latin lookup 6 subtable" uni0218
Substitution2: "'aalt' Access All Alternates in Latin lookup 0 subtable" uni0218
Position2: "'cpsp' Capital Spacing in Latin lookup 0 subtable" dx=5 dy=0 dh=10 dv=0
EndChar

StartChar: uni018F
Encoding: 399 399 226
Width: 826
GlyphClass: 1
Flags: W
LayerCount: 2
Fore
SplineSet
229 34 m 128,-1,1
 150 80 150 80 105.5 160.5 c 128,-1,2
 61 241 61 241 61 341 c 0,3,4
 61 373 61 373 67 404 c 1,5,-1
 666 404 l 1,6,7
 661 478 661 478 624.5 538 c 128,-1,8
 588 598 588 598 527 632 c 128,-1,9
 466 666 466 666 391 666 c 256,10,11
 316 666 316 666 257 632 c 128,-1,12
 198 598 198 598 166 538 c 1,13,-1
 81 581 l 1,14,15
 119 660 119 660 203.5 708.5 c 128,-1,16
 288 757 288 757 392 757 c 0,17,18
 498 757 498 757 583.5 706 c 128,-1,19
 669 655 669 655 717.5 566.5 c 128,-1,20
 766 478 766 478 766 369 c 0,21,22
 766 265 766 265 721.5 177.5 c 128,-1,23
 677 90 677 90 595.5 39 c 128,-1,24
 514 -12 514 -12 408 -12 c 0,25,0
 308 -12 308 -12 229 34 c 128,-1,1
200 194 m 128,-1,27
 231 140 231 140 286.5 109.5 c 128,-1,28
 342 79 342 79 412 79 c 0,29,30
 478 79 478 79 532.5 108 c 128,-1,31
 587 137 587 137 621.5 191 c 128,-1,32
 656 245 656 245 665 318 c 1,33,-1
 169 318 l 1,34,-1
 169 315 l 2,35,26
 169 248 169 248 200 194 c 128,-1,27
EndSplineSet
Validated: 1
Position2: "'cpsp' Capital Spacing in Latin lookup 0 subtable" dx=5 dy=0 dh=10 dv=0
EndChar

StartChar: T
Encoding: 84 84 227
Width: 522
GlyphClass: 2
Flags: W
AnchorPoint: "Anchor-6" 261 745 basechar 0
AnchorPoint: "Anchor-4" 261 0 basechar 0
LayerCount: 2
Fore
SplineSet
213 655 m 1,0,-1
 11 655 l 1,1,-1
 11 745 l 1,2,-1
 511 745 l 1,3,-1
 511 655 l 1,4,-1
 312 655 l 1,5,-1
 312 0 l 1,6,-1
 213 0 l 1,7,-1
 213 655 l 1,0,-1
EndSplineSet
Validated: 1
Position2: "'cpsp' Capital Spacing in Latin lookup 0 subtable" dx=5 dy=0 dh=10 dv=0
EndChar

StartChar: Tbar
Encoding: 358 358 228
Width: 522
GlyphClass: 2
Flags: W
AnchorPoint: "Anchor-6" 261 745 basechar 0
AnchorPoint: "Anchor-4" 261 0 basechar 0
LayerCount: 2
Fore
SplineSet
213 337 m 1,0,-1
 74 337 l 1,1,-1
 74 408 l 1,2,-1
 213 408 l 1,3,-1
 213 655 l 1,4,-1
 11 655 l 1,5,-1
 11 745 l 1,6,-1
 511 745 l 1,7,-1
 511 655 l 1,8,-1
 312 655 l 1,9,-1
 312 408 l 1,10,-1
 449 408 l 1,11,-1
 449 337 l 1,12,-1
 312 337 l 1,13,-1
 312 0 l 1,14,-1
 213 0 l 1,15,-1
 213 337 l 1,0,-1
EndSplineSet
Validated: 1
Position2: "'cpsp' Capital Spacing in Latin lookup 0 subtable" dx=5 dy=0 dh=10 dv=0
EndChar

StartChar: uni0162
Encoding: 354 354 230
Width: 522
GlyphClass: 2
Flags: W
AnchorPoint: "Anchor-4" 261 0 basechar 0
LayerCount: 2
Fore
SplineSet
213 655 m 1,0,-1
 11 655 l 1,1,-1
 11 745 l 1,2,-1
 511 745 l 1,3,-1
 511 655 l 1,4,-1
 312 655 l 1,5,-1
 312 0 l 1,6,-1
 292 0 l 1,7,-1
 286 -62 l 1,8,9
 298 -60 298 -60 305 -60 c 0,10,11
 341 -60 341 -60 364.5 -81 c 128,-1,12
 388 -102 388 -102 388 -136 c 0,13,14
 388 -177 388 -177 356.5 -203.5 c 128,-1,15
 325 -230 325 -230 269 -230 c 0,16,17
 250 -230 250 -230 228 -226 c 128,-1,18
 206 -222 206 -222 191 -216 c 1,19,-1
 203 -166 l 1,20,21
 230 -176 230 -176 263 -176 c 0,22,23
 286 -176 286 -176 299 -166 c 128,-1,24
 312 -156 312 -156 312 -139 c 0,25,26
 312 -124 312 -124 303 -116 c 128,-1,27
 294 -108 294 -108 277 -108 c 0,28,29
 253 -108 253 -108 237 -116 c 1,30,-1
 216 -107 l 1,31,-1
 229 0 l 1,32,-1
 213 0 l 1,33,-1
 213 655 l 1,0,-1
EndSplineSet
Validated: 1
Substitution2: "'locl' Localized Forms in Latin lookup 6 subtable" uni021A
Substitution2: "'aalt' Access All Alternates in Latin lookup 0 subtable" uni021A
Position2: "'cpsp' Capital Spacing in Latin lookup 0 subtable" dx=5 dy=0 dh=10 dv=0
EndChar

StartChar: U
Encoding: 85 85 234
Width: 706
GlyphClass: 2
Flags: W
AnchorPoint: "Anchor-6" 353 745 basechar 0
AnchorPoint: "Anchor-5" 403 35 basechar 0
AnchorPoint: "Anchor-4" 353 0 basechar 0
LayerCount: 2
Fore
SplineSet
210.5 22 m 128,-1,1
 148 56 148 56 113 116 c 128,-1,2
 78 176 78 176 78 251 c 2,3,-1
 78 745 l 1,4,-1
 177 745 l 1,5,-1
 177 253 l 2,6,7
 177 176 177 176 226 127.5 c 128,-1,8
 275 79 275 79 353 79 c 256,9,10
 431 79 431 79 480 127.5 c 128,-1,11
 529 176 529 176 529 253 c 2,12,-1
 529 745 l 1,13,-1
 628 745 l 1,14,-1
 628 251 l 2,15,16
 628 176 628 176 593 116 c 128,-1,17
 558 56 558 56 495.5 22 c 128,-1,18
 433 -12 433 -12 353 -12 c 256,19,0
 273 -12 273 -12 210.5 22 c 128,-1,1
EndSplineSet
Validated: 1
Substitution2: "'ss01' Style Set 1 in Latin lookup 20 subtable" U.ss01
Substitution2: "'salt' Stylistic Alternatives in Latin lookup 19 subtable" U.ss01
Substitution2: "'aalt' Access All Alternates in Latin lookup 0 subtable" U.ss01
Position2: "'cpsp' Capital Spacing in Latin lookup 0 subtable" dx=5 dy=0 dh=10 dv=0
EndChar

StartChar: U.ss01
Encoding: 65581 -1 235
Width: 715
GlyphClass: 2
Flags: W
AnchorPoint: "Anchor-6" 358 745 basechar 0
AnchorPoint: "Anchor-5" 415 35 basechar 0
AnchorPoint: "Anchor-4" 358 0 basechar 0
LayerCount: 2
Fore
SplineSet
83 745 m 1,0,-1
 181 745 l 1,1,-1
 181 90 l 1,2,-1
 534 90 l 1,3,-1
 534 745 l 1,4,-1
 633 745 l 1,5,-1
 633 0 l 1,6,-1
 83 0 l 1,7,-1
 83 745 l 1,0,-1
EndSplineSet
Validated: 1
Position2: "'cpsp' Capital Spacing in Latin lookup 0 subtable" dx=5 dy=0 dh=10 dv=0
EndChar

StartChar: Uhorn
Encoding: 431 431 252
Width: 706
GlyphClass: 2
Flags: W
AnchorPoint: "Anchor-6" 353 745 basechar 0
AnchorPoint: "Anchor-5" 636 10 basechar 0
AnchorPoint: "Anchor-4" 353 0 basechar 0
LayerCount: 2
Fore
SplineSet
210.5 22 m 128,-1,1
 148 56 148 56 113 116 c 128,-1,2
 78 176 78 176 78 251 c 2,3,-1
 78 745 l 1,4,-1
 177 745 l 1,5,-1
 177 253 l 2,6,7
 177 176 177 176 226 127.5 c 128,-1,8
 275 79 275 79 353 79 c 256,9,10
 431 79 431 79 480 127.5 c 128,-1,11
 529 176 529 176 529 253 c 2,12,-1
 529 745 l 1,13,-1
 616 745 l 2,14,15
 637 745 637 745 651.5 755 c 128,-1,16
 666 765 666 765 666 796 c 0,17,18
 666 829 666 829 643 875 c 1,19,-1
 744 875 l 1,20,21
 768 830 768 830 768 787 c 0,22,23
 768 725 768 725 732 694.5 c 128,-1,24
 696 664 696 664 633 664 c 2,25,-1
 628 664 l 1,26,-1
 628 251 l 2,27,28
 628 176 628 176 593 116 c 128,-1,29
 558 56 558 56 495.5 22 c 128,-1,30
 433 -12 433 -12 353 -12 c 256,31,0
 273 -12 273 -12 210.5 22 c 128,-1,1
EndSplineSet
Validated: 1
Substitution2: "'ss01' Style Set 1 in Latin lookup 20 subtable" Uhorn.ss01
Substitution2: "'salt' Stylistic Alternatives in Latin lookup 19 subtable" Uhorn.ss01
Substitution2: "'aalt' Access All Alternates in Latin lookup 0 subtable" Uhorn.ss01
Position2: "'cpsp' Capital Spacing in Latin lookup 0 subtable" dx=5 dy=0 dh=10 dv=0
EndChar

StartChar: Uhorn.ss01
Encoding: 65590 -1 253
Width: 708
GlyphClass: 2
Flags: W
AnchorPoint: "Anchor-6" 358 745 basechar 0
AnchorPoint: "Anchor-4" 358 0 basechar 0
LayerCount: 2
Fore
SplineSet
83 745 m 1,0,-1
 181 745 l 1,1,-1
 181 90 l 1,2,-1
 534 90 l 1,3,-1
 534 745 l 1,4,-1
 619 745 l 2,5,6
 668 745 668 745 668 796 c 0,7,8
 668 827 668 827 646 875 c 1,9,-1
 746 875 l 1,10,11
 771 829 771 829 771 787 c 0,12,13
 771 725 771 725 735 694.5 c 128,-1,14
 699 664 699 664 635 664 c 2,15,-1
 633 664 l 1,16,-1
 633 0 l 1,17,-1
 83 0 l 1,18,-1
 83 745 l 1,0,-1
EndSplineSet
Validated: 1
Position2: "'cpsp' Capital Spacing in Latin lookup 0 subtable" dx=5 dy=0 dh=10 dv=0
EndChar

StartChar: Uogonek
Encoding: 370 370 272
Width: 706
GlyphClass: 2
Flags: W
AnchorPoint: "Anchor-6" 353 745 basechar 0
AnchorPoint: "Anchor-5" 403 35 basechar 0
AnchorPoint: "Anchor-4" 353 0 basechar 0
LayerCount: 2
Fore
SplineSet
297 -155.5 m 128,-1,1
 265 -130 265 -130 265 -88 c 0,2,3
 265 -42 265 -42 302 -8 c 1,4,5
 235 2 235 2 184.5 37.5 c 128,-1,6
 134 73 134 73 106 128.5 c 128,-1,7
 78 184 78 184 78 251 c 2,8,-1
 78 745 l 1,9,-1
 177 745 l 1,10,-1
 177 253 l 2,11,12
 177 176 177 176 226 127.5 c 128,-1,13
 275 79 275 79 353 79 c 256,14,15
 431 79 431 79 480 127.5 c 128,-1,16
 529 176 529 176 529 253 c 2,17,-1
 529 745 l 1,18,-1
 628 745 l 1,19,-1
 628 251 l 2,20,21
 628 178 628 178 595.5 119.5 c 128,-1,22
 563 61 563 61 504 26.5 c 128,-1,23
 445 -8 445 -8 369 -12 c 1,24,25
 332 -38 332 -38 332 -72 c 0,26,27
 332 -94 332 -94 346.5 -106.5 c 128,-1,28
 361 -119 361 -119 386 -119 c 0,29,30
 422 -119 422 -119 462 -91 c 1,31,-1
 492 -139 l 1,32,33
 442 -181 442 -181 379 -181 c 0,34,0
 329 -181 329 -181 297 -155.5 c 128,-1,1
EndSplineSet
Validated: 1
Substitution2: "'ss01' Style Set 1 in Latin lookup 20 subtable" Uogonek.ss01
Substitution2: "'salt' Stylistic Alternatives in Latin lookup 19 subtable" Uogonek.ss01
Substitution2: "'aalt' Access All Alternates in Latin lookup 0 subtable" Uogonek.ss01
Position2: "'cpsp' Capital Spacing in Latin lookup 0 subtable" dx=5 dy=0 dh=10 dv=0
EndChar

StartChar: Uogonek.ss01
Encoding: 65600 -1 273
Width: 715
GlyphClass: 2
Flags: W
AnchorPoint: "Anchor-6" 358 745 basechar 0
AnchorPoint: "Anchor-5" 415 35 basechar 0
AnchorPoint: "Anchor-4" 358 0 basechar 0
LayerCount: 2
Fore
SplineSet
83 745 m 1,0,-1
 181 745 l 1,1,-1
 181 90 l 1,2,-1
 534 90 l 1,3,-1
 534 745 l 1,4,-1
 633 745 l 1,5,-1
 633 0 l 1,6,-1
 400 0 l 1,7,8
 344 -30 344 -30 344 -72 c 0,9,10
 344 -94 344 -94 358.5 -106.5 c 128,-1,11
 373 -119 373 -119 398 -119 c 0,12,13
 434 -119 434 -119 474 -91 c 1,14,-1
 504 -139 l 1,15,16
 454 -181 454 -181 391 -181 c 0,17,18
 341 -181 341 -181 309 -155.5 c 128,-1,19
 277 -130 277 -130 277 -88 c 0,20,21
 277 -63 277 -63 289 -40 c 128,-1,22
 301 -17 301 -17 324 0 c 1,23,-1
 83 0 l 1,24,-1
 83 745 l 1,0,-1
EndSplineSet
Validated: 1
Position2: "'cpsp' Capital Spacing in Latin lookup 0 subtable" dx=5 dy=0 dh=10 dv=0
EndChar

StartChar: V
Encoding: 86 86 280
Width: 667
GlyphClass: 2
Flags: W
AnchorPoint: "Anchor-6" 334 745 basechar 0
AnchorPoint: "Anchor-4" 334 0 basechar 0
LayerCount: 2
Fore
SplineSet
11 745 m 1,0,-1
 116 745 l 1,1,-1
 334 120 l 1,2,-1
 551 745 l 1,3,-1
 656 745 l 1,4,-1
 388 0 l 1,5,-1
 280 0 l 1,6,-1
 11 745 l 1,0,-1
EndSplineSet
Validated: 1
Position2: "'cpsp' Capital Spacing in Latin lookup 0 subtable" dx=5 dy=0 dh=10 dv=0
EndChar

StartChar: W
Encoding: 87 87 281
Width: 996
GlyphClass: 2
Flags: W
AnchorPoint: "Anchor-6" 498 745 basechar 0
AnchorPoint: "Anchor-4" 498 0 basechar 0
LayerCount: 2
Fore
SplineSet
11 745 m 1,0,-1
 114 745 l 1,1,-1
 277 133 l 1,2,-1
 447 745 l 1,3,-1
 550 745 l 1,4,-1
 718 135 l 1,5,-1
 882 745 l 1,6,-1
 985 745 l 1,7,-1
 776 0 l 1,8,-1
 667 0 l 1,9,-1
 498 606 l 1,10,-1
 329 0 l 1,11,-1
 220 0 l 1,12,-1
 11 745 l 1,0,-1
EndSplineSet
Validated: 1
Position2: "'cpsp' Capital Spacing in Latin lookup 0 subtable" dx=5 dy=0 dh=10 dv=0
EndChar

StartChar: X
Encoding: 88 88 286
Width: 618
GlyphClass: 2
Flags: W
AnchorPoint: "Anchor-6" 310 745 basechar 0
AnchorPoint: "Anchor-4" 310 0 basechar 0
LayerCount: 2
Fore
SplineSet
254 378 m 1,0,-1
 17 745 l 1,1,-1
 129 745 l 1,2,-1
 309 465 l 1,3,-1
 489 745 l 1,4,-1
 601 745 l 1,5,-1
 364 378 l 1,6,-1
 607 0 l 1,7,-1
 495 0 l 1,8,-1
 309 291 l 1,9,-1
 122 0 l 1,10,-1
 11 0 l 1,11,-1
 254 378 l 1,0,-1
EndSplineSet
Validated: 1
Position2: "'cpsp' Capital Spacing in Latin lookup 0 subtable" dx=5 dy=0 dh=10 dv=0
EndChar

StartChar: Y
Encoding: 89 89 287
Width: 635
GlyphClass: 2
Flags: W
AnchorPoint: "Anchor-6" 318 745 basechar 0
AnchorPoint: "Anchor-4" 318 0 basechar 0
LayerCount: 2
Fore
SplineSet
269 341 m 1,0,-1
 11 745 l 1,1,-1
 122 745 l 1,2,-1
 318 437 l 1,3,-1
 513 745 l 1,4,-1
 624 745 l 1,5,-1
 368 341 l 1,6,-1
 368 0 l 1,7,-1
 269 0 l 1,8,-1
 269 341 l 1,0,-1
EndSplineSet
Validated: 1
Position2: "'cpsp' Capital Spacing in Latin lookup 0 subtable" dx=5 dy=0 dh=10 dv=0
EndChar

StartChar: Z
Encoding: 90 90 297
Width: 580
GlyphClass: 2
Flags: W
AnchorPoint: "Anchor-6" 290 745 basechar 0
AnchorPoint: "Anchor-4" 290 0 basechar 0
LayerCount: 2
Fore
SplineSet
19 72 m 1,0,-1
 424 655 l 1,1,-1
 43 655 l 1,2,-1
 43 745 l 1,3,-1
 551 745 l 1,4,-1
 551 673 l 1,5,-1
 148 90 l 1,6,-1
 561 90 l 1,7,-1
 561 0 l 1,8,-1
 19 0 l 1,9,-1
 19 72 l 1,0,-1
EndSplineSet
Validated: 1
Position2: "'cpsp' Capital Spacing in Latin lookup 0 subtable" dx=5 dy=0 dh=10 dv=0
EndChar

StartChar: a
Encoding: 97 97 302
Width: 575
GlyphClass: 2
Flags: W
AnchorPoint: "Anchor-6" 288 539 basechar 0
AnchorPoint: "Anchor-5" 483 40 basechar 0
AnchorPoint: "Anchor-4" 288 0 basechar 0
LayerCount: 2
Fore
SplineSet
100 30.5 m 128,-1,1
 50 73 50 73 50 141 c 0,2,3
 50 207 50 207 93.5 251.5 c 128,-1,4
 137 296 137 296 226 311 c 2,5,-1
 410 341 l 1,6,-1
 410 366 l 2,7,8
 410 410 410 410 377 437.5 c 128,-1,9
 344 465 344 465 292 465 c 0,10,11
 246 465 246 465 210.5 441.5 c 128,-1,12
 175 418 175 418 158 379 c 1,13,-1
 77 421 l 1,14,15
 100 477 100 477 161 514 c 128,-1,16
 222 551 222 551 294 551 c 0,17,18
 355 551 355 551 402.5 527.5 c 128,-1,19
 450 504 450 504 476.5 462 c 128,-1,20
 503 420 503 420 503 366 c 2,21,-1
 503 0 l 1,22,-1
 412 0 l 1,23,-1
 412 70 l 1,24,25
 383 32 383 32 335.5 10 c 128,-1,26
 288 -12 288 -12 230 -12 c 0,27,0
 150 -12 150 -12 100 30.5 c 128,-1,1
174.5 89 m 128,-1,29
 201 67 201 67 241 67 c 0,30,31
 290 67 290 67 328.5 88.5 c 128,-1,32
 367 110 367 110 388.5 147 c 128,-1,33
 410 184 410 184 410 229 c 2,34,-1
 410 263 l 1,35,-1
 247 236 l 2,36,37
 148 219 148 219 148 144 c 0,38,28
 148 111 148 111 174.5 89 c 128,-1,29
EndSplineSet
Validated: 1
Substitution2: "Single Substitution lookup 28 subtable" ordfeminine
Substitution2: "'ss03' Style Set 3 in Latin lookup 22 subtable" a.ss03
Substitution2: "'ss02' Style Set 2 in Latin lookup 21 subtable" a.ss02
Substitution2: "'ss01' Style Set 1 in Latin lookup 20 subtable" a.ss01
Substitution2: "'salt' Stylistic Alternatives in Latin lookup 19 subtable" a.ss01
AlternateSubs2: "'aalt' Access All Alternates in Latin lookup 1 subtable" ordfeminine a.ss01 a.ss02 a.ss03
EndChar

StartChar: a.ss01
Encoding: 65604 -1 303
Width: 575
GlyphClass: 2
Flags: W
AnchorPoint: "Anchor-6" 288 539 basechar 0
AnchorPoint: "Anchor-5" 483 40 basechar 0
AnchorPoint: "Anchor-4" 288 0 basechar 0
LayerCount: 2
Fore
SplineSet
100 30.5 m 128,-1,1
 50 73 50 73 50 141 c 0,2,3
 50 207 50 207 93.5 251.5 c 128,-1,4
 137 296 137 296 226 311 c 2,5,-1
 410 341 l 1,6,-1
 410 450 l 1,7,-1
 102 450 l 1,8,-1
 102 539 l 1,9,-1
 503 539 l 1,10,-1
 503 0 l 1,11,-1
 412 0 l 1,12,-1
 412 70 l 1,13,14
 383 32 383 32 335.5 10 c 128,-1,15
 288 -12 288 -12 230 -12 c 0,16,0
 150 -12 150 -12 100 30.5 c 128,-1,1
174.5 89 m 128,-1,18
 201 67 201 67 241 67 c 0,19,20
 290 67 290 67 328.5 88.5 c 128,-1,21
 367 110 367 110 388.5 147 c 128,-1,22
 410 184 410 184 410 229 c 2,23,-1
 410 263 l 1,24,-1
 247 236 l 2,25,26
 148 219 148 219 148 144 c 0,27,17
 148 111 148 111 174.5 89 c 128,-1,18
EndSplineSet
Validated: 1
EndChar

StartChar: a.ss02
Encoding: 65605 -1 304
Width: 600
GlyphClass: 2
Flags: W
AnchorPoint: "Anchor-6" 288 539 basechar 0
AnchorPoint: "Anchor-5" 483 40 basechar 0
AnchorPoint: "Anchor-4" 288 0 basechar 0
LayerCount: 2
Fore
SplineSet
100 30.5 m 128,-1,1
 50 73 50 73 50 141 c 0,2,3
 50 207 50 207 93.5 251.5 c 128,-1,4
 137 296 137 296 226 311 c 2,5,-1
 410 341 l 1,6,-1
 410 366 l 2,7,8
 410 410 410 410 377 437.5 c 128,-1,9
 344 465 344 465 292 465 c 0,10,11
 246 465 246 465 210.5 441.5 c 128,-1,12
 175 418 175 418 158 379 c 1,13,-1
 77 421 l 1,14,15
 100 477 100 477 161 514 c 128,-1,16
 222 551 222 551 294 551 c 0,17,18
 355 551 355 551 402.5 527.5 c 128,-1,19
 450 504 450 504 476.5 462 c 128,-1,20
 503 420 503 420 503 366 c 2,21,-1
 503 83 l 1,22,-1
 563 83 l 1,23,-1
 563 0 l 1,24,-1
 412 0 l 1,25,-1
 412 70 l 1,26,27
 383 32 383 32 335.5 10 c 128,-1,28
 288 -12 288 -12 230 -12 c 0,29,0
 150 -12 150 -12 100 30.5 c 128,-1,1
174.5 89 m 128,-1,31
 201 67 201 67 241 67 c 0,32,33
 290 67 290 67 328.5 88.5 c 128,-1,34
 367 110 367 110 388.5 147 c 128,-1,35
 410 184 410 184 410 229 c 2,36,-1
 410 263 l 1,37,-1
 247 236 l 2,38,39
 148 219 148 219 148 144 c 0,40,30
 148 111 148 111 174.5 89 c 128,-1,31
EndSplineSet
Validated: 1
EndChar

StartChar: a.ss03
Encoding: 65606 -1 305
Width: 575
GlyphClass: 2
Flags: W
AnchorPoint: "Anchor-6" 288 539 basechar 0
AnchorPoint: "Anchor-5" 483 40 basechar 0
AnchorPoint: "Anchor-4" 288 0 basechar 0
LayerCount: 2
Fore
SplineSet
100 30.5 m 128,-1,1
 50 73 50 73 50 141 c 0,2,3
 50 207 50 207 93.5 251.5 c 128,-1,4
 137 296 137 296 226 311 c 2,5,-1
 409 341 l 1,6,7
 404 392 404 392 371 421 c 128,-1,8
 338 450 338 450 282 450 c 2,9,-1
 102 450 l 1,10,-1
 102 539 l 1,11,-1
 284 539 l 2,12,13
 387 539 387 539 445 483 c 128,-1,14
 503 427 503 427 503 328 c 2,15,-1
 503 0 l 1,16,-1
 412 0 l 1,17,-1
 412 70 l 1,18,19
 383 32 383 32 335.5 10 c 128,-1,20
 288 -12 288 -12 230 -12 c 0,21,0
 150 -12 150 -12 100 30.5 c 128,-1,1
174.5 89 m 128,-1,23
 201 67 201 67 241 67 c 0,24,25
 290 67 290 67 328.5 88.5 c 128,-1,26
 367 110 367 110 388.5 147 c 128,-1,27
 410 184 410 184 410 229 c 2,28,-1
 410 263 l 1,29,-1
 247 236 l 2,30,31
 148 219 148 219 148 144 c 0,32,22
 148 111 148 111 174.5 89 c 128,-1,23
EndSplineSet
Validated: 1
EndChar

StartChar: aogonek
Encoding: 261 261 386
Width: 575
GlyphClass: 2
Flags: W
AnchorPoint: "Anchor-6" 288 539 basechar 0
AnchorPoint: "Anchor-5" 483 40 basechar 0
AnchorPoint: "Anchor-4" 288 0 basechar 0
LayerCount: 2
Fore
SplineSet
100 30.5 m 128,-1,1
 50 73 50 73 50 141 c 0,2,3
 50 207 50 207 93.5 251.5 c 128,-1,4
 137 296 137 296 226 311 c 2,5,-1
 410 341 l 1,6,-1
 410 366 l 2,7,8
 410 410 410 410 377 437.5 c 128,-1,9
 344 465 344 465 292 465 c 0,10,11
 246 465 246 465 210.5 441.5 c 128,-1,12
 175 418 175 418 158 379 c 1,13,-1
 77 421 l 1,14,15
 100 477 100 477 161 514 c 128,-1,16
 222 551 222 551 294 551 c 0,17,18
 355 551 355 551 402.5 527.5 c 128,-1,19
 450 504 450 504 476.5 462 c 128,-1,20
 503 420 503 420 503 366 c 2,21,-1
 503 0 l 1,22,-1
 458 0 l 1,23,24
 412 -29 412 -29 412 -66 c 0,25,26
 412 -88 412 -88 426.5 -100.5 c 128,-1,27
 441 -113 441 -113 466 -113 c 0,28,29
 502 -113 502 -113 542 -85 c 1,30,-1
 572 -133 l 1,31,32
 522 -175 522 -175 459 -175 c 0,33,34
 409 -175 409 -175 377 -149.5 c 128,-1,35
 345 -124 345 -124 345 -82 c 0,36,37
 345 -51 345 -51 362.5 -25 c 128,-1,38
 380 1 380 1 412 19 c 1,39,-1
 412 70 l 1,40,41
 383 32 383 32 335.5 10 c 128,-1,42
 288 -12 288 -12 230 -12 c 0,43,0
 150 -12 150 -12 100 30.5 c 128,-1,1
174.5 89 m 128,-1,45
 201 67 201 67 241 67 c 0,46,47
 290 67 290 67 328.5 88.5 c 128,-1,48
 367 110 367 110 388.5 147 c 128,-1,49
 410 184 410 184 410 229 c 2,50,-1
 410 263 l 1,51,-1
 247 236 l 2,52,53
 148 219 148 219 148 144 c 0,54,44
 148 111 148 111 174.5 89 c 128,-1,45
EndSplineSet
Validated: 1
Substitution2: "'ss03' Style Set 3 in Latin lookup 22 subtable" aogonek.ss03
Substitution2: "'ss02' Style Set 2 in Latin lookup 21 subtable" aogonek.ss02
Substitution2: "'ss01' Style Set 1 in Latin lookup 20 subtable" aogonek.ss01
Substitution2: "'salt' Stylistic Alternatives in Latin lookup 19 subtable" aogonek.ss01
AlternateSubs2: "'aalt' Access All Alternates in Latin lookup 1 subtable" aogonek.ss01 aogonek.ss02 aogonek.ss03
EndChar

StartChar: aogonek.ss01
Encoding: 65667 -1 387
Width: 575
GlyphClass: 2
Flags: W
AnchorPoint: "Anchor-6" 288 539 basechar 0
AnchorPoint: "Anchor-5" 483 40 basechar 0
AnchorPoint: "Anchor-4" 288 0 basechar 0
LayerCount: 2
Fore
SplineSet
100 30.5 m 128,-1,1
 50 73 50 73 50 141 c 0,2,3
 50 207 50 207 93.5 251.5 c 128,-1,4
 137 296 137 296 226 311 c 2,5,-1
 410 341 l 1,6,-1
 410 450 l 1,7,-1
 102 450 l 1,8,-1
 102 539 l 1,9,-1
 503 539 l 1,10,-1
 503 0 l 1,11,-1
 458 0 l 1,12,13
 412 -29 412 -29 412 -66 c 0,14,15
 412 -88 412 -88 426.5 -100.5 c 128,-1,16
 441 -113 441 -113 466 -113 c 0,17,18
 502 -113 502 -113 542 -85 c 1,19,-1
 572 -133 l 1,20,21
 522 -175 522 -175 459 -175 c 0,22,23
 409 -175 409 -175 377 -149.5 c 128,-1,24
 345 -124 345 -124 345 -82 c 0,25,26
 345 -51 345 -51 362.5 -25 c 128,-1,27
 380 1 380 1 412 19 c 1,28,-1
 412 70 l 1,29,30
 383 32 383 32 335.5 10 c 128,-1,31
 288 -12 288 -12 230 -12 c 0,32,0
 150 -12 150 -12 100 30.5 c 128,-1,1
174.5 89 m 128,-1,34
 201 67 201 67 241 67 c 0,35,36
 290 67 290 67 328.5 88.5 c 128,-1,37
 367 110 367 110 388.5 147 c 128,-1,38
 410 184 410 184 410 229 c 2,39,-1
 410 263 l 1,40,-1
 247 236 l 2,41,42
 148 219 148 219 148 144 c 0,43,33
 148 111 148 111 174.5 89 c 128,-1,34
EndSplineSet
Validated: 1
EndChar

StartChar: aogonek.ss02
Encoding: 65668 -1 388
Width: 600
GlyphClass: 2
Flags: W
AnchorPoint: "Anchor-6" 288 539 basechar 0
AnchorPoint: "Anchor-5" 483 40 basechar 0
AnchorPoint: "Anchor-4" 288 0 basechar 0
LayerCount: 2
Fore
SplineSet
100 30.5 m 128,-1,1
 50 73 50 73 50 141 c 0,2,3
 50 207 50 207 93.5 251.5 c 128,-1,4
 137 296 137 296 226 311 c 2,5,-1
 410 341 l 1,6,-1
 410 366 l 2,7,8
 410 410 410 410 377 437.5 c 128,-1,9
 344 465 344 465 292 465 c 0,10,11
 246 465 246 465 210.5 441.5 c 128,-1,12
 175 418 175 418 158 379 c 1,13,-1
 77 421 l 1,14,15
 100 477 100 477 161 514 c 128,-1,16
 222 551 222 551 294 551 c 0,17,18
 355 551 355 551 402.5 527.5 c 128,-1,19
 450 504 450 504 476.5 462 c 128,-1,20
 503 420 503 420 503 366 c 2,21,-1
 503 83 l 1,22,-1
 563 83 l 1,23,-1
 563 0 l 1,24,-1
 458 0 l 1,25,26
 412 -29 412 -29 412 -66 c 0,27,28
 412 -88 412 -88 426.5 -100.5 c 128,-1,29
 441 -113 441 -113 466 -113 c 0,30,31
 502 -113 502 -113 542 -85 c 1,32,-1
 572 -133 l 1,33,34
 522 -175 522 -175 459 -175 c 0,35,36
 409 -175 409 -175 377 -149.5 c 128,-1,37
 345 -124 345 -124 345 -82 c 0,38,39
 345 -51 345 -51 362.5 -25 c 128,-1,40
 380 1 380 1 412 19 c 1,41,-1
 412 70 l 1,42,43
 383 32 383 32 335.5 10 c 128,-1,44
 288 -12 288 -12 230 -12 c 0,45,0
 150 -12 150 -12 100 30.5 c 128,-1,1
174.5 89 m 128,-1,47
 201 67 201 67 241 67 c 0,48,49
 290 67 290 67 328.5 88.5 c 128,-1,50
 367 110 367 110 388.5 147 c 128,-1,51
 410 184 410 184 410 229 c 2,52,-1
 410 263 l 1,53,-1
 247 236 l 2,54,55
 148 219 148 219 148 144 c 0,56,46
 148 111 148 111 174.5 89 c 128,-1,47
EndSplineSet
Validated: 1
EndChar

StartChar: aogonek.ss03
Encoding: 65669 -1 389
Width: 575
GlyphClass: 2
Flags: W
AnchorPoint: "Anchor-6" 288 539 basechar 0
AnchorPoint: "Anchor-5" 483 40 basechar 0
AnchorPoint: "Anchor-4" 288 0 basechar 0
LayerCount: 2
Fore
SplineSet
100 30.5 m 128,-1,1
 50 73 50 73 50 141 c 0,2,3
 50 207 50 207 93.5 251.5 c 128,-1,4
 137 296 137 296 226 311 c 2,5,-1
 409 341 l 1,6,7
 404 392 404 392 371 421 c 128,-1,8
 338 450 338 450 282 450 c 2,9,-1
 102 450 l 1,10,-1
 102 539 l 1,11,-1
 284 539 l 2,12,13
 387 539 387 539 445 483 c 128,-1,14
 503 427 503 427 503 328 c 2,15,-1
 503 0 l 1,16,-1
 458 0 l 1,17,18
 412 -29 412 -29 412 -66 c 0,19,20
 412 -88 412 -88 426.5 -100.5 c 128,-1,21
 441 -113 441 -113 466 -113 c 0,22,23
 502 -113 502 -113 542 -85 c 1,24,-1
 572 -133 l 1,25,26
 522 -175 522 -175 459 -175 c 0,27,28
 409 -175 409 -175 377 -149.5 c 128,-1,29
 345 -124 345 -124 345 -82 c 0,30,31
 345 -51 345 -51 362.5 -25 c 128,-1,32
 380 1 380 1 412 19 c 1,33,-1
 412 70 l 1,34,35
 383 32 383 32 335.5 10 c 128,-1,36
 288 -12 288 -12 230 -12 c 0,37,0
 150 -12 150 -12 100 30.5 c 128,-1,1
174.5 89 m 128,-1,39
 201 67 201 67 241 67 c 0,40,41
 290 67 290 67 328.5 88.5 c 128,-1,42
 367 110 367 110 388.5 147 c 128,-1,43
 410 184 410 184 410 229 c 2,44,-1
 410 263 l 1,45,-1
 247 236 l 2,46,47
 148 219 148 219 148 144 c 0,48,38
 148 111 148 111 174.5 89 c 128,-1,39
EndSplineSet
Validated: 1
EndChar

StartChar: ae
Encoding: 230 230 402
Width: 978
GlyphClass: 2
Flags: W
AnchorPoint: "Anchor-6" 489 539 basechar 0
AnchorPoint: "Anchor-4" 489 0 basechar 0
LayerCount: 2
Fore
SplineSet
100 30.5 m 128,-1,1
 50 73 50 73 50 141 c 0,2,3
 50 207 50 207 93.5 251.5 c 128,-1,4
 137 296 137 296 226 311 c 2,5,-1
 410 341 l 1,6,-1
 410 366 l 2,7,8
 410 410 410 410 377 437.5 c 128,-1,9
 344 465 344 465 292 465 c 0,10,11
 246 465 246 465 210.5 441.5 c 128,-1,12
 175 418 175 418 158 379 c 1,13,-1
 77 421 l 1,14,15
 100 477 100 477 161 514 c 128,-1,16
 222 551 222 551 294 551 c 0,17,18
 356 551 356 551 404 526.5 c 128,-1,19
 452 502 452 502 478 459 c 1,20,21
 514 502 514 502 565 526.5 c 128,-1,22
 616 551 616 551 675 551 c 0,23,24
 752 551 752 551 809.5 515 c 128,-1,25
 867 479 867 479 897.5 419.5 c 128,-1,26
 928 360 928 360 928 292 c 0,27,28
 928 262 928 262 923 242 c 1,29,-1
 511 242 l 1,30,31
 513 191 513 191 537 153 c 128,-1,32
 561 115 561 115 600 94 c 128,-1,33
 639 73 639 73 684 73 c 0,34,35
 783 73 783 73 836 162 c 1,36,-1
 914 122 l 1,37,38
 888 64 888 64 827 26 c 128,-1,39
 766 -12 766 -12 689 -12 c 0,40,41
 632 -12 632 -12 583.5 8.5 c 128,-1,42
 535 29 535 29 499 69 c 1,43,-1
 499 0 l 1,44,-1
 412 0 l 1,45,-1
 412 70 l 1,46,47
 383 32 383 32 335.5 10 c 128,-1,48
 288 -12 288 -12 230 -12 c 0,49,0
 150 -12 150 -12 100 30.5 c 128,-1,1
174.5 89 m 128,-1,51
 201 67 201 67 241 67 c 0,52,53
 290 67 290 67 328.5 88.5 c 128,-1,54
 367 110 367 110 388.5 147 c 128,-1,55
 410 184 410 184 410 229 c 2,56,-1
 410 263 l 1,57,-1
 247 236 l 2,58,59
 148 219 148 219 148 144 c 0,60,50
 148 111 148 111 174.5 89 c 128,-1,51
828 322 m 1,61,62
 827 364 827 364 806.5 397 c 128,-1,63
 786 430 786 430 751 449 c 128,-1,64
 716 468 716 468 675 468 c 0,65,66
 614 468 614 468 568 428 c 128,-1,67
 522 388 522 388 514 322 c 1,68,-1
 828 322 l 1,61,62
EndSplineSet
Validated: 1
EndChar

StartChar: b
Encoding: 98 98 404
Width: 669
GlyphClass: 2
Flags: W
AnchorPoint: "Anchor-6" 335 784 basechar 0
AnchorPoint: "Anchor-4" 335 0 basechar 0
LayerCount: 2
Fore
SplineSet
243 11.5 m 128,-1,1
 194 35 194 35 163 78 c 1,2,-1
 163 0 l 1,3,-1
 72 0 l 1,4,-1
 72 757 l 1,5,-1
 165 757 l 1,6,-1
 165 466 l 1,7,8
 197 506 197 506 245.5 528.5 c 128,-1,9
 294 551 294 551 352 551 c 0,10,11
 427 551 427 551 488 514 c 128,-1,12
 549 477 549 477 584 412.5 c 128,-1,13
 619 348 619 348 619 269 c 256,14,15
 619 190 619 190 584 126 c 128,-1,16
 549 62 549 62 488 25 c 128,-1,17
 427 -12 427 -12 351 -12 c 0,18,0
 292 -12 292 -12 243 11.5 c 128,-1,1
188.5 171.5 m 128,-1,20
 212 128 212 128 253 103 c 128,-1,21
 294 78 294 78 344 78 c 256,22,23
 394 78 394 78 434.5 103 c 128,-1,24
 475 128 475 128 497.5 171.5 c 128,-1,25
 520 215 520 215 520 269 c 256,26,27
 520 323 520 323 497 367 c 128,-1,28
 474 411 474 411 434 436 c 128,-1,29
 394 461 394 461 344 461 c 256,30,31
 294 461 294 461 253 436 c 128,-1,32
 212 411 212 411 188.5 367 c 128,-1,33
 165 323 165 323 165 269 c 256,34,19
 165 215 165 215 188.5 171.5 c 128,-1,20
EndSplineSet
Validated: 1
EndChar

StartChar: c
Encoding: 99 99 405
Width: 603
GlyphClass: 2
Flags: W
AnchorPoint: "Anchor-6" 322 539 basechar 0
AnchorPoint: "Anchor-4" 322 0 basechar 0
LayerCount: 2
Fore
SplineSet
180 25 m 128,-1,1
 117 62 117 62 82 126.5 c 128,-1,2
 47 191 47 191 47 270 c 0,3,4
 47 350 47 350 82 414 c 128,-1,5
 117 478 117 478 179.5 514.5 c 128,-1,6
 242 551 242 551 322 551 c 0,7,8
 400 551 400 551 464.5 510.5 c 128,-1,9
 529 470 529 470 556 406 c 1,10,-1
 472 366 l 1,11,12
 453 409 453 409 412.5 435 c 128,-1,13
 372 461 372 461 322 461 c 0,14,15
 273 461 273 461 232.5 436 c 128,-1,16
 192 411 192 411 169 367.5 c 128,-1,17
 146 324 146 324 146 269 c 0,18,19
 146 215 146 215 169.5 171.5 c 128,-1,20
 193 128 193 128 233 103 c 128,-1,21
 273 78 273 78 322 78 c 0,22,23
 373 78 373 78 413 104 c 128,-1,24
 453 130 453 130 472 175 c 1,25,-1
 556 133 l 1,26,27
 530 70 530 70 465 29 c 128,-1,28
 400 -12 400 -12 322 -12 c 0,29,0
 243 -12 243 -12 180 25 c 128,-1,1
EndSplineSet
Validated: 1
EndChar

StartChar: ccedilla
Encoding: 231 231 408
Width: 603
GlyphClass: 2
Flags: W
AnchorPoint: "Anchor-4" 322 0 basechar 0
LayerCount: 2
Fore
SplineSet
289 -226 m 128,-1,1
 267 -222 267 -222 252 -216 c 1,2,-1
 264 -166 l 1,3,4
 291 -176 291 -176 324 -176 c 0,5,6
 347 -176 347 -176 360 -166 c 128,-1,7
 373 -156 373 -156 373 -139 c 0,8,9
 373 -124 373 -124 364 -116 c 128,-1,10
 355 -108 355 -108 338 -108 c 0,11,12
 314 -108 314 -108 298 -116 c 1,13,-1
 277 -107 l 1,14,-1
 289 -10 l 1,15,16
 218 -3 218 -3 163 35.5 c 128,-1,17
 108 74 108 74 77.5 135 c 128,-1,18
 47 196 47 196 47 270 c 0,19,20
 47 350 47 350 82 414 c 128,-1,21
 117 478 117 478 179.5 514.5 c 128,-1,22
 242 551 242 551 322 551 c 0,23,24
 400 551 400 551 464.5 510.5 c 128,-1,25
 529 470 529 470 556 406 c 1,26,-1
 472 366 l 1,27,28
 453 409 453 409 412.5 435 c 128,-1,29
 372 461 372 461 322 461 c 0,30,31
 273 461 273 461 232.5 436 c 128,-1,32
 192 411 192 411 169 367.5 c 128,-1,33
 146 324 146 324 146 269 c 0,34,35
 146 215 146 215 169.5 171.5 c 128,-1,36
 193 128 193 128 233 103 c 128,-1,37
 273 78 273 78 322 78 c 0,38,39
 373 78 373 78 413 104 c 128,-1,40
 453 130 453 130 472 175 c 1,41,-1
 556 133 l 1,42,43
 533 76 533 76 477 36.5 c 128,-1,44
 421 -3 421 -3 352 -10 c 1,45,-1
 347 -62 l 1,46,47
 359 -60 359 -60 366 -60 c 0,48,49
 402 -60 402 -60 425.5 -81 c 128,-1,50
 449 -102 449 -102 449 -136 c 0,51,52
 449 -177 449 -177 417.5 -203.5 c 128,-1,53
 386 -230 386 -230 330 -230 c 0,54,0
 311 -230 311 -230 289 -226 c 128,-1,1
EndSplineSet
Validated: 1
EndChar

StartChar: uni1E09
Encoding: 7689 7689 409
Width: 603
GlyphClass: 2
Flags: W
AnchorPoint: "Anchor-4" 322 0 basechar 0
LayerCount: 2
Fore
SplineSet
289 -226 m 128,-1,1
 267 -222 267 -222 252 -216 c 1,2,-1
 264 -166 l 1,3,4
 291 -176 291 -176 324 -176 c 0,5,6
 347 -176 347 -176 360 -166 c 128,-1,7
 373 -156 373 -156 373 -139 c 0,8,9
 373 -124 373 -124 364 -116 c 128,-1,10
 355 -108 355 -108 338 -108 c 0,11,12
 314 -108 314 -108 298 -116 c 1,13,-1
 277 -107 l 1,14,-1
 289 -10 l 1,15,16
 218 -3 218 -3 163 35.5 c 128,-1,17
 108 74 108 74 77.5 135 c 128,-1,18
 47 196 47 196 47 270 c 0,19,20
 47 350 47 350 82 414 c 128,-1,21
 117 478 117 478 179.5 514.5 c 128,-1,22
 242 551 242 551 322 551 c 0,23,24
 400 551 400 551 464.5 510.5 c 128,-1,25
 529 470 529 470 556 406 c 1,26,-1
 472 366 l 1,27,28
 453 409 453 409 412.5 435 c 128,-1,29
 372 461 372 461 322 461 c 0,30,31
 273 461 273 461 232.5 436 c 128,-1,32
 192 411 192 411 169 367.5 c 128,-1,33
 146 324 146 324 146 269 c 0,34,35
 146 215 146 215 169.5 171.5 c 128,-1,36
 193 128 193 128 233 103 c 128,-1,37
 273 78 273 78 322 78 c 0,38,39
 373 78 373 78 413 104 c 128,-1,40
 453 130 453 130 472 175 c 1,41,-1
 556 133 l 1,42,43
 533 76 533 76 477 36.5 c 128,-1,44
 421 -3 421 -3 352 -10 c 1,45,-1
 347 -62 l 1,46,47
 359 -60 359 -60 366 -60 c 0,48,49
 402 -60 402 -60 425.5 -81 c 128,-1,50
 449 -102 449 -102 449 -136 c 0,51,52
 449 -177 449 -177 417.5 -203.5 c 128,-1,53
 386 -230 386 -230 330 -230 c 0,54,0
 311 -230 311 -230 289 -226 c 128,-1,1
355 784 m 1,55,-1
 454 784 l 1,56,-1
 362 640 l 1,57,-1
 282 640 l 1,58,-1
 355 784 l 1,55,-1
EndSplineSet
Validated: 1
EndChar

StartChar: d
Encoding: 100 100 412
Width: 669
GlyphClass: 2
Flags: W
AnchorPoint: "Anchor-7" 669 595 basechar 0
AnchorPoint: "Anchor-6" 335 784 basechar 0
AnchorPoint: "Anchor-4" 335 0 basechar 0
LayerCount: 2
Fore
SplineSet
181 25 m 128,-1,1
 120 62 120 62 85 126 c 128,-1,2
 50 190 50 190 50 269 c 256,3,4
 50 348 50 348 85 412.5 c 128,-1,5
 120 477 120 477 181 514 c 128,-1,6
 242 551 242 551 317 551 c 0,7,8
 376 551 376 551 423.5 529 c 128,-1,9
 471 507 471 507 503 467 c 1,10,-1
 503 757 l 1,11,-1
 597 757 l 1,12,-1
 597 0 l 1,13,-1
 506 0 l 1,14,-1
 506 79 l 1,15,16
 476 36 476 36 426.5 12 c 128,-1,17
 377 -12 377 -12 317 -12 c 0,18,0
 242 -12 242 -12 181 25 c 128,-1,1
171 171.5 m 128,-1,20
 194 128 194 128 234.5 103 c 128,-1,21
 275 78 275 78 325 78 c 256,22,23
 375 78 375 78 415.5 103 c 128,-1,24
 456 128 456 128 479.5 171.5 c 128,-1,25
 503 215 503 215 503 269 c 256,26,27
 503 323 503 323 479.5 367 c 128,-1,28
 456 411 456 411 415.5 436 c 128,-1,29
 375 461 375 461 325 461 c 256,30,31
 275 461 275 461 234.5 436 c 128,-1,32
 194 411 194 411 171 367 c 128,-1,33
 148 323 148 323 148 269 c 256,34,19
 148 215 148 215 171 171.5 c 128,-1,20
EndSplineSet
Validated: 1
EndChar

StartChar: eth
Encoding: 240 240 413
Width: 654
GlyphClass: 1
Flags: W
LayerCount: 2
Fore
SplineSet
188.5 24 m 128,-1,1
 124 60 124 60 87 123.5 c 128,-1,2
 50 187 50 187 50 266 c 0,3,4
 50 343 50 343 85.5 406 c 128,-1,5
 121 469 121 469 184 505 c 128,-1,6
 247 541 247 541 324 541 c 0,7,8
 370 541 370 541 412 527 c 128,-1,9
 454 513 454 513 487 483 c 1,10,11
 465 576 465 576 392 638 c 1,12,-1
 235 580 l 1,13,-1
 235 639 l 1,14,-1
 336 676 l 1,15,16
 271 710 271 710 196 710 c 0,17,18
 138 710 138 710 82 691 c 1,19,-1
 66 771 l 1,20,21
 140 795 140 795 205 795 c 0,22,23
 340 795 340 795 438 715 c 1,24,-1
 547 755 l 1,25,-1
 547 695 l 1,26,-1
 483 671 l 1,27,28
 542 605 542 605 573.5 512.5 c 128,-1,29
 605 420 605 420 605 319 c 0,30,31
 605 208 605 208 569 134 c 128,-1,32
 533 60 533 60 471.5 24 c 128,-1,33
 410 -12 410 -12 332 -12 c 0,34,0
 253 -12 253 -12 188.5 24 c 128,-1,1
172 170 m 128,-1,36
 196 127 196 127 237.5 102.5 c 128,-1,37
 279 78 279 78 328 78 c 256,38,39
 377 78 377 78 418 103 c 128,-1,40
 459 128 459 128 482.5 171 c 128,-1,41
 506 214 506 214 506 267 c 0,42,43
 506 318 506 318 483.5 360 c 128,-1,44
 461 402 461 402 420.5 426.5 c 128,-1,45
 380 451 380 451 328 451 c 256,46,47
 276 451 276 451 235 426.5 c 128,-1,48
 194 402 194 402 171 359.5 c 128,-1,49
 148 317 148 317 148 265 c 256,50,35
 148 213 148 213 172 170 c 128,-1,36
EndSplineSet
Validated: 1
EndChar

StartChar: dcroat
Encoding: 273 273 415
Width: 669
GlyphClass: 2
Flags: W
AnchorPoint: "Anchor-7" 669 595 basechar 0
AnchorPoint: "Anchor-6" 335 784 basechar 0
AnchorPoint: "Anchor-4" 335 0 basechar 0
LayerCount: 2
Fore
SplineSet
181 25 m 128,-1,1
 120 62 120 62 85 126 c 128,-1,2
 50 190 50 190 50 269 c 256,3,4
 50 348 50 348 85 412.5 c 128,-1,5
 120 477 120 477 181 514 c 128,-1,6
 242 551 242 551 317 551 c 0,7,8
 376 551 376 551 423.5 529 c 128,-1,9
 471 507 471 507 503 467 c 1,10,-1
 503 604 l 1,11,-1
 414 604 l 1,12,-1
 414 675 l 1,13,-1
 503 675 l 1,14,-1
 503 757 l 1,15,-1
 597 757 l 1,16,-1
 597 675 l 1,17,-1
 689 675 l 1,18,-1
 689 604 l 1,19,-1
 597 604 l 1,20,-1
 597 0 l 1,21,-1
 506 0 l 1,22,-1
 506 79 l 1,23,24
 476 36 476 36 426.5 12 c 128,-1,25
 377 -12 377 -12 317 -12 c 0,26,0
 242 -12 242 -12 181 25 c 128,-1,1
171 171.5 m 128,-1,28
 194 128 194 128 234.5 103 c 128,-1,29
 275 78 275 78 325 78 c 256,30,31
 375 78 375 78 415.5 103 c 128,-1,32
 456 128 456 128 479.5 171.5 c 128,-1,33
 503 215 503 215 503 269 c 256,34,35
 503 323 503 323 479.5 367 c 128,-1,36
 456 411 456 411 415.5 436 c 128,-1,37
 375 461 375 461 325 461 c 256,38,39
 275 461 275 461 234.5 436 c 128,-1,40
 194 411 194 411 171 367 c 128,-1,41
 148 323 148 323 148 269 c 256,42,27
 148 215 148 215 171 171.5 c 128,-1,28
EndSplineSet
Validated: 1
EndChar

StartChar: uni01C6
Encoding: 454 454 418
Width: 1128
GlyphClass: 1
Flags: W
LayerCount: 2
Fore
SplineSet
181 25 m 128,-1,1
 120 62 120 62 85 126 c 128,-1,2
 50 190 50 190 50 269 c 256,3,4
 50 348 50 348 85 412.5 c 128,-1,5
 120 477 120 477 181 514 c 128,-1,6
 242 551 242 551 317 551 c 0,7,8
 376 551 376 551 423.5 529 c 128,-1,9
 471 507 471 507 503 467 c 1,10,-1
 503 745 l 1,11,-1
 597 745 l 1,12,-1
 597 0 l 1,13,-1
 506 0 l 1,14,-1
 506 79 l 1,15,16
 476 36 476 36 426.5 12 c 128,-1,17
 377 -12 377 -12 317 -12 c 0,18,0
 242 -12 242 -12 181 25 c 128,-1,1
171 171.5 m 128,-1,20
 194 128 194 128 234.5 103 c 128,-1,21
 275 78 275 78 325 78 c 256,22,23
 375 78 375 78 415.5 103 c 128,-1,24
 456 128 456 128 479.5 171.5 c 128,-1,25
 503 215 503 215 503 269 c 256,26,27
 503 323 503 323 479.5 367 c 128,-1,28
 456 411 456 411 415.5 436 c 128,-1,29
 375 461 375 461 325 461 c 256,30,31
 275 461 275 461 234.5 436 c 128,-1,32
 194 411 194 411 171 367 c 128,-1,33
 148 323 148 323 148 269 c 256,34,19
 148 215 148 215 171 171.5 c 128,-1,20
688 79 m 1,35,-1
 982 450 l 1,36,-1
 704 450 l 1,37,-1
 704 539 l 1,38,-1
 1107 539 l 1,39,-1
 1107 460 l 1,40,-1
 816 89 l 1,41,-1
 1109 89 l 1,42,-1
 1109 0 l 1,43,-1
 688 0 l 1,44,-1
 688 79 l 1,35,-1
819 784 m 1,45,-1
 895 689 l 1,46,-1
 973 784 l 1,47,-1
 1058 784 l 1,48,-1
 942 640 l 1,49,-1
 848 640 l 1,50,-1
 733 784 l 1,51,-1
 819 784 l 1,45,-1
EndSplineSet
Validated: 1
EndChar

StartChar: e
Encoding: 101 101 419
Width: 614
GlyphClass: 2
Flags: W
AnchorPoint: "Anchor-6" 308 539 basechar 0
AnchorPoint: "Anchor-5" 320 40 basechar 0
AnchorPoint: "Anchor-4" 308 0 basechar 0
LayerCount: 2
Fore
SplineSet
182 25 m 128,-1,1
 120 62 120 62 85 126.5 c 128,-1,2
 50 191 50 191 50 271 c 256,3,4
 50 351 50 351 84.5 415 c 128,-1,5
 119 479 119 479 178.5 515 c 128,-1,6
 238 551 238 551 312 551 c 0,7,8
 389 551 389 551 446.5 515 c 128,-1,9
 504 479 504 479 534.5 419.5 c 128,-1,10
 565 360 565 360 565 292 c 0,11,12
 565 269 565 269 560 242 c 1,13,-1
 148 242 l 1,14,15
 150 191 150 191 174 153 c 128,-1,16
 198 115 198 115 236.5 94 c 128,-1,17
 275 73 275 73 321 73 c 0,18,19
 419 73 419 73 472 162 c 1,20,-1
 550 122 l 1,21,22
 524 64 524 64 462 26 c 128,-1,23
 400 -12 400 -12 320 -12 c 0,24,0
 244 -12 244 -12 182 25 c 128,-1,1
464 322 m 1,25,26
 462 385 462 385 418.5 426.5 c 128,-1,27
 375 468 375 468 312 468 c 0,28,29
 250 468 250 468 205 428.5 c 128,-1,30
 160 389 160 389 150 322 c 1,31,-1
 464 322 l 1,25,26
EndSplineSet
Validated: 1
Substitution2: "'ss03' Style Set 3 in Latin lookup 22 subtable" e.ss03
Substitution2: "'aalt' Access All Alternates in Latin lookup 0 subtable" e.ss03
EndChar

StartChar: e.ss03
Encoding: 65679 -1 420
Width: 614
GlyphClass: 2
Flags: W
AnchorPoint: "Anchor-6" 308 539 basechar 0
AnchorPoint: "Anchor-5" 320 40 basechar 0
AnchorPoint: "Anchor-4" 308 0 basechar 0
LayerCount: 2
Fore
SplineSet
187 24.5 m 128,-1,1
 122 61 122 61 86 126 c 128,-1,2
 50 191 50 191 50 271 c 256,3,4
 50 351 50 351 84.5 415 c 128,-1,5
 119 479 119 479 178.5 515 c 128,-1,6
 238 551 238 551 312 551 c 0,7,8
 389 551 389 551 446.5 515 c 128,-1,9
 504 479 504 479 534.5 419.5 c 128,-1,10
 565 360 565 360 565 292 c 0,11,12
 565 269 565 269 560 242 c 1,13,-1
 148 242 l 1,14,15
 151 165 151 165 203.5 119 c 128,-1,16
 256 73 256 73 335 73 c 2,17,-1
 527 73 l 1,18,-1
 527 -12 l 1,19,-1
 335 -12 l 2,20,0
 252 -12 252 -12 187 24.5 c 128,-1,1
464 322 m 1,21,22
 462 385 462 385 418.5 426.5 c 128,-1,23
 375 468 375 468 312 468 c 0,24,25
 250 468 250 468 205 428.5 c 128,-1,26
 160 389 160 389 150 322 c 1,27,-1
 464 322 l 1,21,22
EndSplineSet
Validated: 1
EndChar

StartChar: uni1E1D
Encoding: 7709 7709 427
Width: 614
GlyphClass: 2
Flags: W
AnchorPoint: "Anchor-5" 320 40 basechar 0
AnchorPoint: "Anchor-4" 308 0 basechar 0
LayerCount: 2
Fore
SplineSet
275 -226 m 128,-1,1
 253 -222 253 -222 238 -216 c 1,2,-1
 250 -166 l 1,3,4
 277 -176 277 -176 310 -176 c 0,5,6
 333 -176 333 -176 346 -166 c 128,-1,7
 359 -156 359 -156 359 -139 c 0,8,9
 359 -124 359 -124 350 -116 c 128,-1,10
 341 -108 341 -108 324 -108 c 0,11,12
 300 -108 300 -108 284 -116 c 1,13,-1
 263 -107 l 1,14,-1
 275 -8 l 1,15,16
 210 2 210 2 158.5 40.5 c 128,-1,17
 107 79 107 79 78.5 139 c 128,-1,18
 50 199 50 199 50 271 c 0,19,20
 50 351 50 351 84.5 415 c 128,-1,21
 119 479 119 479 178.5 515 c 128,-1,22
 238 551 238 551 312 551 c 0,23,24
 389 551 389 551 446.5 515 c 128,-1,25
 504 479 504 479 534.5 419.5 c 128,-1,26
 565 360 565 360 565 292 c 0,27,28
 565 269 565 269 560 242 c 1,29,-1
 148 242 l 1,30,31
 150 191 150 191 174 153 c 128,-1,32
 198 115 198 115 236.5 94 c 128,-1,33
 275 73 275 73 321 73 c 0,34,35
 419 73 419 73 472 162 c 1,36,-1
 550 122 l 1,37,38
 526 67 526 67 469 30 c 128,-1,39
 412 -7 412 -7 338 -11 c 1,40,-1
 333 -62 l 1,41,42
 345 -60 345 -60 352 -60 c 0,43,44
 388 -60 388 -60 411.5 -81 c 128,-1,45
 435 -102 435 -102 435 -136 c 0,46,47
 435 -177 435 -177 403.5 -203.5 c 128,-1,48
 372 -230 372 -230 316 -230 c 0,49,0
 297 -230 297 -230 275 -226 c 128,-1,1
464 322 m 1,50,51
 462 385 462 385 418.5 426.5 c 128,-1,52
 375 468 375 468 312 468 c 0,53,54
 250 468 250 468 205 428.5 c 128,-1,55
 160 389 160 389 150 322 c 1,56,-1
 464 322 l 1,50,51
233 779 m 1,57,58
 233 749 233 749 254.5 727 c 128,-1,59
 276 705 276 705 307 705 c 256,60,61
 338 705 338 705 360 727 c 128,-1,62
 382 749 382 749 382 779 c 1,63,-1
 452 779 l 1,64,65
 452 742 452 742 432.5 710 c 128,-1,66
 413 678 413 678 379.5 659 c 128,-1,67
 346 640 346 640 307 640 c 256,68,69
 268 640 268 640 234.5 659 c 128,-1,70
 201 678 201 678 181.5 710 c 128,-1,71
 162 742 162 742 162 779 c 1,72,-1
 233 779 l 1,57,58
EndSplineSet
Validated: 1
Substitution2: "'ss03' Style Set 3 in Latin lookup 22 subtable" uni1E1D.ss03
Substitution2: "'aalt' Access All Alternates in Latin lookup 0 subtable" uni1E1D.ss03
EndChar

StartChar: uni1E1D.ss03
Encoding: 65683 -1 428
Width: 614
GlyphClass: 2
Flags: W
AnchorPoint: "Anchor-5" 320 40 basechar 0
AnchorPoint: "Anchor-4" 308 0 basechar 0
LayerCount: 2
Fore
SplineSet
275 -226 m 128,-1,1
 253 -222 253 -222 238 -216 c 1,2,-1
 250 -166 l 1,3,4
 277 -176 277 -176 310 -176 c 0,5,6
 333 -176 333 -176 346 -166 c 128,-1,7
 359 -156 359 -156 359 -139 c 0,8,9
 359 -124 359 -124 350 -116 c 128,-1,10
 341 -108 341 -108 324 -108 c 0,11,12
 300 -108 300 -108 284 -116 c 1,13,-1
 263 -107 l 1,14,-1
 275 -7 l 1,15,16
 208 5 208 5 157 44 c 128,-1,17
 106 83 106 83 78 142 c 128,-1,18
 50 201 50 201 50 271 c 0,19,20
 50 351 50 351 84.5 415 c 128,-1,21
 119 479 119 479 178.5 515 c 128,-1,22
 238 551 238 551 312 551 c 0,23,24
 389 551 389 551 446.5 515 c 128,-1,25
 504 479 504 479 534.5 419.5 c 128,-1,26
 565 360 565 360 565 292 c 0,27,28
 565 269 565 269 560 242 c 1,29,-1
 148 242 l 1,30,31
 151 165 151 165 203.5 119 c 128,-1,32
 256 73 256 73 335 73 c 2,33,-1
 527 73 l 1,34,-1
 527 -12 l 1,35,-1
 338 -12 l 1,36,-1
 333 -62 l 1,37,38
 345 -60 345 -60 352 -60 c 0,39,40
 388 -60 388 -60 411.5 -81 c 128,-1,41
 435 -102 435 -102 435 -136 c 0,42,43
 435 -177 435 -177 403.5 -203.5 c 128,-1,44
 372 -230 372 -230 316 -230 c 0,45,0
 297 -230 297 -230 275 -226 c 128,-1,1
464 322 m 1,46,47
 462 385 462 385 418.5 426.5 c 128,-1,48
 375 468 375 468 312 468 c 0,49,50
 250 468 250 468 205 428.5 c 128,-1,51
 160 389 160 389 150 322 c 1,52,-1
 464 322 l 1,46,47
233 779 m 1,53,54
 233 749 233 749 254.5 727 c 128,-1,55
 276 705 276 705 307 705 c 256,56,57
 338 705 338 705 360 727 c 128,-1,58
 382 749 382 749 382 779 c 1,59,-1
 452 779 l 1,60,61
 452 742 452 742 432.5 710 c 128,-1,62
 413 678 413 678 379.5 659 c 128,-1,63
 346 640 346 640 307 640 c 256,64,65
 268 640 268 640 234.5 659 c 128,-1,66
 201 678 201 678 181.5 710 c 128,-1,67
 162 742 162 742 162 779 c 1,68,-1
 233 779 l 1,53,54
EndSplineSet
Validated: 1
EndChar

StartChar: eogonek
Encoding: 281 281 461
Width: 614
GlyphClass: 2
Flags: W
AnchorPoint: "Anchor-6" 308 539 basechar 0
AnchorPoint: "Anchor-5" 320 40 basechar 0
AnchorPoint: "Anchor-4" 308 0 basechar 0
LayerCount: 2
Fore
SplineSet
281 -9 m 1,1,2
 249 -35 249 -35 249 -66 c 0,3,4
 249 -88 249 -88 263.5 -100.5 c 128,-1,5
 278 -113 278 -113 303 -113 c 0,6,7
 339 -113 339 -113 379 -85 c 1,8,-1
 409 -133 l 1,9,10
 359 -175 359 -175 296 -175 c 0,11,12
 246 -175 246 -175 214 -149.5 c 128,-1,13
 182 -124 182 -124 182 -82 c 0,14,15
 182 -32 182 -32 226 4 c 1,16,17
 146 33 146 33 98 105 c 128,-1,18
 50 177 50 177 50 271 c 0,19,20
 50 351 50 351 84.5 415 c 128,-1,21
 119 479 119 479 178.5 515 c 128,-1,22
 238 551 238 551 312 551 c 0,23,24
 389 551 389 551 446.5 515 c 128,-1,25
 504 479 504 479 534.5 419.5 c 128,-1,26
 565 360 565 360 565 292 c 0,27,28
 565 269 565 269 560 242 c 1,29,-1
 148 242 l 1,30,31
 150 191 150 191 174 153 c 128,-1,32
 198 115 198 115 236.5 94 c 128,-1,33
 275 73 275 73 321 73 c 0,34,35
 419 73 419 73 472 162 c 1,36,-1
 550 122 l 1,37,38
 524 64 524 64 462 26 c 128,-1,39
 400 -12 400 -12 320 -12 c 0,40,0
 301 -12 301 -12 281 -9 c 1,1,2
464 322 m 1,41,42
 462 385 462 385 418.5 426.5 c 128,-1,43
 375 468 375 468 312 468 c 0,44,45
 250 468 250 468 205 428.5 c 128,-1,46
 160 389 160 389 150 322 c 1,47,-1
 464 322 l 1,41,42
EndSplineSet
Validated: 1
Substitution2: "'ss03' Style Set 3 in Latin lookup 22 subtable" eogonek.ss03
Substitution2: "'aalt' Access All Alternates in Latin lookup 0 subtable" eogonek.ss03
EndChar

StartChar: eogonek.ss03
Encoding: 65700 -1 462
Width: 614
GlyphClass: 2
Flags: W
AnchorPoint: "Anchor-6" 308 539 basechar 0
AnchorPoint: "Anchor-5" 320 40 basechar 0
AnchorPoint: "Anchor-4" 308 0 basechar 0
LayerCount: 2
Fore
SplineSet
283 -8 m 1,1,2
 249 -34 249 -34 249 -66 c 0,3,4
 249 -88 249 -88 263.5 -100.5 c 128,-1,5
 278 -113 278 -113 303 -113 c 0,6,7
 339 -113 339 -113 379 -85 c 1,8,-1
 409 -133 l 1,9,10
 359 -175 359 -175 296 -175 c 0,11,12
 246 -175 246 -175 214 -149.5 c 128,-1,13
 182 -124 182 -124 182 -82 c 0,14,15
 182 -57 182 -57 194 -34 c 128,-1,16
 206 -11 206 -11 228 6 c 1,17,18
 146 35 146 35 98 106.5 c 128,-1,19
 50 178 50 178 50 271 c 0,20,21
 50 351 50 351 84.5 415 c 128,-1,22
 119 479 119 479 178.5 515 c 128,-1,23
 238 551 238 551 312 551 c 0,24,25
 389 551 389 551 446.5 515 c 128,-1,26
 504 479 504 479 534.5 419.5 c 128,-1,27
 565 360 565 360 565 292 c 0,28,29
 565 269 565 269 560 242 c 1,30,-1
 148 242 l 1,31,32
 151 165 151 165 203.5 119 c 128,-1,33
 256 73 256 73 335 73 c 2,34,-1
 527 73 l 1,35,-1
 527 -12 l 1,36,-1
 335 -12 l 2,37,0
 306 -12 306 -12 283 -8 c 1,1,2
464 322 m 1,38,39
 462 385 462 385 418.5 426.5 c 128,-1,40
 375 468 375 468 312 468 c 0,41,42
 250 468 250 468 205 428.5 c 128,-1,43
 160 389 160 389 150 322 c 1,44,-1
 464 322 l 1,38,39
EndSplineSet
Validated: 1
EndChar

StartChar: uni0259
Encoding: 601 601 465
Width: 614
GlyphClass: 1
Flags: W
LayerCount: 2
Fore
SplineSet
168.5 24 m 128,-1,1
 111 60 111 60 80.5 119.5 c 128,-1,2
 50 179 50 179 50 247 c 0,3,4
 50 276 50 276 54 297 c 1,5,-1
 466 297 l 1,6,7
 464 347 464 347 440 385.5 c 128,-1,8
 416 424 416 424 377.5 445 c 128,-1,9
 339 466 339 466 293 466 c 0,10,11
 242 466 242 466 204.5 442 c 128,-1,12
 167 418 167 418 142 377 c 1,13,-1
 64 417 l 1,14,15
 90 475 90 475 152 513 c 128,-1,16
 214 551 214 551 294 551 c 0,17,18
 371 551 371 551 433 514 c 128,-1,19
 495 477 495 477 530 412.5 c 128,-1,20
 565 348 565 348 565 268 c 256,21,22
 565 188 565 188 530.5 124 c 128,-1,23
 496 60 496 60 436 24 c 128,-1,24
 376 -12 376 -12 302 -12 c 0,25,0
 226 -12 226 -12 168.5 24 c 128,-1,1
195.5 112.5 m 128,-1,27
 239 71 239 71 302 71 c 0,28,29
 364 71 364 71 409 110.5 c 128,-1,30
 454 150 454 150 464 217 c 1,31,-1
 150 217 l 1,32,26
 152 154 152 154 195.5 112.5 c 128,-1,27
EndSplineSet
Validated: 1
EndChar

StartChar: f
Encoding: 102 102 466
Width: 397
GlyphClass: 2
Flags: W
AnchorPoint: "Anchor-6" 199 784 basechar 0
AnchorPoint: "Anchor-4" 199 0 basechar 0
LayerCount: 2
Fore
SplineSet
129 446 m 1,0,-1
 26 446 l 1,1,-1
 26 535 l 1,2,-1
 129 535 l 1,3,-1
 129 573 l 2,4,5
 129 631 129 631 154 673 c 128,-1,6
 179 715 179 715 221.5 737.5 c 128,-1,7
 264 760 264 760 317 760 c 0,8,9
 344 760 344 760 364 755 c 1,10,-1
 364 672 l 1,11,12
 349 675 349 675 328 675 c 0,13,14
 279 675 279 675 251 650.5 c 128,-1,15
 223 626 223 626 223 573 c 2,16,-1
 223 535 l 1,17,-1
 351 535 l 1,18,-1
 351 446 l 1,19,-1
 223 446 l 1,20,-1
 223 0 l 1,21,-1
 129 0 l 1,22,-1
 129 446 l 1,0,-1
EndSplineSet
Validated: 1
Substitution2: "'ss01' Style Set 1 in Latin lookup 20 subtable" f.ss01
Substitution2: "'salt' Stylistic Alternatives in Latin lookup 19 subtable" f.ss01
Substitution2: "'aalt' Access All Alternates in Latin lookup 0 subtable" f.ss01
EndChar

StartChar: f.ss01
Encoding: 65702 -1 467
Width: 397
GlyphClass: 1
Flags: W
LayerCount: 2
Fore
SplineSet
129 450 m 1,0,-1
 26 450 l 1,1,-1
 26 539 l 1,2,-1
 129 539 l 1,3,-1
 129 745 l 1,4,-1
 364 745 l 1,5,-1
 364 663 l 1,6,-1
 223 663 l 1,7,-1
 223 539 l 1,8,-1
 351 539 l 1,9,-1
 351 450 l 1,10,-1
 223 450 l 1,11,-1
 223 0 l 1,12,-1
 129 0 l 1,13,-1
 129 450 l 1,0,-1
EndSplineSet
Validated: 1
EndChar

StartChar: g
Encoding: 103 103 468
Width: 659
GlyphClass: 2
Flags: W
AnchorPoint: "Anchor-6" 329 539 basechar 0
AnchorPoint: "Anchor-4" 329 -240 basechar 0
LayerCount: 2
Fore
SplineSet
179.5 -181.5 m 128,-1,1
 115 -143 115 -143 88 -79 c 1,2,-1
 175 -39 l 1,3,4
 190 -79 190 -79 230 -104.5 c 128,-1,5
 270 -130 270 -130 328 -130 c 0,6,7
 399 -130 399 -130 446 -89.5 c 128,-1,8
 493 -49 493 -49 493 23 c 2,9,-1
 493 98 l 1,10,11
 463 57 463 57 416 35 c 128,-1,12
 369 13 369 13 314 13 c 0,13,14
 239 13 239 13 179 48.5 c 128,-1,15
 119 84 119 84 84.5 145.5 c 128,-1,16
 50 207 50 207 50 282 c 256,17,18
 50 357 50 357 84 418.5 c 128,-1,19
 118 480 118 480 178 515.5 c 128,-1,20
 238 551 238 551 313 551 c 0,21,22
 369 551 369 551 416 528.5 c 128,-1,23
 463 506 463 506 496 464 c 1,24,-1
 496 539 l 1,25,-1
 587 539 l 1,26,-1
 587 23 l 2,27,28
 587 -47 587 -47 554 -102 c 128,-1,29
 521 -157 521 -157 462 -188.5 c 128,-1,30
 403 -220 403 -220 329 -220 c 0,31,0
 244 -220 244 -220 179.5 -181.5 c 128,-1,1
170.5 192 m 128,-1,33
 193 151 193 151 233 127 c 128,-1,34
 273 103 273 103 322 103 c 0,35,36
 369 103 369 103 408.5 127 c 128,-1,37
 448 151 448 151 470.5 192 c 128,-1,38
 493 233 493 233 493 282 c 256,39,40
 493 331 493 331 470.5 372 c 128,-1,41
 448 413 448 413 408.5 437 c 128,-1,42
 369 461 369 461 322 461 c 0,43,44
 273 461 273 461 233.5 437 c 128,-1,45
 194 413 194 413 171 372 c 128,-1,46
 148 331 148 331 148 282 c 256,47,32
 148 233 148 233 170.5 192 c 128,-1,33
EndSplineSet
Validated: 1
Substitution2: "'ss03' Style Set 3 in Latin lookup 22 subtable" g.ss03
Substitution2: "'ss01' Style Set 1 in Latin lookup 20 subtable" g.ss01
Substitution2: "'salt' Stylistic Alternatives in Latin lookup 19 subtable" g.ss01
AlternateSubs2: "'aalt' Access All Alternates in Latin lookup 1 subtable" g.ss01 g.ss03
EndChar

StartChar: g.ss01
Encoding: 65703 -1 469
Width: 659
GlyphClass: 2
Flags: W
AnchorPoint: "Anchor-6" 329 539 basechar 0
AnchorPoint: "Anchor-4" 329 -240 basechar 0
LayerCount: 2
Fore
SplineSet
128 -131 m 1,0,-1
 493 -131 l 1,1,-1
 493 98 l 1,2,3
 463 57 463 57 416 35 c 128,-1,4
 369 13 369 13 314 13 c 0,5,6
 239 13 239 13 179 48.5 c 128,-1,7
 119 84 119 84 84.5 145.5 c 128,-1,8
 50 207 50 207 50 282 c 256,9,10
 50 357 50 357 84 418.5 c 128,-1,11
 118 480 118 480 178 515.5 c 128,-1,12
 238 551 238 551 313 551 c 0,13,14
 369 551 369 551 416 528.5 c 128,-1,15
 463 506 463 506 496 464 c 1,16,-1
 496 539 l 1,17,-1
 587 539 l 1,18,-1
 587 -220 l 1,19,-1
 128 -220 l 1,20,-1
 128 -131 l 1,0,-1
170.5 192 m 128,-1,22
 193 151 193 151 233 127 c 128,-1,23
 273 103 273 103 322 103 c 0,24,25
 369 103 369 103 408.5 127 c 128,-1,26
 448 151 448 151 470.5 192 c 128,-1,27
 493 233 493 233 493 282 c 256,28,29
 493 331 493 331 470.5 372 c 128,-1,30
 448 413 448 413 408.5 437 c 128,-1,31
 369 461 369 461 322 461 c 0,32,33
 273 461 273 461 233.5 437 c 128,-1,34
 194 413 194 413 171 372 c 128,-1,35
 148 331 148 331 148 282 c 256,36,21
 148 233 148 233 170.5 192 c 128,-1,22
EndSplineSet
Validated: 1
EndChar

StartChar: g.ss03
Encoding: 65704 -1 470
Width: 659
GlyphClass: 2
Flags: W
AnchorPoint: "Anchor-6" 329 539 basechar 0
AnchorPoint: "Anchor-4" 329 -240 basechar 0
LayerCount: 2
Fore
SplineSet
126 -131 m 1,0,-1
 333 -131 l 2,1,2
 406 -131 406 -131 449.5 -95 c 128,-1,3
 493 -59 493 -59 493 1 c 2,4,-1
 493 98 l 1,5,6
 463 57 463 57 416 35 c 128,-1,7
 369 13 369 13 314 13 c 0,8,9
 239 13 239 13 179 48.5 c 128,-1,10
 119 84 119 84 84.5 145.5 c 128,-1,11
 50 207 50 207 50 282 c 256,12,13
 50 357 50 357 84 418.5 c 128,-1,14
 118 480 118 480 178 515.5 c 128,-1,15
 238 551 238 551 313 551 c 0,16,17
 369 551 369 551 416 528.5 c 128,-1,18
 463 506 463 506 496 464 c 1,19,-1
 496 539 l 1,20,-1
 587 539 l 1,21,-1
 587 1 l 2,22,23
 587 -65 587 -65 556 -115 c 128,-1,24
 525 -165 525 -165 467.5 -192.5 c 128,-1,25
 410 -220 410 -220 333 -220 c 2,26,-1
 126 -220 l 1,27,-1
 126 -131 l 1,0,-1
170.5 192 m 128,-1,29
 193 151 193 151 233 127 c 128,-1,30
 273 103 273 103 322 103 c 0,31,32
 369 103 369 103 408.5 127 c 128,-1,33
 448 151 448 151 470.5 192 c 128,-1,34
 493 233 493 233 493 282 c 256,35,36
 493 331 493 331 470.5 372 c 128,-1,37
 448 413 448 413 408.5 437 c 128,-1,38
 369 461 369 461 322 461 c 0,39,40
 273 461 273 461 233.5 437 c 128,-1,41
 194 413 194 413 171 372 c 128,-1,42
 148 331 148 331 148 282 c 256,43,28
 148 233 148 233 170.5 192 c 128,-1,29
EndSplineSet
Validated: 1
EndChar

StartChar: h
Encoding: 104 104 489
Width: 580
GlyphClass: 2
Flags: W
AnchorPoint: "Anchor-6" 119 748 basechar 0
AnchorPoint: "Anchor-4" 290 0 basechar 0
LayerCount: 2
Fore
SplineSet
72 757 m 1,0,-1
 165 757 l 1,1,-1
 165 476 l 1,2,3
 189 512 189 512 228.5 531.5 c 128,-1,4
 268 551 268 551 317 551 c 0,5,6
 374 551 374 551 420 524.5 c 128,-1,7
 466 498 466 498 492.5 452 c 128,-1,8
 519 406 519 406 519 349 c 2,9,-1
 519 0 l 1,10,-1
 425 0 l 1,11,-1
 425 319 l 2,12,13
 425 385 425 385 389 423 c 128,-1,14
 353 461 353 461 296 461 c 256,15,16
 239 461 239 461 202 422.5 c 128,-1,17
 165 384 165 384 165 319 c 2,18,-1
 165 0 l 1,19,-1
 72 0 l 1,20,-1
 72 757 l 1,0,-1
EndSplineSet
Validated: 1
Substitution2: "'ss03' Style Set 3 in Latin lookup 22 subtable" h.ss03
Substitution2: "'ss01' Style Set 1 in Latin lookup 20 subtable" h.ss01
Substitution2: "'salt' Stylistic Alternatives in Latin lookup 19 subtable" h.ss01
AlternateSubs2: "'aalt' Access All Alternates in Latin lookup 1 subtable" h.ss01 h.ss03
EndChar

StartChar: h.ss01
Encoding: 65717 -1 490
Width: 580
GlyphClass: 2
Flags: W
AnchorPoint: "Anchor-6" 119 748 basechar 0
AnchorPoint: "Anchor-4" 290 0 basechar 0
LayerCount: 2
Fore
SplineSet
425 450 m 1,0,-1
 165 450 l 1,1,-1
 165 0 l 1,2,-1
 72 0 l 1,3,-1
 72 757 l 1,4,-1
 165 757 l 1,5,-1
 165 539 l 1,6,-1
 519 539 l 1,7,-1
 519 0 l 1,8,-1
 425 0 l 1,9,-1
 425 450 l 1,0,-1
EndSplineSet
Validated: 1
EndChar

StartChar: h.ss03
Encoding: 65718 -1 491
Width: 580
GlyphClass: 2
Flags: W
AnchorPoint: "Anchor-6" 119 748 basechar 0
AnchorPoint: "Anchor-4" 290 0 basechar 0
LayerCount: 2
Fore
SplineSet
72 757 m 1,0,-1
 165 757 l 1,1,-1
 165 539 l 1,2,-1
 300 539 l 2,3,4
 403 539 403 539 461 483 c 128,-1,5
 519 427 519 427 519 328 c 2,6,-1
 519 0 l 1,7,-1
 425 0 l 1,8,-1
 425 326 l 2,9,10
 425 384 425 384 391.5 417 c 128,-1,11
 358 450 358 450 300 450 c 2,12,-1
 165 450 l 1,13,-1
 165 0 l 1,14,-1
 72 0 l 1,15,-1
 72 757 l 1,0,-1
EndSplineSet
Validated: 1
EndChar

StartChar: hbar
Encoding: 295 295 492
Width: 580
GlyphClass: 2
Flags: W
AnchorPoint: "Anchor-6" 119 748 basechar 0
AnchorPoint: "Anchor-4" 290 0 basechar 0
LayerCount: 2
Fore
SplineSet
72 604 m 1,0,-1
 -19 604 l 1,1,-1
 -19 675 l 1,2,-1
 72 675 l 1,3,-1
 72 757 l 1,4,-1
 165 757 l 1,5,-1
 165 675 l 1,6,-1
 257 675 l 1,7,-1
 257 604 l 1,8,-1
 165 604 l 1,9,-1
 165 476 l 1,10,11
 189 512 189 512 228.5 531.5 c 128,-1,12
 268 551 268 551 317 551 c 0,13,14
 374 551 374 551 420 524.5 c 128,-1,15
 466 498 466 498 492.5 452 c 128,-1,16
 519 406 519 406 519 349 c 2,17,-1
 519 0 l 1,18,-1
 425 0 l 1,19,-1
 425 319 l 2,20,21
 425 385 425 385 389 423 c 128,-1,22
 353 461 353 461 296 461 c 256,23,24
 239 461 239 461 202 422.5 c 128,-1,25
 165 384 165 384 165 319 c 2,26,-1
 165 0 l 1,27,-1
 72 0 l 1,28,-1
 72 604 l 1,0,-1
EndSplineSet
Validated: 1
Substitution2: "'ss03' Style Set 3 in Latin lookup 22 subtable" hbar.ss03
Substitution2: "'ss01' Style Set 1 in Latin lookup 20 subtable" hbar.ss01
Substitution2: "'salt' Stylistic Alternatives in Latin lookup 19 subtable" hbar.ss01
AlternateSubs2: "'aalt' Access All Alternates in Latin lookup 1 subtable" hbar.ss01 hbar.ss03
EndChar

StartChar: hbar.ss01
Encoding: 65719 -1 493
Width: 580
GlyphClass: 2
Flags: W
AnchorPoint: "Anchor-6" 119 748 basechar 0
AnchorPoint: "Anchor-4" 290 0 basechar 0
LayerCount: 2
Fore
SplineSet
425 450 m 1,0,-1
 165 450 l 1,1,-1
 165 0 l 1,2,-1
 72 0 l 1,3,-1
 72 604 l 1,4,-1
 -19 604 l 1,5,-1
 -19 675 l 1,6,-1
 72 675 l 1,7,-1
 72 757 l 1,8,-1
 165 757 l 1,9,-1
 165 675 l 1,10,-1
 257 675 l 1,11,-1
 257 604 l 1,12,-1
 165 604 l 1,13,-1
 165 539 l 1,14,-1
 519 539 l 1,15,-1
 519 0 l 1,16,-1
 425 0 l 1,17,-1
 425 450 l 1,0,-1
EndSplineSet
Validated: 1
EndChar

StartChar: hbar.ss03
Encoding: 65720 -1 494
Width: 580
GlyphClass: 2
Flags: W
AnchorPoint: "Anchor-6" 119 748 basechar 0
AnchorPoint: "Anchor-4" 290 0 basechar 0
LayerCount: 2
Fore
SplineSet
72 604 m 1,0,-1
 -19 604 l 1,1,-1
 -19 675 l 1,2,-1
 72 675 l 1,3,-1
 72 757 l 1,4,-1
 165 757 l 1,5,-1
 165 675 l 1,6,-1
 257 675 l 1,7,-1
 257 604 l 1,8,-1
 165 604 l 1,9,-1
 165 539 l 1,10,-1
 300 539 l 2,11,12
 403 539 403 539 461 483 c 128,-1,13
 519 427 519 427 519 328 c 2,14,-1
 519 0 l 1,15,-1
 425 0 l 1,16,-1
 425 326 l 2,17,18
 425 384 425 384 391.5 417 c 128,-1,19
 358 450 358 450 300 450 c 2,20,-1
 165 450 l 1,21,-1
 165 0 l 1,22,-1
 72 0 l 1,23,-1
 72 604 l 1,0,-1
EndSplineSet
Validated: 1
EndChar

StartChar: i
Encoding: 105 105 504
Width: 237
GlyphClass: 2
Flags: W
AnchorPoint: "Anchor-4" 119 0 basechar 0
LayerCount: 2
Fore
SplineSet
72 539 m 1,0,-1
 165 539 l 1,1,-1
 165 0 l 1,2,-1
 72 0 l 1,3,-1
 72 539 l 1,0,-1
77 725 m 128,-1,5
 93 741 93 741 119 741 c 256,6,7
 145 741 145 741 161 725 c 128,-1,8
 177 709 177 709 177 683 c 256,9,10
 177 657 177 657 161 641 c 128,-1,11
 145 625 145 625 119 625 c 256,12,13
 93 625 93 625 77 641 c 128,-1,14
 61 657 61 657 61 683 c 256,15,4
 61 709 61 709 77 725 c 128,-1,5
EndSplineSet
Validated: 1
Substitution2: "Single Substitution lookup 25 subtable" dotlessi
Substitution2: "'ss01' Style Set 1 in Latin lookup 20 subtable" i.ss01
Substitution2: "'salt' Stylistic Alternatives in Latin lookup 19 subtable" i.ss01
Substitution2: "'locl' Localized Forms in Latin lookup 5 subtable" i.loclTRK
AlternateSubs2: "'aalt' Access All Alternates in Latin lookup 1 subtable" i.loclTRK i.ss01
EndChar

StartChar: i.ss01
Encoding: 65727 -1 505
Width: 280
GlyphClass: 2
Flags: W
AnchorPoint: "Anchor-4" 162 0 basechar 0
LayerCount: 2
Fore
SplineSet
115 450 m 1,0,-1
 36 450 l 1,1,-1
 36 539 l 1,2,-1
 209 539 l 1,3,-1
 209 0 l 1,4,-1
 115 0 l 1,5,-1
 115 450 l 1,0,-1
115 745 m 1,6,-1
 209 745 l 1,7,-1
 209 625 l 1,8,-1
 115 625 l 1,9,-1
 115 745 l 1,6,-1
EndSplineSet
Validated: 1
EndChar

StartChar: dotlessi
Encoding: 305 305 506
Width: 209
GlyphClass: 2
Flags: W
AnchorPoint: "Anchor-6" 104 539 basechar 0
AnchorPoint: "Anchor-5" 105 40 basechar 0
AnchorPoint: "Anchor-4" 104 0 basechar 0
LayerCount: 2
Fore
SplineSet
58 539 m 1,0,-1
 151 539 l 1,1,-1
 151 0 l 1,2,-1
 58 0 l 1,3,-1
 58 539 l 1,0,-1
EndSplineSet
Validated: 1
Substitution2: "'ss01' Style Set 1 in Latin lookup 20 subtable" dotlessi.ss01
Substitution2: "'salt' Stylistic Alternatives in Latin lookup 19 subtable" dotlessi.ss01
Substitution2: "'aalt' Access All Alternates in Latin lookup 0 subtable" dotlessi.ss01
EndChar

StartChar: dotlessi.ss01
Encoding: 65728 -1 507
Width: 259
GlyphClass: 2
Flags: W
AnchorPoint: "Anchor-6" 155 539 basechar 0
AnchorPoint: "Anchor-5" 155 40 basechar 0
AnchorPoint: "Anchor-4" 155 0 basechar 0
LayerCount: 2
Fore
SplineSet
108 450 m 1,0,-1
 29 450 l 1,1,-1
 29 539 l 1,2,-1
 201 539 l 1,3,-1
 201 0 l 1,4,-1
 108 0 l 1,5,-1
 108 450 l 1,0,-1
EndSplineSet
Validated: 1
EndChar

StartChar: iogonek
Encoding: 303 303 532
Width: 209
GlyphClass: 2
Flags: W
AnchorPoint: "Anchor-6" 104 539 basechar 0
AnchorPoint: "Anchor-5" 105 40 basechar 0
AnchorPoint: "Anchor-4" 104 0 basechar 0
LayerCount: 2
Fore
SplineSet
59 673.5 m 128,-1,1
 41 692 41 692 41 718 c 256,2,3
 41 744 41 744 59 762 c 128,-1,4
 77 780 77 780 104 780 c 0,5,6
 130 780 130 780 148 762 c 128,-1,7
 166 744 166 744 166 718 c 0,8,9
 166 691 166 691 148 673 c 128,-1,10
 130 655 130 655 104 655 c 0,11,0
 77 655 77 655 59 673.5 c 128,-1,1
-9.5 -16 m 128,-1,13
 15 14 15 14 58 31 c 1,14,-1
 58 539 l 1,15,-1
 151 539 l 1,16,-1
 151 0 l 1,17,-1
 80 0 l 1,18,19
 34 -29 34 -29 34 -66 c 0,20,21
 34 -88 34 -88 48.5 -100.5 c 128,-1,22
 63 -113 63 -113 88 -113 c 0,23,24
 124 -113 124 -113 164 -85 c 1,25,-1
 194 -133 l 1,26,27
 144 -175 144 -175 81 -175 c 0,28,29
 31 -175 31 -175 -1.5 -149.5 c 128,-1,30
 -34 -124 -34 -124 -34 -82 c 0,31,12
 -34 -46 -34 -46 -9.5 -16 c 128,-1,13
EndSplineSet
Validated: 1
Substitution2: "'ss01' Style Set 1 in Latin lookup 20 subtable" iogonek.ss01
Substitution2: "'salt' Stylistic Alternatives in Latin lookup 19 subtable" iogonek.ss01
Substitution2: "'aalt' Access All Alternates in Latin lookup 0 subtable" iogonek.ss01
EndChar

StartChar: iogonek.ss01
Encoding: 65742 -1 533
Width: 259
GlyphClass: 2
Flags: W
AnchorPoint: "Anchor-6" 155 539 basechar 0
AnchorPoint: "Anchor-5" 155 40 basechar 0
AnchorPoint: "Anchor-4" 155 0 basechar 0
LayerCount: 2
Fore
SplineSet
110 673.5 m 128,-1,1
 92 692 92 692 92 718 c 256,2,3
 92 744 92 744 110 762 c 128,-1,4
 128 780 128 780 155 780 c 0,5,6
 181 780 181 780 199 762 c 128,-1,7
 217 744 217 744 217 718 c 0,8,9
 217 691 217 691 199 673 c 128,-1,10
 181 655 181 655 155 655 c 0,11,0
 128 655 128 655 110 673.5 c 128,-1,1
41 -15.5 m 128,-1,13
 65 14 65 14 108 31 c 1,14,-1
 108 450 l 1,15,-1
 29 450 l 1,16,-1
 29 539 l 1,17,-1
 201 539 l 1,18,-1
 201 0 l 1,19,-1
 130 0 l 1,20,21
 84 -29 84 -29 84 -66 c 0,22,23
 84 -88 84 -88 98.5 -100.5 c 128,-1,24
 113 -113 113 -113 138 -113 c 0,25,26
 174 -113 174 -113 214 -85 c 1,27,-1
 244 -133 l 1,28,29
 194 -175 194 -175 131 -175 c 0,30,31
 81 -175 81 -175 49 -149.5 c 128,-1,32
 17 -124 17 -124 17 -82 c 0,33,12
 17 -45 17 -45 41 -15.5 c 128,-1,13
EndSplineSet
Validated: 1
EndChar

StartChar: j
Encoding: 106 106 536
Width: 237
GlyphClass: 1
Flags: W
LayerCount: 2
Fore
SplineSet
-64 -216 m 1,1,-1
 -64 -133 l 1,2,3
 -43 -136 -43 -136 -24 -136 c 0,4,5
 19 -136 19 -136 45.5 -112 c 128,-1,6
 72 -88 72 -88 72 -43 c 2,7,-1
 72 539 l 1,8,-1
 165 539 l 1,9,-1
 165 -43 l 2,10,11
 165 -127 165 -127 113 -174 c 128,-1,12
 61 -221 61 -221 -20 -221 c 0,13,0
 -46 -221 -46 -221 -64 -216 c 1,1,-1
77 725 m 128,-1,15
 93 741 93 741 119 741 c 256,16,17
 145 741 145 741 161 725 c 128,-1,18
 177 709 177 709 177 683 c 256,19,20
 177 657 177 657 161 641 c 128,-1,21
 145 625 145 625 119 625 c 256,22,23
 93 625 93 625 77 641 c 128,-1,24
 61 657 61 657 61 683 c 256,25,14
 61 709 61 709 77 725 c 128,-1,15
EndSplineSet
Validated: 1
Substitution2: "Single Substitution lookup 25 subtable" uni0237
Substitution2: "'ss02' Style Set 2 in Latin lookup 21 subtable" j.ss02
Substitution2: "'ss01' Style Set 1 in Latin lookup 20 subtable" j.ss01
Substitution2: "'salt' Stylistic Alternatives in Latin lookup 19 subtable" j.ss01
AlternateSubs2: "'aalt' Access All Alternates in Latin lookup 1 subtable" j.ss01 j.ss02
EndChar

StartChar: j.ss01
Encoding: 65744 -1 537
Width: 219
GlyphClass: 1
Flags: W
LayerCount: 2
Fore
SplineSet
-64 -136 m 1,0,-1
 54 -136 l 1,1,-1
 54 539 l 1,2,-1
 148 539 l 1,3,-1
 148 -221 l 1,4,-1
 -64 -221 l 1,5,-1
 -64 -136 l 1,0,-1
54 745 m 1,6,-1
 148 745 l 1,7,-1
 148 625 l 1,8,-1
 54 625 l 1,9,-1
 54 745 l 1,6,-1
EndSplineSet
Validated: 1
EndChar

StartChar: j.ss02
Encoding: 65745 -1 538
Width: 269
GlyphClass: 1
Flags: W
LayerCount: 2
Fore
SplineSet
-32 -216 m 1,1,-1
 -32 -133 l 1,2,3
 -13 -136 -13 -136 9 -136 c 0,4,5
 52 -136 52 -136 78 -112 c 128,-1,6
 104 -88 104 -88 104 -43 c 2,7,-1
 104 450 l 1,8,-1
 25 450 l 1,9,-1
 25 539 l 1,10,-1
 198 539 l 1,11,-1
 198 -43 l 2,12,13
 198 -127 198 -127 146 -174 c 128,-1,14
 94 -221 94 -221 12 -221 c 0,15,0
 -15 -221 -15 -221 -32 -216 c 1,1,-1
104 745 m 1,16,-1
 198 745 l 1,17,-1
 198 625 l 1,18,-1
 104 625 l 1,19,-1
 104 745 l 1,16,-1
EndSplineSet
Validated: 1
EndChar

StartChar: uni0237
Encoding: 567 567 539
Width: 237
GlyphClass: 2
Flags: W
AnchorPoint: "Anchor-6" 119 539 basechar 0
AnchorPoint: "Anchor-4" 119 -240 basechar 0
LayerCount: 2
Fore
SplineSet
-64 -216 m 1,1,-1
 -64 -133 l 1,2,3
 -43 -136 -43 -136 -24 -136 c 0,4,5
 19 -136 19 -136 45.5 -112 c 128,-1,6
 72 -88 72 -88 72 -43 c 2,7,-1
 72 539 l 1,8,-1
 165 539 l 1,9,-1
 165 -43 l 2,10,11
 165 -127 165 -127 113 -174 c 128,-1,12
 61 -221 61 -221 -20 -221 c 0,13,0
 -46 -221 -46 -221 -64 -216 c 1,1,-1
EndSplineSet
Validated: 1
Substitution2: "'ss02' Style Set 2 in Latin lookup 21 subtable" uni0237.ss02
Substitution2: "'ss01' Style Set 1 in Latin lookup 20 subtable" uni0237.ss01
Substitution2: "'salt' Stylistic Alternatives in Latin lookup 19 subtable" uni0237.ss01
AlternateSubs2: "'aalt' Access All Alternates in Latin lookup 1 subtable" uni0237.ss01 uni0237.ss02
EndChar

StartChar: uni0237.ss01
Encoding: 65746 -1 540
Width: 219
GlyphClass: 2
Flags: W
AnchorPoint: "Anchor-6" 101 539 basechar 0
AnchorPoint: "Anchor-4" 110 -240 basechar 0
LayerCount: 2
Fore
SplineSet
-64 -136 m 1,0,-1
 54 -136 l 1,1,-1
 54 539 l 1,2,-1
 148 539 l 1,3,-1
 148 -221 l 1,4,-1
 -64 -221 l 1,5,-1
 -64 -136 l 1,0,-1
EndSplineSet
Validated: 1
EndChar

StartChar: uni0237.ss02
Encoding: 65747 -1 541
Width: 279
GlyphClass: 2
Flags: W
AnchorPoint: "Anchor-6" 161 539 basechar 0
AnchorPoint: "Anchor-4" 161 -240 basechar 0
LayerCount: 2
Fore
SplineSet
-1 -219.5 m 128,-1,1
 -14 -218 -14 -218 -21 -216 c 1,2,-1
 -21 -133 l 1,3,4
 -2 -136 -2 -136 19 -136 c 0,5,6
 62 -136 62 -136 88 -112 c 128,-1,7
 114 -88 114 -88 114 -43 c 2,8,-1
 114 450 l 1,9,-1
 35 450 l 1,10,-1
 35 539 l 1,11,-1
 208 539 l 1,12,-1
 208 -43 l 2,13,14
 208 -127 208 -127 156 -174 c 128,-1,15
 104 -221 104 -221 22 -221 c 0,16,0
 12 -221 12 -221 -1 -219.5 c 128,-1,1
EndSplineSet
Validated: 1
EndChar

StartChar: k
Encoding: 107 107 545
Width: 558
GlyphClass: 2
Flags: W
AnchorPoint: "Anchor-6" 279 784 basechar 0
AnchorPoint: "Anchor-4" 279 0 basechar 0
LayerCount: 2
Fore
SplineSet
72 757 m 1,0,-1
 165 757 l 1,1,-1
 165 286 l 1,2,-1
 413 539 l 1,3,-1
 532 539 l 1,4,-1
 325 322 l 1,5,-1
 546 0 l 1,6,-1
 436 0 l 1,7,-1
 257 259 l 1,8,-1
 165 162 l 1,9,-1
 165 0 l 1,10,-1
 72 0 l 1,11,-1
 72 757 l 1,0,-1
EndSplineSet
Validated: 1
Substitution2: "'ss01' Style Set 1 in Latin lookup 20 subtable" k.ss01
Substitution2: "'salt' Stylistic Alternatives in Latin lookup 19 subtable" k.ss01
Substitution2: "'aalt' Access All Alternates in Latin lookup 0 subtable" k.ss01
EndChar

StartChar: k.ss01
Encoding: 65750 -1 546
Width: 558
GlyphClass: 1
Flags: W
LayerCount: 2
Fore
SplineSet
266 240 m 1,0,-1
 165 240 l 1,1,-1
 165 0 l 1,2,-1
 72 0 l 1,3,-1
 72 757 l 1,4,-1
 165 757 l 1,5,-1
 165 329 l 1,6,-1
 269 329 l 1,7,-1
 408 539 l 1,8,-1
 517 539 l 1,9,-1
 349 283 l 1,10,-1
 547 0 l 1,11,-1
 437 0 l 1,12,-1
 266 240 l 1,0,-1
EndSplineSet
Validated: 1
EndChar

StartChar: kgreenlandic
Encoding: 312 312 549
Width: 558
GlyphClass: 1
Flags: W
LayerCount: 2
Fore
SplineSet
266 240 m 1,0,-1
 165 240 l 1,1,-1
 165 0 l 1,2,-1
 72 0 l 1,3,-1
 72 539 l 1,4,-1
 165 539 l 1,5,-1
 165 329 l 1,6,-1
 269 329 l 1,7,-1
 408 539 l 1,8,-1
 517 539 l 1,9,-1
 349 283 l 1,10,-1
 547 0 l 1,11,-1
 437 0 l 1,12,-1
 266 240 l 1,0,-1
EndSplineSet
Validated: 1
EndChar

StartChar: l
Encoding: 108 108 550
Width: 237
GlyphClass: 2
Flags: W
AnchorPoint: "Anchor-7" 237 595 basechar 0
AnchorPoint: "Anchor-6" 119 745 basechar 0
AnchorPoint: "Anchor-4" 119 0 basechar 0
LayerCount: 2
Fore
SplineSet
72 757 m 1,0,-1
 165 757 l 1,1,-1
 165 0 l 1,2,-1
 72 0 l 1,3,-1
 72 757 l 1,0,-1
EndSplineSet
Validated: 1
Substitution2: "'ss03' Style Set 3 in Latin lookup 22 subtable" l.ss03
Substitution2: "'ss01' Style Set 1 in Latin lookup 20 subtable" l.ss01
Substitution2: "'salt' Stylistic Alternatives in Latin lookup 19 subtable" l.ss01
AlternateSubs2: "'aalt' Access All Alternates in Latin lookup 1 subtable" l.ss01 l.ss03
EndChar

StartChar: l.ss01
Encoding: 65752 -1 551
Width: 275
GlyphClass: 2
Flags: W
AnchorPoint: "Anchor-7" 237 595 basechar 0
AnchorPoint: "Anchor-6" 119 745 basechar 0
AnchorPoint: "Anchor-4" 119 0 basechar 0
LayerCount: 2
Fore
SplineSet
72 757 m 1,0,-1
 165 757 l 1,1,-1
 165 85 l 1,2,-1
 239 85 l 1,3,-1
 239 0 l 1,4,-1
 72 0 l 1,5,-1
 72 757 l 1,0,-1
EndSplineSet
Validated: 1
EndChar

StartChar: l.ss03
Encoding: 65753 -1 552
Width: 275
GlyphClass: 2
Flags: W
AnchorPoint: "Anchor-7" 237 595 basechar 0
AnchorPoint: "Anchor-6" 119 745 basechar 0
AnchorPoint: "Anchor-4" 119 0 basechar 0
LayerCount: 2
Fore
SplineSet
109.5 28 m 128,-1,1
 72 62 72 62 72 129 c 2,2,-1
 72 757 l 1,3,-1
 165 757 l 1,4,-1
 165 136 l 2,5,6
 165 106 165 106 182 90.5 c 128,-1,7
 199 75 199 75 231 75 c 2,8,-1
 239 75 l 1,9,-1
 239 -6 l 1,10,-1
 220 -6 l 2,11,0
 147 -6 147 -6 109.5 28 c 128,-1,1
EndSplineSet
Validated: 1
EndChar

StartChar: ldot
Encoding: 320 320 562
Width: 393
GlyphClass: 2
Flags: W
AnchorPoint: "Anchor-7" 237 595 basechar 0
AnchorPoint: "Anchor-6" 119 745 basechar 0
AnchorPoint: "Anchor-4" 119 0 basechar 0
LayerCount: 2
Fore
SplineSet
72 757 m 1,0,-1
 165 757 l 1,1,-1
 165 0 l 1,2,-1
 72 0 l 1,3,-1
 72 757 l 1,0,-1
250.5 417 m 128,-1,5
 269 435 269 435 295 435 c 256,6,7
 321 435 321 435 339 417 c 128,-1,8
 357 399 357 399 357 373 c 0,9,10
 357 346 357 346 339 328 c 128,-1,11
 321 310 321 310 295 310 c 256,12,13
 269 310 269 310 250.5 328 c 128,-1,14
 232 346 232 346 232 373 c 0,15,4
 232 399 232 399 250.5 417 c 128,-1,5
EndSplineSet
Validated: 1
Substitution2: "'ss03' Style Set 3 in Latin lookup 22 subtable" ldot.ss03
Substitution2: "'ss01' Style Set 1 in Latin lookup 20 subtable" ldot.ss01
Substitution2: "'salt' Stylistic Alternatives in Latin lookup 19 subtable" ldot.ss01
AlternateSubs2: "'aalt' Access All Alternates in Latin lookup 1 subtable" ldot.ss01 ldot.ss03
EndChar

StartChar: ldot.ss01
Encoding: 65760 -1 563
Width: 393
GlyphClass: 2
Flags: W
AnchorPoint: "Anchor-7" 237 595 basechar 0
AnchorPoint: "Anchor-6" 119 745 basechar 0
AnchorPoint: "Anchor-4" 119 0 basechar 0
LayerCount: 2
Fore
SplineSet
72 757 m 1,0,-1
 165 757 l 1,1,-1
 165 85 l 1,2,-1
 239 85 l 1,3,-1
 239 0 l 1,4,-1
 72 0 l 1,5,-1
 72 757 l 1,0,-1
250.5 417 m 128,-1,7
 269 435 269 435 295 435 c 256,8,9
 321 435 321 435 339 417 c 128,-1,10
 357 399 357 399 357 373 c 0,11,12
 357 346 357 346 339 328 c 128,-1,13
 321 310 321 310 295 310 c 256,14,15
 269 310 269 310 250.5 328 c 128,-1,16
 232 346 232 346 232 373 c 0,17,6
 232 399 232 399 250.5 417 c 128,-1,7
EndSplineSet
Validated: 1
EndChar

StartChar: ldot.ss03
Encoding: 65761 -1 564
Width: 393
GlyphClass: 2
Flags: W
AnchorPoint: "Anchor-7" 237 595 basechar 0
AnchorPoint: "Anchor-6" 119 745 basechar 0
AnchorPoint: "Anchor-4" 119 0 basechar 0
LayerCount: 2
Fore
SplineSet
109.5 28 m 128,-1,1
 72 62 72 62 72 129 c 2,2,-1
 72 757 l 1,3,-1
 165 757 l 1,4,-1
 165 136 l 2,5,6
 165 106 165 106 182 90.5 c 128,-1,7
 199 75 199 75 231 75 c 2,8,-1
 239 75 l 1,9,-1
 239 -6 l 1,10,-1
 220 -6 l 2,11,0
 147 -6 147 -6 109.5 28 c 128,-1,1
250.5 417 m 128,-1,13
 269 435 269 435 295 435 c 256,14,15
 321 435 321 435 339 417 c 128,-1,16
 357 399 357 399 357 373 c 0,17,18
 357 346 357 346 339 328 c 128,-1,19
 321 310 321 310 295 310 c 256,20,21
 269 310 269 310 250.5 328 c 128,-1,22
 232 346 232 346 232 373 c 0,23,12
 232 399 232 399 250.5 417 c 128,-1,13
EndSplineSet
Validated: 1
EndChar

StartChar: lslash
Encoding: 322 322 572
Width: 237
GlyphClass: 2
Flags: W
AnchorPoint: "Anchor-7" 237 595 basechar 0
AnchorPoint: "Anchor-6" 119 745 basechar 0
AnchorPoint: "Anchor-4" 119 0 basechar 0
LayerCount: 2
Fore
SplineSet
72 336 m 1,0,-1
 -13 304 l 1,1,-1
 -13 380 l 1,2,-1
 72 412 l 1,3,-1
 72 757 l 1,4,-1
 165 757 l 1,5,-1
 165 448 l 1,6,-1
 250 480 l 1,7,-1
 250 404 l 1,8,-1
 165 372 l 1,9,-1
 165 0 l 1,10,-1
 72 0 l 1,11,-1
 72 336 l 1,0,-1
EndSplineSet
Validated: 1
Substitution2: "'ss03' Style Set 3 in Latin lookup 22 subtable" lslash.ss03
Substitution2: "'ss01' Style Set 1 in Latin lookup 20 subtable" lslash.ss01
Substitution2: "'salt' Stylistic Alternatives in Latin lookup 19 subtable" lslash.ss01
AlternateSubs2: "'aalt' Access All Alternates in Latin lookup 1 subtable" lslash.ss01 lslash.ss03
EndChar

StartChar: lslash.ss01
Encoding: 65766 -1 573
Width: 275
GlyphClass: 2
Flags: W
AnchorPoint: "Anchor-7" 237 595 basechar 0
AnchorPoint: "Anchor-6" 119 745 basechar 0
AnchorPoint: "Anchor-4" 119 0 basechar 0
LayerCount: 2
Fore
SplineSet
72 336 m 1,0,-1
 -13 304 l 1,1,-1
 -13 380 l 1,2,-1
 72 412 l 1,3,-1
 72 757 l 1,4,-1
 165 757 l 1,5,-1
 165 448 l 1,6,-1
 250 480 l 1,7,-1
 250 404 l 1,8,-1
 165 372 l 1,9,-1
 165 85 l 1,10,-1
 239 85 l 1,11,-1
 239 0 l 1,12,-1
 72 0 l 1,13,-1
 72 336 l 1,0,-1
EndSplineSet
Validated: 1
EndChar

StartChar: lslash.ss03
Encoding: 65767 -1 574
Width: 275
GlyphClass: 2
Flags: W
AnchorPoint: "Anchor-7" 237 595 basechar 0
AnchorPoint: "Anchor-6" 119 745 basechar 0
AnchorPoint: "Anchor-4" 119 0 basechar 0
LayerCount: 2
Fore
SplineSet
109.5 28 m 128,-1,1
 72 62 72 62 72 129 c 2,2,-1
 72 336 l 1,3,-1
 -13 304 l 1,4,-1
 -13 380 l 1,5,-1
 72 412 l 1,6,-1
 72 757 l 1,7,-1
 165 757 l 1,8,-1
 165 448 l 1,9,-1
 250 480 l 1,10,-1
 250 404 l 1,11,-1
 165 372 l 1,12,-1
 165 136 l 2,13,14
 165 106 165 106 182 90.5 c 128,-1,15
 199 75 199 75 231 75 c 2,16,-1
 239 75 l 1,17,-1
 239 -6 l 1,18,-1
 220 -6 l 2,19,0
 147 -6 147 -6 109.5 28 c 128,-1,1
EndSplineSet
Validated: 1
EndChar

StartChar: m
Encoding: 109 109 575
Width: 913
GlyphClass: 2
Flags: W
AnchorPoint: "Anchor-6" 457 539 basechar 0
AnchorPoint: "Anchor-4" 457 0 basechar 0
LayerCount: 2
Fore
SplineSet
72 539 m 1,0,-1
 163 539 l 1,1,-1
 163 472 l 1,2,3
 186 510 186 510 225.5 530.5 c 128,-1,4
 265 551 265 551 313 551 c 0,5,6
 368 551 368 551 413.5 524.5 c 128,-1,7
 459 498 459 498 483 453 c 1,8,9
 509 500 509 500 553.5 525.5 c 128,-1,10
 598 551 598 551 652 551 c 0,11,12
 707 551 707 551 753 524.5 c 128,-1,13
 799 498 799 498 826 452 c 128,-1,14
 853 406 853 406 853 349 c 2,15,-1
 853 0 l 1,16,-1
 759 0 l 1,17,-1
 759 319 l 2,18,19
 759 385 759 385 724.5 423 c 128,-1,20
 690 461 690 461 635 461 c 0,21,22
 579 461 579 461 544 422.5 c 128,-1,23
 509 384 509 384 509 319 c 2,24,-1
 509 0 l 1,25,-1
 415 0 l 1,26,-1
 415 319 l 2,27,28
 415 385 415 385 381 423 c 128,-1,29
 347 461 347 461 291 461 c 0,30,31
 236 461 236 461 200.5 422.5 c 128,-1,32
 165 384 165 384 165 319 c 2,33,-1
 165 0 l 1,34,-1
 72 0 l 1,35,-1
 72 539 l 1,0,-1
EndSplineSet
Validated: 1
Substitution2: "'ss03' Style Set 3 in Latin lookup 22 subtable" m.ss03
Substitution2: "'ss01' Style Set 1 in Latin lookup 20 subtable" m.ss01
Substitution2: "'salt' Stylistic Alternatives in Latin lookup 19 subtable" m.ss01
AlternateSubs2: "'aalt' Access All Alternates in Latin lookup 1 subtable" m.ss01 m.ss03
EndChar

StartChar: m.ss01
Encoding: 65768 -1 576
Width: 913
GlyphClass: 1
Flags: W
LayerCount: 2
Fore
SplineSet
72 539 m 1,0,-1
 853 539 l 1,1,-1
 853 0 l 1,2,-1
 759 0 l 1,3,-1
 759 450 l 1,4,-1
 509 450 l 1,5,-1
 509 0 l 1,6,-1
 415 0 l 1,7,-1
 415 450 l 1,8,-1
 165 450 l 1,9,-1
 165 0 l 1,10,-1
 72 0 l 1,11,-1
 72 539 l 1,0,-1
EndSplineSet
Validated: 1
EndChar

StartChar: m.ss03
Encoding: 65769 -1 577
Width: 913
GlyphClass: 2
Flags: W
AnchorPoint: "Anchor-6" 457 539 basechar 0
AnchorPoint: "Anchor-4" 457 0 basechar 0
LayerCount: 2
Fore
SplineSet
72 539 m 1,0,-1
 634 539 l 2,1,2
 737 539 737 539 795 483 c 128,-1,3
 853 427 853 427 853 328 c 2,4,-1
 853 0 l 1,5,-1
 759 0 l 1,6,-1
 759 326 l 2,7,8
 759 384 759 384 725.5 417 c 128,-1,9
 692 450 692 450 634 450 c 2,10,-1
 509 450 l 1,11,-1
 509 0 l 1,12,-1
 415 0 l 1,13,-1
 415 450 l 1,14,-1
 165 450 l 1,15,-1
 165 0 l 1,16,-1
 72 0 l 1,17,-1
 72 539 l 1,0,-1
EndSplineSet
Validated: 1
EndChar

StartChar: n
Encoding: 110 110 581
Width: 580
GlyphClass: 2
Flags: W
AnchorPoint: "Anchor-6" 290 539 basechar 0
AnchorPoint: "Anchor-4" 290 0 basechar 0
LayerCount: 2
Fore
SplineSet
72 539 m 1,0,-1
 163 539 l 1,1,-1
 163 473 l 1,2,3
 187 511 187 511 227 531 c 128,-1,4
 267 551 267 551 317 551 c 0,5,6
 374 551 374 551 420 524.5 c 128,-1,7
 466 498 466 498 492.5 452 c 128,-1,8
 519 406 519 406 519 349 c 2,9,-1
 519 0 l 1,10,-1
 425 0 l 1,11,-1
 425 319 l 2,12,13
 425 385 425 385 389.5 423 c 128,-1,14
 354 461 354 461 296 461 c 256,15,16
 238 461 238 461 201.5 422.5 c 128,-1,17
 165 384 165 384 165 319 c 2,18,-1
 165 0 l 1,19,-1
 72 0 l 1,20,-1
 72 539 l 1,0,-1
EndSplineSet
Validated: 1
Substitution2: "'ss03' Style Set 3 in Latin lookup 22 subtable" n.ss03
Substitution2: "'ss01' Style Set 1 in Latin lookup 20 subtable" n.ss01
Substitution2: "'salt' Stylistic Alternatives in Latin lookup 19 subtable" n.ss01
AlternateSubs2: "'aalt' Access All Alternates in Latin lookup 1 subtable" n.ss01 n.ss03
EndChar

StartChar: n.ss01
Encoding: 65772 -1 582
Width: 591
GlyphClass: 2
Flags: W
AnchorPoint: "Anchor-6" 295 539 basechar 0
AnchorPoint: "Anchor-4" 295 0 basechar 0
LayerCount: 2
Fore
SplineSet
72 539 m 1,0,-1
 519 539 l 1,1,-1
 519 0 l 1,2,-1
 425 0 l 1,3,-1
 425 450 l 1,4,-1
 165 450 l 1,5,-1
 165 0 l 1,6,-1
 72 0 l 1,7,-1
 72 539 l 1,0,-1
EndSplineSet
Validated: 1
EndChar

StartChar: n.ss03
Encoding: 65773 -1 583
Width: 580
GlyphClass: 2
Flags: W
AnchorPoint: "Anchor-6" 290 539 basechar 0
AnchorPoint: "Anchor-4" 290 0 basechar 0
LayerCount: 2
Fore
SplineSet
72 539 m 1,0,-1
 300 539 l 2,1,2
 403 539 403 539 461 483 c 128,-1,3
 519 427 519 427 519 328 c 2,4,-1
 519 0 l 1,5,-1
 425 0 l 1,6,-1
 425 326 l 2,7,8
 425 384 425 384 391.5 417 c 128,-1,9
 358 450 358 450 300 450 c 2,10,-1
 165 450 l 1,11,-1
 165 0 l 1,12,-1
 72 0 l 1,13,-1
 72 539 l 1,0,-1
EndSplineSet
Validated: 1
EndChar

StartChar: eng
Encoding: 331 331 608
Width: 600
GlyphClass: 1
Flags: W
LayerCount: 2
Fore
SplineSet
280 -216 m 1,1,-1
 280 -133 l 1,2,3
 300 -136 300 -136 320 -136 c 0,4,5
 363 -136 363 -136 389 -112 c 128,-1,6
 415 -88 415 -88 415 -43 c 2,7,-1
 415 319 l 2,8,9
 415 385 415 385 379.5 423 c 128,-1,10
 344 461 344 461 286 461 c 256,11,12
 228 461 228 461 191.5 422.5 c 128,-1,13
 155 384 155 384 155 319 c 2,14,-1
 155 0 l 1,15,-1
 61 0 l 1,16,-1
 61 539 l 1,17,-1
 153 539 l 1,18,-1
 153 473 l 1,19,20
 176 510 176 510 216 530.5 c 128,-1,21
 256 551 256 551 306 551 c 0,22,23
 363 551 363 551 409.5 524.5 c 128,-1,24
 456 498 456 498 482.5 452 c 128,-1,25
 509 406 509 406 509 349 c 2,26,-1
 509 -43 l 2,27,28
 509 -127 509 -127 457 -174 c 128,-1,29
 405 -221 405 -221 324 -221 c 0,30,0
 298 -221 298 -221 280 -216 c 1,1,-1
EndSplineSet
Validated: 1
Substitution2: "'ss03' Style Set 3 in Latin lookup 22 subtable" eng.ss03
Substitution2: "'ss01' Style Set 1 in Latin lookup 20 subtable" eng.ss01
Substitution2: "'salt' Stylistic Alternatives in Latin lookup 19 subtable" eng.ss01
AlternateSubs2: "'aalt' Access All Alternates in Latin lookup 1 subtable" eng.ss01 eng.ss03
EndChar

StartChar: eng.ss01
Encoding: 65790 -1 609
Width: 580
GlyphClass: 1
Flags: W
LayerCount: 2
Fore
SplineSet
290 -216 m 1,1,-1
 290 -133 l 1,2,3
 311 -136 311 -136 330 -136 c 0,4,5
 373 -136 373 -136 399 -112 c 128,-1,6
 425 -88 425 -88 425 -43 c 2,7,-1
 425 450 l 1,8,-1
 165 450 l 1,9,-1
 165 0 l 1,10,-1
 72 0 l 1,11,-1
 72 539 l 1,12,-1
 519 539 l 1,13,-1
 519 -43 l 2,14,15
 519 -127 519 -127 467 -174 c 128,-1,16
 415 -221 415 -221 334 -221 c 0,17,0
 308 -221 308 -221 290 -216 c 1,1,-1
EndSplineSet
Validated: 1
EndChar

StartChar: eng.ss03
Encoding: 65791 -1 610
Width: 580
GlyphClass: 1
Flags: W
LayerCount: 2
Fore
SplineSet
290 -216 m 1,1,-1
 290 -133 l 1,2,3
 311 -136 311 -136 330 -136 c 0,4,5
 373 -136 373 -136 399 -112 c 128,-1,6
 425 -88 425 -88 425 -43 c 2,7,-1
 425 326 l 2,8,9
 425 384 425 384 391.5 417 c 128,-1,10
 358 450 358 450 300 450 c 2,11,-1
 165 450 l 1,12,-1
 165 0 l 1,13,-1
 72 0 l 1,14,-1
 72 539 l 1,15,-1
 300 539 l 2,16,17
 403 539 403 539 461 483 c 128,-1,18
 519 427 519 427 519 328 c 2,19,-1
 519 -43 l 2,20,21
 519 -127 519 -127 467 -174 c 128,-1,22
 415 -221 415 -221 334 -221 c 0,23,0
 308 -221 308 -221 290 -216 c 1,1,-1
EndSplineSet
Validated: 1
EndChar

StartChar: o
Encoding: 111 111 611
Width: 654
GlyphClass: 2
Flags: W
AnchorPoint: "Anchor-7" 634 539 basechar 0
AnchorPoint: "Anchor-6" 328 539 basechar 0
AnchorPoint: "Anchor-5" 365 40 basechar 0
AnchorPoint: "Anchor-4" 328 0 basechar 0
LayerCount: 2
Fore
SplineSet
187.5 24.5 m 128,-1,1
 124 61 124 61 87 125.5 c 128,-1,2
 50 190 50 190 50 270 c 0,3,4
 50 349 50 349 86.5 413.5 c 128,-1,5
 123 478 123 478 186.5 514.5 c 128,-1,6
 250 551 250 551 328 551 c 0,7,8
 405 551 405 551 468.5 514.5 c 128,-1,9
 532 478 532 478 568.5 414 c 128,-1,10
 605 350 605 350 605 270 c 0,11,12
 605 189 605 189 568 125 c 128,-1,13
 531 61 531 61 467.5 24.5 c 128,-1,14
 404 -12 404 -12 328 -12 c 0,15,0
 251 -12 251 -12 187.5 24.5 c 128,-1,1
171.5 172 m 128,-1,17
 195 128 195 128 236.5 103 c 128,-1,18
 278 78 278 78 328 78 c 0,19,20
 377 78 377 78 418 103 c 128,-1,21
 459 128 459 128 482.5 172 c 128,-1,22
 506 216 506 216 506 270 c 256,23,24
 506 324 506 324 482.5 367.5 c 128,-1,25
 459 411 459 411 418 436 c 128,-1,26
 377 461 377 461 328 461 c 0,27,28
 278 461 278 461 236.5 436 c 128,-1,29
 195 411 195 411 171.5 367.5 c 128,-1,30
 148 324 148 324 148 270 c 256,31,16
 148 216 148 216 171.5 172 c 128,-1,17
EndSplineSet
Validated: 1
Substitution2: "Single Substitution lookup 28 subtable" ordmasculine
Substitution2: "'aalt' Access All Alternates in Latin lookup 0 subtable" ordmasculine
EndChar

StartChar: ohorn
Encoding: 417 417 627
Width: 654
GlyphClass: 2
Flags: W
AnchorPoint: "Anchor-7" 634 539 basechar 0
AnchorPoint: "Anchor-6" 328 539 basechar 0
AnchorPoint: "Anchor-5" 365 40 basechar 0
AnchorPoint: "Anchor-4" 328 0 basechar 0
LayerCount: 2
Fore
SplineSet
187.5 24.5 m 128,-1,1
 124 61 124 61 87 125.5 c 128,-1,2
 50 190 50 190 50 270 c 0,3,4
 50 349 50 349 86.5 413.5 c 128,-1,5
 123 478 123 478 186.5 514.5 c 128,-1,6
 250 551 250 551 328 551 c 2,7,-1
 438 551 l 2,8,9
 460 551 460 551 474 561.5 c 128,-1,10
 488 572 488 572 488 603 c 0,11,12
 488 621 488 621 482.5 639 c 128,-1,13
 477 657 477 657 467 682 c 1,14,-1
 554 682 l 1,15,16
 566 655 566 655 571.5 636 c 128,-1,17
 577 617 577 617 577 594 c 0,18,19
 577 552 577 552 558.5 525.5 c 128,-1,20
 540 499 540 499 507 487 c 1,21,22
 553 449 553 449 579 393 c 128,-1,23
 605 337 605 337 605 270 c 0,24,25
 605 189 605 189 568 125 c 128,-1,26
 531 61 531 61 467.5 24.5 c 128,-1,27
 404 -12 404 -12 328 -12 c 0,28,0
 251 -12 251 -12 187.5 24.5 c 128,-1,1
171.5 172 m 128,-1,30
 195 128 195 128 236.5 103 c 128,-1,31
 278 78 278 78 328 78 c 0,32,33
 377 78 377 78 418 103 c 128,-1,34
 459 128 459 128 482.5 172 c 128,-1,35
 506 216 506 216 506 270 c 256,36,37
 506 324 506 324 482.5 367.5 c 128,-1,38
 459 411 459 411 418 436 c 128,-1,39
 377 461 377 461 328 461 c 0,40,41
 278 461 278 461 236.5 436 c 128,-1,42
 195 411 195 411 171.5 367.5 c 128,-1,43
 148 324 148 324 148 270 c 256,44,29
 148 216 148 216 171.5 172 c 128,-1,30
EndSplineSet
Validated: 1
EndChar

StartChar: uni01EB
Encoding: 491 491 638
Width: 654
GlyphClass: 2
Flags: W
AnchorPoint: "Anchor-7" 634 539 basechar 0
AnchorPoint: "Anchor-6" 328 539 basechar 0
AnchorPoint: "Anchor-5" 365 40 basechar 0
AnchorPoint: "Anchor-4" 328 0 basechar 0
LayerCount: 2
Fore
SplineSet
323 -12 m 1,0,1
 294 -37 294 -37 294 -66 c 0,2,3
 294 -88 294 -88 308.5 -100.5 c 128,-1,4
 323 -113 323 -113 348 -113 c 0,5,6
 384 -113 384 -113 424 -85 c 1,7,-1
 454 -133 l 1,8,9
 404 -175 404 -175 341 -175 c 0,10,11
 291 -175 291 -175 259 -149.5 c 128,-1,12
 227 -124 227 -124 227 -82 c 0,13,14
 227 -37 227 -37 262 -4 c 1,15,16
 201 10 201 10 152.5 48.5 c 128,-1,17
 104 87 104 87 77 144.5 c 128,-1,18
 50 202 50 202 50 270 c 0,19,20
 50 349 50 349 86.5 413.5 c 128,-1,21
 123 478 123 478 186.5 514.5 c 128,-1,22
 250 551 250 551 328 551 c 0,23,24
 405 551 405 551 468.5 514.5 c 128,-1,25
 532 478 532 478 568.5 414 c 128,-1,26
 605 350 605 350 605 270 c 0,27,28
 605 189 605 189 568 125 c 128,-1,29
 531 61 531 61 467.5 24.5 c 128,-1,30
 404 -12 404 -12 328 -12 c 2,31,-1
 323 -12 l 1,0,1
171.5 172 m 128,-1,33
 195 128 195 128 236.5 103 c 128,-1,34
 278 78 278 78 328 78 c 0,35,36
 377 78 377 78 418 103 c 128,-1,37
 459 128 459 128 482.5 172 c 128,-1,38
 506 216 506 216 506 270 c 256,39,40
 506 324 506 324 482.5 367.5 c 128,-1,41
 459 411 459 411 418 436 c 128,-1,42
 377 461 377 461 328 461 c 0,43,44
 278 461 278 461 236.5 436 c 128,-1,45
 195 411 195 411 171.5 367.5 c 128,-1,46
 148 324 148 324 148 270 c 256,47,32
 148 216 148 216 171.5 172 c 128,-1,33
EndSplineSet
Validated: 1
EndChar

StartChar: oslash
Encoding: 248 248 639
Width: 654
GlyphClass: 2
Flags: W
AnchorPoint: "Anchor-7" 634 539 basechar 0
AnchorPoint: "Anchor-6" 328 539 basechar 0
AnchorPoint: "Anchor-5" 365 40 basechar 0
AnchorPoint: "Anchor-4" 328 0 basechar 0
LayerCount: 2
Fore
SplineSet
179 29 m 1,1,-1
 155 0 l 1,2,-1
 54 0 l 1,3,-1
 120 80 l 1,4,5
 86 117 86 117 68 166 c 128,-1,6
 50 215 50 215 50 270 c 0,7,8
 50 349 50 349 86.5 413.5 c 128,-1,9
 123 478 123 478 186.5 514.5 c 128,-1,10
 250 551 250 551 328 551 c 0,11,12
 410 551 410 551 476 510 c 1,13,-1
 500 539 l 1,14,-1
 601 539 l 1,15,-1
 536 460 l 1,16,17
 569 423 569 423 587 374 c 128,-1,18
 605 325 605 325 605 270 c 0,19,20
 605 189 605 189 568 125 c 128,-1,21
 531 61 531 61 467.5 24.5 c 128,-1,22
 404 -12 404 -12 328 -12 c 0,23,0
 247 -12 247 -12 179 29 c 1,1,-1
182 155 m 1,25,-1
 416 437 l 1,26,27
 377 461 377 461 328 461 c 0,28,29
 278 461 278 461 236.5 436 c 128,-1,30
 195 411 195 411 171.5 367.5 c 128,-1,31
 148 324 148 324 148 270 c 0,32,24
 148 205 148 205 182 155 c 1,25,-1
328 78 m 0,34,35
 377 78 377 78 418 103 c 128,-1,36
 459 128 459 128 482.5 172 c 128,-1,37
 506 216 506 216 506 270 c 0,38,39
 506 334 506 334 473 384 c 1,40,-1
 239 102 l 1,41,33
 278 78 278 78 328 78 c 0,34,35
EndSplineSet
Validated: 1
EndChar

StartChar: oe
Encoding: 339 339 645
Width: 1075
GlyphClass: 1
Flags: W
LayerCount: 2
Fore
SplineSet
187.5 24.5 m 128,-1,1
 124 61 124 61 87 125.5 c 128,-1,2
 50 190 50 190 50 270 c 0,3,4
 50 349 50 349 86.5 413.5 c 128,-1,5
 123 478 123 478 186.5 514.5 c 128,-1,6
 250 551 250 551 328 551 c 0,7,8
 399 551 399 551 459 519.5 c 128,-1,9
 519 488 519 488 556 432 c 1,10,11
 591 488 591 488 648 519.5 c 128,-1,12
 705 551 705 551 773 551 c 0,13,14
 850 551 850 551 907.5 515 c 128,-1,15
 965 479 965 479 995.5 419.5 c 128,-1,16
 1026 360 1026 360 1026 292 c 0,17,18
 1026 269 1026 269 1021 242 c 1,19,-1
 609 242 l 1,20,21
 611 191 611 191 635 153 c 128,-1,22
 659 115 659 115 697.5 94 c 128,-1,23
 736 73 736 73 782 73 c 0,24,25
 880 73 880 73 933 162 c 1,26,-1
 1011 122 l 1,27,28
 985 64 985 64 923 26 c 128,-1,29
 861 -12 861 -12 781 -12 c 0,30,31
 710 -12 710 -12 651.5 20.5 c 128,-1,32
 593 53 593 53 557 109 c 1,33,34
 519 52 519 52 458.5 20 c 128,-1,35
 398 -12 398 -12 328 -12 c 0,36,0
 251 -12 251 -12 187.5 24.5 c 128,-1,1
171.5 172 m 128,-1,38
 195 128 195 128 236.5 103 c 128,-1,39
 278 78 278 78 328 78 c 0,40,41
 377 78 377 78 418 103 c 128,-1,42
 459 128 459 128 482.5 172 c 128,-1,43
 506 216 506 216 506 270 c 256,44,45
 506 324 506 324 482.5 367.5 c 128,-1,46
 459 411 459 411 418 436 c 128,-1,47
 377 461 377 461 328 461 c 0,48,49
 278 461 278 461 236.5 436 c 128,-1,50
 195 411 195 411 171.5 367.5 c 128,-1,51
 148 324 148 324 148 270 c 256,52,37
 148 216 148 216 171.5 172 c 128,-1,38
925 322 m 1,53,54
 925 364 925 364 904 397 c 128,-1,55
 883 430 883 430 848.5 449 c 128,-1,56
 814 468 814 468 773 468 c 0,57,58
 712 468 712 468 666 428 c 128,-1,59
 620 388 620 388 611 322 c 1,60,-1
 925 322 l 1,53,54
EndSplineSet
Validated: 1
EndChar

StartChar: p
Encoding: 112 112 646
Width: 669
GlyphClass: 2
Flags: W
AnchorPoint: "Anchor-6" 335 539 basechar 0
AnchorPoint: "Anchor-4" 335 0 basechar 0
LayerCount: 2
Fore
SplineSet
72 539 m 1,0,-1
 163 539 l 1,1,-1
 163 464 l 1,2,3
 195 505 195 505 243.5 528 c 128,-1,4
 292 551 292 551 352 551 c 0,5,6
 427 551 427 551 488 514 c 128,-1,7
 549 477 549 477 584 412.5 c 128,-1,8
 619 348 619 348 619 269 c 256,9,10
 619 190 619 190 584 126 c 128,-1,11
 549 62 549 62 488 25 c 128,-1,12
 427 -12 427 -12 351 -12 c 0,13,14
 293 -12 293 -12 244.5 10.5 c 128,-1,15
 196 33 196 33 165 75 c 1,16,-1
 165 -200 l 1,17,-1
 72 -200 l 1,18,-1
 72 539 l 1,0,-1
188.5 171.5 m 128,-1,20
 212 128 212 128 253 103 c 128,-1,21
 294 78 294 78 344 78 c 256,22,23
 394 78 394 78 434.5 103 c 128,-1,24
 475 128 475 128 497.5 171.5 c 128,-1,25
 520 215 520 215 520 269 c 256,26,27
 520 323 520 323 497 367 c 128,-1,28
 474 411 474 411 434 436 c 128,-1,29
 394 461 394 461 344 461 c 256,30,31
 294 461 294 461 253 436 c 128,-1,32
 212 411 212 411 188.5 367 c 128,-1,33
 165 323 165 323 165 269 c 256,34,19
 165 215 165 215 188.5 171.5 c 128,-1,20
EndSplineSet
Validated: 1
Substitution2: "'ss02' Style Set 2 in Latin lookup 21 subtable" p.ss02
Substitution2: "'aalt' Access All Alternates in Latin lookup 0 subtable" p.ss02
EndChar

StartChar: p.ss02
Encoding: 65792 -1 647
Width: 707
GlyphClass: 1
Flags: W
LayerCount: 2
Fore
SplineSet
110 454 m 1,0,-1
 36 454 l 1,1,-1
 36 539 l 1,2,-1
 201 539 l 1,3,-1
 201 463 l 1,4,5
 233 505 233 505 281.5 528 c 128,-1,6
 330 551 330 551 390 551 c 0,7,8
 465 551 465 551 526 514 c 128,-1,9
 587 477 587 477 622 412.5 c 128,-1,10
 657 348 657 348 657 269 c 256,11,12
 657 190 657 190 622 126 c 128,-1,13
 587 62 587 62 526 25 c 128,-1,14
 465 -12 465 -12 390 -12 c 0,15,16
 332 -12 332 -12 283 10.5 c 128,-1,17
 234 33 234 33 204 75 c 1,18,-1
 204 -200 l 1,19,-1
 110 -200 l 1,20,-1
 110 454 l 1,0,-1
227.5 171.5 m 128,-1,22
 251 128 251 128 291.5 103 c 128,-1,23
 332 78 332 78 382 78 c 256,24,25
 432 78 432 78 472.5 103 c 128,-1,26
 513 128 513 128 536 171.5 c 128,-1,27
 559 215 559 215 559 269 c 256,28,29
 559 323 559 323 536 367 c 128,-1,30
 513 411 513 411 472.5 436 c 128,-1,31
 432 461 432 461 382 461 c 256,32,33
 332 461 332 461 291.5 436 c 128,-1,34
 251 411 251 411 227.5 367 c 128,-1,35
 204 323 204 323 204 269 c 256,36,21
 204 215 204 215 227.5 171.5 c 128,-1,22
EndSplineSet
Validated: 1
EndChar

StartChar: thorn
Encoding: 254 254 648
Width: 669
GlyphClass: 1
Flags: W
LayerCount: 2
Fore
SplineSet
72 745 m 1,0,-1
 163 745 l 1,1,-1
 163 464 l 1,2,3
 195 505 195 505 243.5 528 c 128,-1,4
 292 551 292 551 352 551 c 0,5,6
 427 551 427 551 488 514 c 128,-1,7
 549 477 549 477 584 412.5 c 128,-1,8
 619 348 619 348 619 269 c 256,9,10
 619 190 619 190 584 126 c 128,-1,11
 549 62 549 62 488 25 c 128,-1,12
 427 -12 427 -12 351 -12 c 0,13,14
 293 -12 293 -12 244.5 10.5 c 128,-1,15
 196 33 196 33 165 75 c 1,16,-1
 165 -200 l 1,17,-1
 72 -200 l 1,18,-1
 72 745 l 1,0,-1
188.5 171.5 m 128,-1,20
 212 128 212 128 253 103 c 128,-1,21
 294 78 294 78 344 78 c 256,22,23
 394 78 394 78 434.5 103 c 128,-1,24
 475 128 475 128 497.5 171.5 c 128,-1,25
 520 215 520 215 520 269 c 256,26,27
 520 323 520 323 497 367 c 128,-1,28
 474 411 474 411 434 436 c 128,-1,29
 394 461 394 461 344 461 c 256,30,31
 294 461 294 461 253 436 c 128,-1,32
 212 411 212 411 188.5 367 c 128,-1,33
 165 323 165 323 165 269 c 256,34,19
 165 215 165 215 188.5 171.5 c 128,-1,20
EndSplineSet
Validated: 1
EndChar

StartChar: q
Encoding: 113 113 649
Width: 669
GlyphClass: 2
Flags: W
AnchorPoint: "Anchor-6" 335 539 basechar 0
AnchorPoint: "Anchor-4" 335 0 basechar 0
LayerCount: 2
Fore
SplineSet
503 75 m 1,0,1
 473 33 473 33 424 10.5 c 128,-1,2
 375 -12 375 -12 317 -12 c 0,3,4
 242 -12 242 -12 181 25 c 128,-1,5
 120 62 120 62 85 126 c 128,-1,6
 50 190 50 190 50 269 c 256,7,8
 50 348 50 348 85 412.5 c 128,-1,9
 120 477 120 477 181 514 c 128,-1,10
 242 551 242 551 317 551 c 0,11,12
 377 551 377 551 425.5 528 c 128,-1,13
 474 505 474 505 506 464 c 1,14,-1
 506 539 l 1,15,-1
 597 539 l 1,16,-1
 597 -200 l 1,17,-1
 503 -200 l 1,18,-1
 503 75 l 1,0,1
171 171.5 m 128,-1,20
 194 128 194 128 234.5 103 c 128,-1,21
 275 78 275 78 325 78 c 256,22,23
 375 78 375 78 415.5 103 c 128,-1,24
 456 128 456 128 479.5 171.5 c 128,-1,25
 503 215 503 215 503 269 c 256,26,27
 503 323 503 323 479.5 367 c 128,-1,28
 456 411 456 411 415.5 436 c 128,-1,29
 375 461 375 461 325 461 c 256,30,31
 275 461 275 461 234.5 436 c 128,-1,32
 194 411 194 411 171 367 c 128,-1,33
 148 323 148 323 148 269 c 256,34,19
 148 215 148 215 171 171.5 c 128,-1,20
EndSplineSet
Validated: 1
Substitution2: "'ss02' Style Set 2 in Latin lookup 21 subtable" q.ss02
Substitution2: "'aalt' Access All Alternates in Latin lookup 0 subtable" q.ss02
EndChar

StartChar: q.ss02
Encoding: 65793 -1 650
Width: 707
GlyphClass: 1
Flags: W
LayerCount: 2
Fore
SplineSet
503 75 m 1,0,1
 473 33 473 33 424 10.5 c 128,-1,2
 375 -12 375 -12 317 -12 c 0,3,4
 242 -12 242 -12 181 25 c 128,-1,5
 120 62 120 62 85 126 c 128,-1,6
 50 190 50 190 50 269 c 256,7,8
 50 348 50 348 85 412.5 c 128,-1,9
 120 477 120 477 181 514 c 128,-1,10
 242 551 242 551 317 551 c 0,11,12
 377 551 377 551 425.5 528 c 128,-1,13
 474 505 474 505 506 463 c 1,14,-1
 506 539 l 1,15,-1
 671 539 l 1,16,-1
 671 454 l 1,17,-1
 597 454 l 1,18,-1
 597 -200 l 1,19,-1
 503 -200 l 1,20,-1
 503 75 l 1,0,1
171 171.5 m 128,-1,22
 194 128 194 128 234.5 103 c 128,-1,23
 275 78 275 78 325 78 c 256,24,25
 375 78 375 78 415.5 103 c 128,-1,26
 456 128 456 128 479.5 171.5 c 128,-1,27
 503 215 503 215 503 269 c 256,28,29
 503 323 503 323 479.5 367 c 128,-1,30
 456 411 456 411 415.5 436 c 128,-1,31
 375 461 375 461 325 461 c 256,32,33
 275 461 275 461 234.5 436 c 128,-1,34
 194 411 194 411 171 367 c 128,-1,35
 148 323 148 323 148 269 c 256,36,21
 148 215 148 215 171 171.5 c 128,-1,22
EndSplineSet
Validated: 1
EndChar

StartChar: r
Encoding: 114 114 651
Width: 350
GlyphClass: 2
Flags: W
AnchorPoint: "Anchor-6" 205 539 basechar 0
AnchorPoint: "Anchor-4" 119 0 basechar 0
LayerCount: 2
Fore
SplineSet
72 539 m 1,0,-1
 163 539 l 1,1,-1
 163 475 l 1,2,3
 205 545 205 545 306 545 c 2,4,-1
 339 545 l 1,5,-1
 339 457 l 1,6,-1
 292 457 l 2,7,8
 234 457 234 457 199.5 421 c 128,-1,9
 165 385 165 385 165 321 c 2,10,-1
 165 0 l 1,11,-1
 72 0 l 1,12,-1
 72 539 l 1,0,-1
EndSplineSet
Validated: 1
Substitution2: "'ss02' Style Set 2 in Latin lookup 21 subtable" r.ss02
Substitution2: "'ss01' Style Set 1 in Latin lookup 20 subtable" r.ss01
Substitution2: "'salt' Stylistic Alternatives in Latin lookup 19 subtable" r.ss01
AlternateSubs2: "'aalt' Access All Alternates in Latin lookup 1 subtable" r.ss01 r.ss02
EndChar

StartChar: r.ss01
Encoding: 65794 -1 652
Width: 358
GlyphClass: 2
Flags: W
AnchorPoint: "Anchor-6" 205 539 basechar 0
AnchorPoint: "Anchor-4" 119 0 basechar 0
LayerCount: 2
Fore
SplineSet
72 539 m 1,0,-1
 347 539 l 1,1,-1
 347 450 l 1,2,-1
 165 450 l 1,3,-1
 165 0 l 1,4,-1
 72 0 l 1,5,-1
 72 539 l 1,0,-1
EndSplineSet
Validated: 1
EndChar

StartChar: r.ss02
Encoding: 65795 -1 653
Width: 394
GlyphClass: 2
Flags: W
AnchorPoint: "Anchor-6" 210 539 basechar 0
AnchorPoint: "Anchor-4" 172 0 basechar 0
LayerCount: 2
Fore
SplineSet
36 89 m 1,0,-1
 115 89 l 1,1,-1
 115 450 l 1,2,-1
 36 450 l 1,3,-1
 36 539 l 1,4,-1
 206 539 l 1,5,-1
 206 475 l 1,6,7
 248 545 248 545 349 545 c 2,8,-1
 383 545 l 1,9,-1
 383 457 l 1,10,-1
 336 457 l 2,11,12
 278 457 278 457 243.5 421 c 128,-1,13
 209 385 209 385 209 321 c 2,14,-1
 209 89 l 1,15,-1
 308 89 l 1,16,-1
 308 0 l 1,17,-1
 36 0 l 1,18,-1
 36 89 l 1,0,-1
EndSplineSet
Validated: 1
EndChar

StartChar: s
Encoding: 115 115 675
Width: 511
GlyphClass: 2
Flags: W
AnchorPoint: "Anchor-6" 256 539 basechar 0
AnchorPoint: "Anchor-4" 256 0 basechar 0
LayerCount: 2
Fore
SplineSet
127 26.5 m 128,-1,1
 67 65 67 65 41 131 c 1,2,-1
 116 169 l 1,3,4
 139 122 139 122 179 95 c 128,-1,5
 219 68 219 68 266 68 c 0,6,7
 311 68 311 68 340 89 c 128,-1,8
 369 110 369 110 369 144 c 0,9,10
 369 177 369 177 343 197.5 c 128,-1,11
 317 218 317 218 287 222 c 2,12,-1
 206 233 l 1,13,14
 134 251 134 251 98 293 c 128,-1,15
 62 335 62 335 62 392 c 0,16,17
 62 439 62 439 86.5 475 c 128,-1,18
 111 511 111 511 154.5 531 c 128,-1,19
 198 551 198 551 251 551 c 0,20,21
 321 551 321 551 376.5 516 c 128,-1,22
 432 481 432 481 456 419 c 1,23,-1
 382 381 l 1,24,25
 362 422 362 422 326.5 446 c 128,-1,26
 291 470 291 470 248 470 c 0,27,28
 207 470 207 470 182 450 c 128,-1,29
 157 430 157 430 157 398 c 0,30,31
 157 365 157 365 180.5 345.5 c 128,-1,32
 204 326 204 326 232 321 c 2,33,-1
 321 309 l 1,34,35
 388 291 388 291 425.5 247.5 c 128,-1,36
 463 204 463 204 463 147 c 0,37,38
 463 101 463 101 438 65 c 128,-1,39
 413 29 413 29 368 8.5 c 128,-1,40
 323 -12 323 -12 265 -12 c 0,41,0
 187 -12 187 -12 127 26.5 c 128,-1,1
EndSplineSet
Validated: 1
EndChar

StartChar: scedilla
Encoding: 351 351 680
Width: 511
GlyphClass: 2
Flags: W
AnchorPoint: "Anchor-4" 256 0 basechar 0
LayerCount: 2
Fore
SplineSet
223 -226 m 128,-1,1
 201 -222 201 -222 186 -216 c 1,2,-1
 198 -166 l 1,3,4
 225 -176 225 -176 258 -176 c 0,5,6
 281 -176 281 -176 294 -166 c 128,-1,7
 307 -156 307 -156 307 -139 c 0,8,9
 307 -124 307 -124 298 -116 c 128,-1,10
 289 -108 289 -108 272 -108 c 0,11,12
 248 -108 248 -108 232 -116 c 1,13,-1
 211 -107 l 1,14,-1
 223 -9 l 1,15,16
 159 1 159 1 111 37.5 c 128,-1,17
 63 74 63 74 41 131 c 1,18,-1
 116 169 l 1,19,20
 139 122 139 122 179 95 c 128,-1,21
 219 68 219 68 266 68 c 0,22,23
 311 68 311 68 340 89 c 128,-1,24
 369 110 369 110 369 144 c 0,25,26
 369 177 369 177 343 197.5 c 128,-1,27
 317 218 317 218 287 222 c 2,28,-1
 206 233 l 1,29,30
 134 251 134 251 98 293 c 128,-1,31
 62 335 62 335 62 392 c 0,32,33
 62 439 62 439 86.5 475 c 128,-1,34
 111 511 111 511 154.5 531 c 128,-1,35
 198 551 198 551 251 551 c 0,36,37
 321 551 321 551 376.5 516 c 128,-1,38
 432 481 432 481 456 419 c 1,39,-1
 382 381 l 1,40,41
 362 422 362 422 326.5 446 c 128,-1,42
 291 470 291 470 248 470 c 0,43,44
 207 470 207 470 182 450 c 128,-1,45
 157 430 157 430 157 398 c 0,46,47
 157 365 157 365 180.5 345.5 c 128,-1,48
 204 326 204 326 232 321 c 2,49,-1
 321 309 l 1,50,51
 388 291 388 291 425.5 247.5 c 128,-1,52
 463 204 463 204 463 147 c 0,53,54
 463 82 463 82 414.5 38.5 c 128,-1,55
 366 -5 366 -5 286 -11 c 1,56,-1
 281 -62 l 1,57,58
 293 -60 293 -60 300 -60 c 0,59,60
 336 -60 336 -60 359.5 -81 c 128,-1,61
 383 -102 383 -102 383 -136 c 0,62,63
 383 -177 383 -177 351.5 -203.5 c 128,-1,64
 320 -230 320 -230 264 -230 c 0,65,0
 245 -230 245 -230 223 -226 c 128,-1,1
EndSplineSet
Validated: 1
Substitution2: "'locl' Localized Forms in Latin lookup 6 subtable" uni0219
Substitution2: "'aalt' Access All Alternates in Latin lookup 0 subtable" uni0219
EndChar

StartChar: germandbls
Encoding: 223 223 686
Width: 616
GlyphClass: 1
Flags: W
LayerCount: 2
Fore
SplineSet
113 649 m 128,-1,1
 143 701 143 701 195.5 729 c 128,-1,2
 248 757 248 757 314 757 c 0,3,4
 379 757 379 757 429.5 732.5 c 128,-1,5
 480 708 480 708 508 663 c 128,-1,6
 536 618 536 618 536 559 c 0,7,8
 536 506 536 506 513.5 464 c 128,-1,9
 491 422 491 422 451 399 c 1,10,11
 509 371 509 371 537.5 327 c 128,-1,12
 566 283 566 283 566 219 c 0,13,14
 566 153 566 153 536.5 103.5 c 128,-1,15
 507 54 507 54 452.5 27 c 128,-1,16
 398 0 398 0 326 0 c 2,17,-1
 264 0 l 1,18,-1
 264 85 l 1,19,-1
 323 85 l 2,20,21
 388 85 388 85 428 122 c 128,-1,22
 468 159 468 159 468 219 c 0,23,24
 468 280 468 280 428 316.5 c 128,-1,25
 388 353 388 353 323 353 c 2,26,-1
 264 353 l 1,27,-1
 264 438 l 1,28,-1
 316 438 l 2,29,30
 369 438 369 438 403 471.5 c 128,-1,31
 437 505 437 505 437 556 c 0,32,33
 437 608 437 608 403 640 c 128,-1,34
 369 672 369 672 314 672 c 0,35,36
 252 672 252 672 214 633 c 128,-1,37
 176 594 176 594 176 528 c 2,38,-1
 176 -153 l 1,39,-1
 83 -153 l 1,40,-1
 83 528 l 2,41,0
 83 597 83 597 113 649 c 128,-1,1
EndSplineSet
Validated: 1
EndChar

StartChar: t
Encoding: 116 116 687
Width: 396
GlyphClass: 2
Flags: W
AnchorPoint: "Anchor-7" 281 595 basechar 0
AnchorPoint: "Anchor-6" 174 663 basechar 0
AnchorPoint: "Anchor-4" 283 0 basechar 0
LayerCount: 2
Fore
SplineSet
169.5 38.5 m 128,-1,1
 127 83 127 83 127 166 c 2,2,-1
 127 450 l 1,3,-1
 29 450 l 1,4,-1
 29 539 l 1,5,-1
 49 539 l 2,6,7
 85 539 85 539 106 560.5 c 128,-1,8
 127 582 127 582 127 619 c 2,9,-1
 127 663 l 1,10,-1
 220 663 l 1,11,-1
 220 539 l 1,12,-1
 341 539 l 1,13,-1
 341 450 l 1,14,-1
 220 450 l 1,15,-1
 220 169 l 2,16,17
 220 79 220 79 310 79 c 0,18,19
 329 79 329 79 347 82 c 1,20,-1
 347 -1 l 1,21,22
 326 -6 326 -6 291 -6 c 0,23,0
 212 -6 212 -6 169.5 38.5 c 128,-1,1
EndSplineSet
Validated: 1
Substitution2: "'ss01' Style Set 1 in Latin lookup 20 subtable" t.ss01
Substitution2: "'salt' Stylistic Alternatives in Latin lookup 19 subtable" t.ss01
Substitution2: "'aalt' Access All Alternates in Latin lookup 0 subtable" t.ss01
EndChar

StartChar: t.ss01
Encoding: 65810 -1 688
Width: 396
GlyphClass: 2
Flags: W
AnchorPoint: "Anchor-7" 281 595 basechar 0
AnchorPoint: "Anchor-6" 174 663 basechar 0
AnchorPoint: "Anchor-4" 237 0 basechar 0
LayerCount: 2
Fore
SplineSet
127 450 m 1,0,-1
 29 450 l 1,1,-1
 29 539 l 1,2,-1
 127 539 l 1,3,-1
 127 663 l 1,4,-1
 220 663 l 1,5,-1
 220 539 l 1,6,-1
 341 539 l 1,7,-1
 341 450 l 1,8,-1
 220 450 l 1,9,-1
 220 89 l 1,10,-1
 347 89 l 1,11,-1
 347 0 l 1,12,-1
 127 0 l 1,13,-1
 127 450 l 1,0,-1
EndSplineSet
Validated: 1
EndChar

StartChar: tbar
Encoding: 359 359 689
Width: 396
GlyphClass: 2
Flags: W
AnchorPoint: "Anchor-7" 281 595 basechar 0
AnchorPoint: "Anchor-6" 174 663 basechar 0
AnchorPoint: "Anchor-4" 283 0 basechar 0
LayerCount: 2
Fore
SplineSet
169.5 38.5 m 128,-1,1
 127 83 127 83 127 166 c 2,2,-1
 127 224 l 1,3,-1
 32 224 l 1,4,-1
 32 313 l 1,5,-1
 127 313 l 1,6,-1
 127 450 l 1,7,-1
 29 450 l 1,8,-1
 29 539 l 1,9,-1
 49 539 l 2,10,11
 85 539 85 539 106 560.5 c 128,-1,12
 127 582 127 582 127 619 c 2,13,-1
 127 663 l 1,14,-1
 220 663 l 1,15,-1
 220 539 l 1,16,-1
 341 539 l 1,17,-1
 341 450 l 1,18,-1
 220 450 l 1,19,-1
 220 313 l 1,20,-1
 343 313 l 1,21,-1
 343 224 l 1,22,-1
 220 224 l 1,23,-1
 220 169 l 2,24,25
 220 79 220 79 310 79 c 0,26,27
 329 79 329 79 347 82 c 1,28,-1
 347 -1 l 1,29,30
 326 -6 326 -6 291 -6 c 0,31,0
 212 -6 212 -6 169.5 38.5 c 128,-1,1
EndSplineSet
Validated: 1
Substitution2: "'ss01' Style Set 1 in Latin lookup 20 subtable" tbar.ss01
Substitution2: "'salt' Stylistic Alternatives in Latin lookup 19 subtable" tbar.ss01
Substitution2: "'aalt' Access All Alternates in Latin lookup 0 subtable" tbar.ss01
EndChar

StartChar: tbar.ss01
Encoding: 65811 -1 690
Width: 396
GlyphClass: 2
Flags: W
AnchorPoint: "Anchor-7" 281 595 basechar 0
AnchorPoint: "Anchor-6" 174 663 basechar 0
AnchorPoint: "Anchor-4" 237 0 basechar 0
LayerCount: 2
Fore
SplineSet
127 224 m 1,0,-1
 32 224 l 1,1,-1
 32 313 l 1,2,-1
 127 313 l 1,3,-1
 127 450 l 1,4,-1
 29 450 l 1,5,-1
 29 539 l 1,6,-1
 127 539 l 1,7,-1
 127 663 l 1,8,-1
 220 663 l 1,9,-1
 220 539 l 1,10,-1
 341 539 l 1,11,-1
 341 450 l 1,12,-1
 220 450 l 1,13,-1
 220 313 l 1,14,-1
 343 313 l 1,15,-1
 343 224 l 1,16,-1
 220 224 l 1,17,-1
 220 89 l 1,18,-1
 347 89 l 1,19,-1
 347 0 l 1,20,-1
 127 0 l 1,21,-1
 127 224 l 1,0,-1
EndSplineSet
Validated: 1
EndChar

StartChar: uni0163
Encoding: 355 355 693
Width: 396
GlyphClass: 2
Flags: W
AnchorPoint: "Anchor-7" 281 595 basechar 0
AnchorPoint: "Anchor-4" 283 0 basechar 0
LayerCount: 2
Fore
SplineSet
250 -226 m 128,-1,1
 228 -222 228 -222 213 -216 c 1,2,-1
 225 -166 l 1,3,4
 252 -176 252 -176 285 -176 c 0,5,6
 308 -176 308 -176 321 -166 c 128,-1,7
 334 -156 334 -156 334 -139 c 0,8,9
 334 -124 334 -124 325 -116 c 128,-1,10
 316 -108 316 -108 299 -108 c 0,11,12
 275 -108 275 -108 259 -116 c 1,13,-1
 238 -107 l 1,14,-1
 251 -3 l 1,15,16
 191 8 191 8 159 51.5 c 128,-1,17
 127 95 127 95 127 166 c 2,18,-1
 127 450 l 1,19,-1
 29 450 l 1,20,-1
 29 539 l 1,21,-1
 49 539 l 2,22,23
 85 539 85 539 106 560.5 c 128,-1,24
 127 582 127 582 127 619 c 2,25,-1
 127 663 l 1,26,-1
 220 663 l 1,27,-1
 220 539 l 1,28,-1
 341 539 l 1,29,-1
 341 450 l 1,30,-1
 220 450 l 1,31,-1
 220 169 l 2,32,33
 220 79 220 79 310 79 c 0,34,35
 329 79 329 79 347 82 c 1,36,-1
 347 -1 l 1,37,38
 327 -5 327 -5 313 -5 c 1,39,-1
 308 -62 l 1,40,41
 320 -60 320 -60 327 -60 c 0,42,43
 363 -60 363 -60 386.5 -81 c 128,-1,44
 410 -102 410 -102 410 -136 c 0,45,46
 410 -177 410 -177 378.5 -203.5 c 128,-1,47
 347 -230 347 -230 291 -230 c 0,48,0
 272 -230 272 -230 250 -226 c 128,-1,1
EndSplineSet
Validated: 1
Substitution2: "'ss01' Style Set 1 in Latin lookup 20 subtable" uni0163.ss01
Substitution2: "'salt' Stylistic Alternatives in Latin lookup 19 subtable" uni0163.ss01
Substitution2: "'locl' Localized Forms in Latin lookup 6 subtable" uni021B
AlternateSubs2: "'aalt' Access All Alternates in Latin lookup 1 subtable" uni021B uni0163.ss01
EndChar

StartChar: uni0163.ss01
Encoding: 65813 -1 694
Width: 396
GlyphClass: 2
Flags: W
AnchorPoint: "Anchor-7" 281 595 basechar 0
AnchorPoint: "Anchor-4" 237 0 basechar 0
LayerCount: 2
Fore
SplineSet
127 450 m 1,0,-1
 29 450 l 1,1,-1
 29 539 l 1,2,-1
 127 539 l 1,3,-1
 127 663 l 1,4,-1
 220 663 l 1,5,-1
 220 539 l 1,6,-1
 341 539 l 1,7,-1
 341 450 l 1,8,-1
 220 450 l 1,9,-1
 220 89 l 1,10,-1
 347 89 l 1,11,-1
 347 0 l 1,12,-1
 268 0 l 1,13,-1
 262 -62 l 1,14,15
 274 -60 274 -60 281 -60 c 0,16,17
 317 -60 317 -60 340.5 -81 c 128,-1,18
 364 -102 364 -102 364 -136 c 0,19,20
 364 -177 364 -177 332.5 -203.5 c 128,-1,21
 301 -230 301 -230 245 -230 c 0,22,23
 226 -230 226 -230 204 -226 c 128,-1,24
 182 -222 182 -222 167 -216 c 1,25,-1
 179 -166 l 1,26,27
 206 -176 206 -176 239 -176 c 0,28,29
 262 -176 262 -176 275 -166 c 128,-1,30
 288 -156 288 -156 288 -139 c 0,31,32
 288 -124 288 -124 279 -116 c 128,-1,33
 270 -108 270 -108 253 -108 c 0,34,35
 229 -108 229 -108 213 -116 c 1,36,-1
 192 -107 l 1,37,-1
 205 0 l 1,38,-1
 127 0 l 1,39,-1
 127 450 l 1,0,-1
EndSplineSet
Validated: 1
EndChar

StartChar: u
Encoding: 117 117 703
Width: 580
GlyphClass: 2
Flags: W
AnchorPoint: "Anchor-7" 560 539 basechar 0
AnchorPoint: "Anchor-6" 290 539 basechar 0
AnchorPoint: "Anchor-5" 483 40 basechar 0
AnchorPoint: "Anchor-4" 290 0 basechar 0
LayerCount: 2
Fore
SplineSet
159 15 m 128,-1,1
 113 42 113 42 87 90.5 c 128,-1,2
 61 139 61 139 61 202 c 2,3,-1
 61 539 l 1,4,-1
 154 539 l 1,5,-1
 154 212 l 2,6,7
 154 152 154 152 190 115 c 128,-1,8
 226 78 226 78 284 78 c 256,9,10
 342 78 342 78 378 116.5 c 128,-1,11
 414 155 414 155 414 220 c 2,12,-1
 414 539 l 1,13,-1
 508 539 l 1,14,-1
 508 0 l 1,15,-1
 417 0 l 1,16,-1
 417 66 l 1,17,18
 393 28 393 28 353 8 c 128,-1,19
 313 -12 313 -12 263 -12 c 0,20,0
 205 -12 205 -12 159 15 c 128,-1,1
EndSplineSet
Validated: 1
Substitution2: "'ss03' Style Set 3 in Latin lookup 22 subtable" u.ss03
Substitution2: "'ss01' Style Set 1 in Latin lookup 20 subtable" u.ss01
Substitution2: "'salt' Stylistic Alternatives in Latin lookup 19 subtable" u.ss01
AlternateSubs2: "'aalt' Access All Alternates in Latin lookup 1 subtable" u.ss01 u.ss03
EndChar

StartChar: u.ss01
Encoding: 65818 -1 704
Width: 580
GlyphClass: 2
Flags: W
AnchorPoint: "Anchor-7" 560 539 basechar 0
AnchorPoint: "Anchor-6" 290 539 basechar 0
AnchorPoint: "Anchor-5" 284 40 basechar 0
AnchorPoint: "Anchor-4" 290 0 basechar 0
LayerCount: 2
Fore
SplineSet
61 539 m 1,0,-1
 154 539 l 1,1,-1
 154 89 l 1,2,-1
 414 89 l 1,3,-1
 414 539 l 1,4,-1
 508 539 l 1,5,-1
 508 0 l 1,6,-1
 61 0 l 1,7,-1
 61 539 l 1,0,-1
EndSplineSet
Validated: 1
EndChar

StartChar: u.ss03
Encoding: 65819 -1 705
Width: 580
GlyphClass: 2
Flags: W
AnchorPoint: "Anchor-7" 560 539 basechar 0
AnchorPoint: "Anchor-6" 290 539 basechar 0
AnchorPoint: "Anchor-5" 334 40 basechar 0
AnchorPoint: "Anchor-4" 290 0 basechar 0
LayerCount: 2
Fore
SplineSet
167.5 15 m 128,-1,1
 117 42 117 42 89 91.5 c 128,-1,2
 61 141 61 141 61 205 c 2,3,-1
 61 539 l 1,4,-1
 154 539 l 1,5,-1
 154 209 l 2,6,7
 154 150 154 150 190 113.5 c 128,-1,8
 226 77 226 77 284 77 c 256,9,10
 342 77 342 77 378 113.5 c 128,-1,11
 414 150 414 150 414 209 c 2,12,-1
 414 539 l 1,13,-1
 508 539 l 1,14,-1
 508 205 l 2,15,16
 508 141 508 141 480 91.5 c 128,-1,17
 452 42 452 42 401 15 c 128,-1,18
 350 -12 350 -12 284 -12 c 256,19,0
 218 -12 218 -12 167.5 15 c 128,-1,1
EndSplineSet
Validated: 1
EndChar

StartChar: uhorn
Encoding: 432 432 730
Width: 617
GlyphClass: 2
Flags: W
AnchorPoint: "Anchor-7" 560 539 basechar 0
AnchorPoint: "Anchor-6" 290 539 basechar 0
AnchorPoint: "Anchor-5" 483 40 basechar 0
AnchorPoint: "Anchor-4" 290 0 basechar 0
LayerCount: 2
Fore
SplineSet
159 15 m 128,-1,1
 113 42 113 42 87 90.5 c 128,-1,2
 61 139 61 139 61 202 c 2,3,-1
 61 539 l 1,4,-1
 154 539 l 1,5,-1
 154 212 l 2,6,7
 154 152 154 152 190 115 c 128,-1,8
 226 78 226 78 284 78 c 256,9,10
 342 78 342 78 378 116.5 c 128,-1,11
 414 155 414 155 414 220 c 2,12,-1
 414 539 l 1,13,-1
 469 539 l 2,14,15
 519 539 519 539 519 591 c 0,16,17
 519 621 519 621 497 670 c 1,18,-1
 584 670 l 1,19,20
 595 645 595 645 601 625 c 128,-1,21
 607 605 607 605 607 582 c 0,22,23
 607 532 607 532 580.5 503 c 128,-1,24
 554 474 554 474 508 469 c 1,25,-1
 508 0 l 1,26,-1
 417 0 l 1,27,-1
 417 66 l 1,28,29
 393 28 393 28 353 8 c 128,-1,30
 313 -12 313 -12 263 -12 c 0,31,0
 205 -12 205 -12 159 15 c 128,-1,1
EndSplineSet
Validated: 1
Substitution2: "'ss03' Style Set 3 in Latin lookup 22 subtable" uhorn.ss03
Substitution2: "'ss01' Style Set 1 in Latin lookup 20 subtable" uhorn.ss01
Substitution2: "'salt' Stylistic Alternatives in Latin lookup 19 subtable" uhorn.ss01
AlternateSubs2: "'aalt' Access All Alternates in Latin lookup 1 subtable" uhorn.ss01 uhorn.ss03
EndChar

StartChar: uhorn.ss01
Encoding: 65836 -1 731
Width: 617
GlyphClass: 2
Flags: W
AnchorPoint: "Anchor-6" 290 539 basechar 0
AnchorPoint: "Anchor-4" 290 0 basechar 0
LayerCount: 2
Fore
SplineSet
61 539 m 1,0,-1
 154 539 l 1,1,-1
 154 89 l 1,2,-1
 414 89 l 1,3,-1
 414 539 l 1,4,-1
 469 539 l 2,5,6
 519 539 519 539 519 591 c 0,7,8
 519 621 519 621 497 670 c 1,9,-1
 584 670 l 1,10,11
 595 645 595 645 601 625 c 128,-1,12
 607 605 607 605 607 582 c 0,13,14
 607 532 607 532 580.5 503 c 128,-1,15
 554 474 554 474 508 469 c 1,16,-1
 508 0 l 1,17,-1
 61 0 l 1,18,-1
 61 539 l 1,0,-1
EndSplineSet
Validated: 1
EndChar

StartChar: uhorn.ss03
Encoding: 65837 -1 732
Width: 617
GlyphClass: 2
Flags: W
AnchorPoint: "Anchor-7" 560 539 basechar 0
AnchorPoint: "Anchor-6" 290 539 basechar 0
AnchorPoint: "Anchor-5" 334 40 basechar 0
AnchorPoint: "Anchor-4" 290 0 basechar 0
LayerCount: 2
Fore
SplineSet
167.5 15 m 128,-1,1
 117 42 117 42 89 91.5 c 128,-1,2
 61 141 61 141 61 205 c 2,3,-1
 61 539 l 1,4,-1
 154 539 l 1,5,-1
 154 209 l 2,6,7
 154 150 154 150 190 113.5 c 128,-1,8
 226 77 226 77 284 77 c 256,9,10
 342 77 342 77 378 113.5 c 128,-1,11
 414 150 414 150 414 209 c 2,12,-1
 414 539 l 1,13,-1
 469 539 l 2,14,15
 519 539 519 539 519 591 c 0,16,17
 519 621 519 621 497 670 c 1,18,-1
 584 670 l 1,19,20
 595 645 595 645 601 625 c 128,-1,21
 607 605 607 605 607 582 c 0,22,23
 607 532 607 532 580.5 503 c 128,-1,24
 554 474 554 474 508 469 c 1,25,-1
 508 205 l 2,26,27
 508 141 508 141 480 91.5 c 128,-1,28
 452 42 452 42 401 15 c 128,-1,29
 350 -12 350 -12 284 -12 c 256,30,0
 218 -12 218 -12 167.5 15 c 128,-1,1
EndSplineSet
Validated: 1
EndChar

StartChar: uogonek
Encoding: 371 371 760
Width: 580
GlyphClass: 2
Flags: W
AnchorPoint: "Anchor-7" 560 539 basechar 0
AnchorPoint: "Anchor-6" 290 539 basechar 0
AnchorPoint: "Anchor-5" 483 40 basechar 0
AnchorPoint: "Anchor-4" 290 0 basechar 0
LayerCount: 2
Fore
SplineSet
159 15 m 128,-1,1
 113 42 113 42 87 90.5 c 128,-1,2
 61 139 61 139 61 202 c 2,3,-1
 61 539 l 1,4,-1
 154 539 l 1,5,-1
 154 212 l 2,6,7
 154 152 154 152 190 115 c 128,-1,8
 226 78 226 78 284 78 c 256,9,10
 342 78 342 78 378 116.5 c 128,-1,11
 414 155 414 155 414 220 c 2,12,-1
 414 539 l 1,13,-1
 508 539 l 1,14,-1
 508 0 l 1,15,-1
 458 0 l 1,16,17
 412 -29 412 -29 412 -66 c 0,18,19
 412 -88 412 -88 426.5 -100.5 c 128,-1,20
 441 -113 441 -113 466 -113 c 0,21,22
 502 -113 502 -113 542 -85 c 1,23,-1
 572 -133 l 1,24,25
 522 -175 522 -175 459 -175 c 0,26,27
 409 -175 409 -175 377 -149.5 c 128,-1,28
 345 -124 345 -124 345 -82 c 0,29,30
 345 -50 345 -50 363.5 -23 c 128,-1,31
 382 4 382 4 417 22 c 1,32,-1
 417 66 l 1,33,34
 393 28 393 28 353 8 c 128,-1,35
 313 -12 313 -12 263 -12 c 0,36,0
 205 -12 205 -12 159 15 c 128,-1,1
EndSplineSet
Validated: 1
Substitution2: "'ss03' Style Set 3 in Latin lookup 22 subtable" uogonek.ss03
Substitution2: "'ss01' Style Set 1 in Latin lookup 20 subtable" uogonek.ss01
Substitution2: "'salt' Stylistic Alternatives in Latin lookup 19 subtable" uogonek.ss01
AlternateSubs2: "'aalt' Access All Alternates in Latin lookup 1 subtable" uogonek.ss01 uogonek.ss03
EndChar

StartChar: uogonek.ss01
Encoding: 65856 -1 761
Width: 580
GlyphClass: 2
Flags: W
AnchorPoint: "Anchor-7" 560 539 basechar 0
AnchorPoint: "Anchor-6" 290 539 basechar 0
AnchorPoint: "Anchor-5" 284 40 basechar 0
AnchorPoint: "Anchor-4" 290 0 basechar 0
LayerCount: 2
Fore
SplineSet
61 539 m 1,0,-1
 154 539 l 1,1,-1
 154 89 l 1,2,-1
 414 89 l 1,3,-1
 414 539 l 1,4,-1
 508 539 l 1,5,-1
 508 0 l 1,6,-1
 259 0 l 1,7,8
 213 -29 213 -29 213 -66 c 0,9,10
 213 -88 213 -88 227.5 -100.5 c 128,-1,11
 242 -113 242 -113 267 -113 c 0,12,13
 303 -113 303 -113 343 -85 c 1,14,-1
 373 -133 l 1,15,16
 323 -175 323 -175 260 -175 c 0,17,18
 210 -175 210 -175 178 -149.5 c 128,-1,19
 146 -124 146 -124 146 -82 c 0,20,21
 146 -34 146 -34 185 0 c 1,22,-1
 61 0 l 1,23,-1
 61 539 l 1,0,-1
EndSplineSet
Validated: 1
EndChar

StartChar: uogonek.ss03
Encoding: 65857 -1 762
Width: 580
GlyphClass: 2
Flags: W
AnchorPoint: "Anchor-7" 560 539 basechar 0
AnchorPoint: "Anchor-6" 290 539 basechar 0
AnchorPoint: "Anchor-5" 334 40 basechar 0
AnchorPoint: "Anchor-4" 290 0 basechar 0
LayerCount: 2
Fore
SplineSet
228 -149.5 m 128,-1,1
 196 -124 196 -124 196 -82 c 0,2,3
 196 -41 196 -41 228 -7 c 1,4,5
 151 9 151 9 106 65.5 c 128,-1,6
 61 122 61 122 61 205 c 2,7,-1
 61 539 l 1,8,-1
 154 539 l 1,9,-1
 154 209 l 2,10,11
 154 150 154 150 190 113.5 c 128,-1,12
 226 77 226 77 284 77 c 256,13,14
 342 77 342 77 378 113.5 c 128,-1,15
 414 150 414 150 414 209 c 2,16,-1
 414 539 l 1,17,-1
 508 539 l 1,18,-1
 508 205 l 2,19,20
 508 142 508 142 481 93.5 c 128,-1,21
 454 45 454 45 405 17.5 c 128,-1,22
 356 -10 356 -10 292 -12 c 1,23,24
 263 -37 263 -37 263 -66 c 0,25,26
 263 -88 263 -88 277.5 -100.5 c 128,-1,27
 292 -113 292 -113 317 -113 c 0,28,29
 353 -113 353 -113 393 -85 c 1,30,-1
 423 -133 l 1,31,32
 373 -175 373 -175 310 -175 c 0,33,0
 260 -175 260 -175 228 -149.5 c 128,-1,1
EndSplineSet
Validated: 1
EndChar

StartChar: v
Encoding: 118 118 772
Width: 533
GlyphClass: 2
Flags: W
AnchorPoint: "Anchor-6" 267 539 basechar 0
AnchorPoint: "Anchor-4" 267 0 basechar 0
LayerCount: 2
Fore
SplineSet
11 539 m 1,0,-1
 115 539 l 1,1,-1
 266 131 l 1,2,-1
 418 539 l 1,3,-1
 522 539 l 1,4,-1
 310 0 l 1,5,-1
 222 0 l 1,6,-1
 11 539 l 1,0,-1
EndSplineSet
Validated: 1
EndChar

StartChar: w
Encoding: 119 119 773
Width: 826
GlyphClass: 2
Flags: W
AnchorPoint: "Anchor-6" 413 539 basechar 0
AnchorPoint: "Anchor-4" 413 0 basechar 0
LayerCount: 2
Fore
SplineSet
11 539 m 1,0,-1
 114 539 l 1,1,-1
 243 144 l 1,2,-1
 369 539 l 1,3,-1
 457 539 l 1,4,-1
 583 144 l 1,5,-1
 713 539 l 1,6,-1
 815 539 l 1,7,-1
 630 0 l 1,8,-1
 541 0 l 1,9,-1
 413 406 l 1,10,-1
 285 0 l 1,11,-1
 196 0 l 1,12,-1
 11 539 l 1,0,-1
EndSplineSet
Validated: 1
EndChar

StartChar: x
Encoding: 120 120 778
Width: 511
GlyphClass: 2
Flags: W
AnchorPoint: "Anchor-6" 256 539 basechar 0
AnchorPoint: "Anchor-4" 256 0 basechar 0
LayerCount: 2
Fore
SplineSet
200 270 m 1,0,-1
 12 539 l 1,1,-1
 124 539 l 1,2,-1
 256 347 l 1,3,-1
 387 539 l 1,4,-1
 500 539 l 1,5,-1
 312 270 l 1,6,-1
 499 0 l 1,7,-1
 387 0 l 1,8,-1
 256 193 l 1,9,-1
 125 0 l 1,10,-1
 11 0 l 1,11,-1
 200 270 l 1,0,-1
EndSplineSet
Validated: 1
Substitution2: "Single Substitution lookup 29 subtable" multiply
AlternateSubs2: "'aalt' Access All Alternates in Latin lookup 1 subtable" multiply
EndChar

StartChar: y
Encoding: 121 121 779
Width: 553
GlyphClass: 2
Flags: W
AnchorPoint: "Anchor-6" 276 539 basechar 0
AnchorPoint: "Anchor-4" 503 100 basechar 0
LayerCount: 2
Fore
SplineSet
225 1 m 1,0,-1
 11 539 l 1,1,-1
 112 539 l 1,2,-1
 276 118 l 1,3,-1
 439 539 l 1,4,-1
 542 539 l 1,5,-1
 244 -200 l 1,6,-1
 141 -200 l 1,7,-1
 225 1 l 1,0,-1
EndSplineSet
Validated: 1
Substitution2: "'ss03' Style Set 3 in Latin lookup 22 subtable" y.ss03
Substitution2: "'ss02' Style Set 2 in Latin lookup 21 subtable" y.ss02
Substitution2: "'ss01' Style Set 1 in Latin lookup 20 subtable" y.ss01
Substitution2: "'salt' Stylistic Alternatives in Latin lookup 19 subtable" y.ss01
AlternateSubs2: "'aalt' Access All Alternates in Latin lookup 1 subtable" y.ss01 y.ss02 y.ss03
EndChar

StartChar: y.ss01
Encoding: 65864 -1 780
Width: 553
GlyphClass: 2
Flags: W
AnchorPoint: "Anchor-6" 276 539 basechar 0
AnchorPoint: "Anchor-4" 503 100 basechar 0
LayerCount: 2
Fore
SplineSet
28 -115 m 1,0,-1
 177 -115 l 1,1,-1
 225 0 l 1,2,-1
 11 539 l 1,3,-1
 112 539 l 1,4,-1
 276 118 l 1,5,-1
 439 539 l 1,6,-1
 542 539 l 1,7,-1
 245 -200 l 1,8,-1
 28 -200 l 1,9,-1
 28 -115 l 1,0,-1
EndSplineSet
Validated: 1
EndChar

StartChar: y.ss02
Encoding: 65865 -1 781
Width: 553
GlyphClass: 2
Flags: W
AnchorPoint: "Anchor-6" 276 539 basechar 0
AnchorPoint: "Anchor-4" 503 100 basechar 0
LayerCount: 2
Fore
SplineSet
225 1 m 1,0,-1
 11 539 l 1,1,-1
 112 539 l 1,2,-1
 276 118 l 1,3,-1
 439 539 l 1,4,-1
 542 539 l 1,5,-1
 244 -200 l 1,6,-1
 141 -200 l 1,7,-1
 225 1 l 1,0,-1
EndSplineSet
Validated: 1
EndChar

StartChar: y.ss03
Encoding: 65866 -1 782
Width: 589
GlyphClass: 2
Flags: W
AnchorPoint: "Anchor-6" 295 539 basechar 0
AnchorPoint: "Anchor-4" 607 100 basechar 0
LayerCount: 2
Fore
SplineSet
147 -181.5 m 128,-1,1
 86 -143 86 -143 61 -79 c 1,2,-1
 147 -39 l 1,3,4
 160 -79 160 -79 197.5 -104.5 c 128,-1,5
 235 -130 235 -130 290 -130 c 0,6,7
 349 -130 349 -130 386.5 -98.5 c 128,-1,8
 424 -67 424 -67 424 -2 c 2,9,-1
 424 87 l 1,10,11
 401 52 401 52 361.5 32.5 c 128,-1,12
 322 13 322 13 273 13 c 0,13,14
 215 13 215 13 168.5 40 c 128,-1,15
 122 67 122 67 96 115.5 c 128,-1,16
 70 164 70 164 70 227 c 2,17,-1
 70 539 l 1,18,-1
 164 539 l 1,19,-1
 164 237 l 2,20,21
 164 177 164 177 200 140 c 128,-1,22
 236 103 236 103 293 103 c 0,23,24
 351 103 351 103 387.5 141 c 128,-1,25
 424 179 424 179 424 244 c 2,26,-1
 424 539 l 1,27,-1
 518 539 l 1,28,-1
 518 -2 l 2,29,30
 518 -69 518 -69 489 -118 c 128,-1,31
 460 -167 460 -167 408 -193.5 c 128,-1,32
 356 -220 356 -220 290 -220 c 0,33,0
 208 -220 208 -220 147 -181.5 c 128,-1,1
EndSplineSet
Validated: 1
EndChar

StartChar: z
Encoding: 122 122 819
Width: 460
GlyphClass: 2
Flags: W
AnchorPoint: "Anchor-6" 227 539 basechar 0
AnchorPoint: "Anchor-4" 227 0 basechar 0
LayerCount: 2
Fore
SplineSet
19 79 m 1,0,-1
 313 450 l 1,1,-1
 35 450 l 1,2,-1
 35 539 l 1,3,-1
 439 539 l 1,4,-1
 439 460 l 1,5,-1
 148 89 l 1,6,-1
 441 89 l 1,7,-1
 441 0 l 1,8,-1
 19 0 l 1,9,-1
 19 79 l 1,0,-1
EndSplineSet
Validated: 1
EndChar

StartChar: f_f
Encoding: 65894 -1 824
Width: 785
GlyphClass: 3
Flags: W
LayerCount: 2
Fore
SplineSet
129 450 m 1,0,-1
 26 450 l 1,1,-1
 26 539 l 1,2,-1
 129 539 l 1,3,-1
 129 577 l 2,4,5
 129 633 129 633 154 674 c 128,-1,6
 179 715 179 715 221.5 736 c 128,-1,7
 264 757 264 757 317 757 c 0,8,9
 344 757 344 757 364 752 c 1,10,-1
 364 669 l 1,11,12
 349 672 349 672 328 672 c 0,13,14
 223 672 223 672 223 577 c 2,15,-1
 223 539 l 1,16,-1
 503 539 l 1,17,-1
 503 535 l 1,18,-1
 516 535 l 1,19,-1
 516 573 l 2,20,21
 516 631 516 631 541 673 c 128,-1,22
 566 715 566 715 608.5 737.5 c 128,-1,23
 651 760 651 760 704 760 c 0,24,25
 731 760 731 760 751 755 c 1,26,-1
 751 672 l 1,27,28
 736 675 736 675 715 675 c 0,29,30
 666 675 666 675 638 650.5 c 128,-1,31
 610 626 610 626 610 573 c 2,32,-1
 610 535 l 1,33,-1
 738 535 l 1,34,-1
 738 446 l 1,35,-1
 610 446 l 1,36,-1
 610 0 l 1,37,-1
 516 0 l 1,38,-1
 516 446 l 1,39,-1
 413 446 l 1,40,-1
 413 450 l 1,41,-1
 223 450 l 1,42,-1
 223 0 l 1,43,-1
 129 0 l 1,44,-1
 129 450 l 1,0,-1
EndSplineSet
Validated: 1
EndChar

StartChar: f_f_i
Encoding: 65895 -1 825
Width: 993
GlyphClass: 3
Flags: W
LayerCount: 2
Fore
SplineSet
129 450 m 1,0,-1
 26 450 l 1,1,-1
 26 539 l 1,2,-1
 129 539 l 1,3,-1
 129 577 l 2,4,5
 129 633 129 633 154 674 c 128,-1,6
 179 715 179 715 221.5 736 c 128,-1,7
 264 757 264 757 317 757 c 0,8,9
 344 757 344 757 364 752 c 1,10,-1
 364 669 l 1,11,12
 349 672 349 672 328 672 c 0,13,14
 223 672 223 672 223 577 c 2,15,-1
 223 539 l 1,16,-1
 526 539 l 1,17,-1
 526 577 l 2,18,19
 526 633 526 633 551 674 c 128,-1,20
 576 715 576 715 618.5 736 c 128,-1,21
 661 757 661 757 714 757 c 0,22,23
 741 757 741 757 761 752 c 1,24,-1
 761 669 l 1,25,26
 746 672 746 672 725 672 c 0,27,28
 620 672 620 672 620 577 c 2,29,-1
 620 539 l 1,30,-1
 936 539 l 1,31,-1
 936 0 l 1,32,-1
 842 0 l 1,33,-1
 842 450 l 1,34,-1
 620 450 l 1,35,-1
 620 0 l 1,36,-1
 526 0 l 1,37,-1
 526 450 l 1,38,-1
 223 450 l 1,39,-1
 223 0 l 1,40,-1
 129 0 l 1,41,-1
 129 450 l 1,0,-1
EndSplineSet
Validated: 1
EndChar

StartChar: f_f_l
Encoding: 65896 -1 826
Width: 1031
GlyphClass: 3
Flags: W
LayerCount: 2
Fore
SplineSet
129 450 m 1,0,-1
 26 450 l 1,1,-1
 26 539 l 1,2,-1
 129 539 l 1,3,-1
 129 577 l 2,4,5
 129 633 129 633 154 674 c 128,-1,6
 179 715 179 715 221.5 736 c 128,-1,7
 264 757 264 757 317 757 c 0,8,9
 344 757 344 757 364 752 c 1,10,-1
 364 669 l 1,11,12
 349 672 349 672 328 672 c 0,13,14
 223 672 223 672 223 577 c 2,15,-1
 223 539 l 1,16,-1
 526 539 l 1,17,-1
 526 577 l 2,18,19
 526 633 526 633 551 674 c 128,-1,20
 576 715 576 715 618.5 736 c 128,-1,21
 661 757 661 757 714 757 c 0,22,23
 741 757 741 757 761 752 c 1,24,-1
 761 669 l 1,25,26
 746 672 746 672 725 672 c 0,27,28
 620 672 620 672 620 577 c 2,29,-1
 620 539 l 1,30,-1
 866 539 l 1,31,-1
 866 757 l 1,32,-1
 960 757 l 1,33,-1
 960 0 l 1,34,-1
 866 0 l 1,35,-1
 866 450 l 1,36,-1
 620 450 l 1,37,-1
 620 0 l 1,38,-1
 526 0 l 1,39,-1
 526 450 l 1,40,-1
 223 450 l 1,41,-1
 223 0 l 1,42,-1
 129 0 l 1,43,-1
 129 450 l 1,0,-1
EndSplineSet
Validated: 1
EndChar

StartChar: fi
Encoding: 64257 64257 827
Width: 596
GlyphClass: 3
Flags: W
LayerCount: 2
Fore
SplineSet
129 450 m 1,0,-1
 26 450 l 1,1,-1
 26 539 l 1,2,-1
 129 539 l 1,3,-1
 129 577 l 2,4,5
 129 633 129 633 154 674 c 128,-1,6
 179 715 179 715 221.5 736 c 128,-1,7
 264 757 264 757 317 757 c 0,8,9
 344 757 344 757 364 752 c 1,10,-1
 364 669 l 1,11,12
 349 672 349 672 328 672 c 0,13,14
 223 672 223 672 223 577 c 2,15,-1
 223 539 l 1,16,-1
 538 539 l 1,17,-1
 538 0 l 1,18,-1
 445 0 l 1,19,-1
 445 450 l 1,20,-1
 223 450 l 1,21,-1
 223 0 l 1,22,-1
 129 0 l 1,23,-1
 129 450 l 1,0,-1
EndSplineSet
Validated: 1
EndChar

StartChar: fl
Encoding: 64258 64258 828
Width: 634
GlyphClass: 3
Flags: W
LayerCount: 2
Fore
SplineSet
129 450 m 1,0,-1
 26 450 l 1,1,-1
 26 539 l 1,2,-1
 129 539 l 1,3,-1
 129 577 l 2,4,5
 129 633 129 633 154 674 c 128,-1,6
 179 715 179 715 221.5 736 c 128,-1,7
 264 757 264 757 317 757 c 0,8,9
 344 757 344 757 364 752 c 1,10,-1
 364 669 l 1,11,12
 349 672 349 672 328 672 c 0,13,14
 223 672 223 672 223 577 c 2,15,-1
 223 539 l 1,16,-1
 469 539 l 1,17,-1
 469 757 l 1,18,-1
 562 757 l 1,19,-1
 562 0 l 1,20,-1
 469 0 l 1,21,-1
 469 450 l 1,22,-1
 223 450 l 1,23,-1
 223 0 l 1,24,-1
 129 0 l 1,25,-1
 129 450 l 1,0,-1
EndSplineSet
Validated: 1
EndChar

StartChar: ordfeminine
Encoding: 170 170 829
Width: 452
GlyphClass: 2
Flags: W
AnchorPoint: "Anchor-6" 223 380 basechar 0
AnchorPoint: "Anchor-5" 364 28 basechar 0
AnchorPoint: "Anchor-4" 223 0 basechar 0
LayerCount: 2
Fore
SplineSet
85.5 388.5 m 128,-1,1
 50 418 50 418 50 467 c 256,2,3
 50 516 50 516 82.5 547 c 128,-1,4
 115 578 115 578 179 588 c 2,5,-1
 297 608 l 1,6,-1
 297 621 l 2,7,8
 297 648 297 648 276 665 c 128,-1,9
 255 682 255 682 223 682 c 0,10,11
 193 682 193 682 170 666 c 128,-1,12
 147 650 147 650 136 624 c 1,13,-1
 66 658 l 1,14,15
 83 702 83 702 127.5 728.5 c 128,-1,16
 172 755 172 755 226 755 c 0,17,18
 294 755 294 755 337 717.5 c 128,-1,19
 380 680 380 680 380 621 c 2,20,-1
 380 367 l 1,21,-1
 301 367 l 1,22,-1
 301 410 l 1,23,24
 256 359 256 359 180 359 c 0,25,0
 121 359 121 359 85.5 388.5 c 128,-1,1
153 437 m 128,-1,27
 169 424 169 424 193 424 c 0,28,29
 238 424 238 424 267.5 453 c 128,-1,30
 297 482 297 482 297 524 c 2,31,-1
 297 542 l 1,32,-1
 195 525 l 2,33,34
 137 515 137 515 137 471 c 0,35,26
 137 450 137 450 153 437 c 128,-1,27
EndSplineSet
Validated: 1
EndChar

StartChar: ordmasculine
Encoding: 186 186 830
Width: 498
GlyphClass: 2
Flags: W
AnchorPoint: "Anchor-7" 463 380 basechar 0
AnchorPoint: "Anchor-6" 249 604 basechar 0
AnchorPoint: "Anchor-5" 264 28 basechar 0
AnchorPoint: "Anchor-4" 249 0 basechar 0
LayerCount: 2
Fore
SplineSet
149 385 m 128,-1,1
 103 411 103 411 76.5 456 c 128,-1,2
 50 501 50 501 50 557 c 256,3,4
 50 613 50 613 76.5 658.5 c 128,-1,5
 103 704 103 704 148.5 729.5 c 128,-1,6
 194 755 194 755 249 755 c 256,7,8
 304 755 304 755 349.5 729.5 c 128,-1,9
 395 704 395 704 421.5 658.5 c 128,-1,10
 448 613 448 613 448 557 c 256,11,12
 448 501 448 501 421 455.5 c 128,-1,13
 394 410 394 410 348.5 384.5 c 128,-1,14
 303 359 303 359 249 359 c 256,15,0
 195 359 195 359 149 385 c 128,-1,1
169 471.5 m 128,-1,17
 201 437 201 437 249 437 c 256,18,19
 297 437 297 437 328.5 471 c 128,-1,20
 360 505 360 505 360 557 c 256,21,22
 360 609 360 609 328.5 643 c 128,-1,23
 297 677 297 677 249 677 c 0,24,25
 200 677 200 677 168.5 643 c 128,-1,26
 137 609 137 609 137 557 c 0,27,16
 137 506 137 506 169 471.5 c 128,-1,17
EndSplineSet
Validated: 1
EndChar

StartChar: uni0394
Encoding: 916 916 831
Width: 609
GlyphClass: 1
Flags: W
LayerCount: 2
Fore
SplineSet
11 90 m 1,0,-1
 246 745 l 1,1,-1
 362 745 l 1,2,-1
 598 90 l 1,3,-1
 598 0 l 1,4,-1
 11 0 l 1,5,-1
 11 90 l 1,0,-1
493 90 m 1,6,-1
 304 631 l 1,7,-1
 115 90 l 1,8,-1
 493 90 l 1,6,-1
EndSplineSet
Validated: 1
Position2: "'cpsp' Capital Spacing in Latin lookup 0 subtable" dx=5 dy=0 dh=10 dv=0
EndChar

StartChar: uni03A9
Encoding: 937 937 832
Width: 878
GlyphClass: 1
Flags: W
LayerCount: 2
Fore
SplineSet
61 90 m 1,0,-1
 195 90 l 1,1,2
 132 139 132 139 96.5 212.5 c 128,-1,3
 61 286 61 286 61 373 c 0,4,5
 61 482 61 482 111 570 c 128,-1,6
 161 658 161 658 247.5 707.5 c 128,-1,7
 334 757 334 757 439 757 c 256,8,9
 544 757 544 757 631 707.5 c 128,-1,10
 718 658 718 658 768 570 c 128,-1,11
 818 482 818 482 818 373 c 0,12,13
 818 286 818 286 782.5 212.5 c 128,-1,14
 747 139 747 139 684 90 c 1,15,-1
 818 90 l 1,16,-1
 818 0 l 1,17,-1
 519 0 l 1,18,-1
 519 90 l 1,19,20
 609 116 609 116 664 193.5 c 128,-1,21
 719 271 719 271 719 373 c 0,22,23
 719 454 719 454 683 521 c 128,-1,24
 647 588 647 588 583 627 c 128,-1,25
 519 666 519 666 439 666 c 256,26,27
 359 666 359 666 295 627 c 128,-1,28
 231 588 231 588 195 521 c 128,-1,29
 159 454 159 454 159 373 c 0,30,31
 159 271 159 271 214 193.5 c 128,-1,32
 269 116 269 116 359 90 c 1,33,-1
 359 0 l 1,34,-1
 61 0 l 1,35,-1
 61 90 l 1,0,-1
EndSplineSet
Validated: 1
Position2: "'cpsp' Capital Spacing in Latin lookup 0 subtable" dx=5 dy=0 dh=10 dv=0
EndChar

StartChar: pi
Encoding: 960 960 833
Width: 658
GlyphClass: 1
Flags: W
LayerCount: 2
Fore
SplineSet
127 450 m 1,0,-1
 29 450 l 1,1,-1
 29 539 l 1,2,-1
 629 539 l 1,3,-1
 629 450 l 1,4,-1
 532 450 l 1,5,-1
 532 0 l 1,6,-1
 438 0 l 1,7,-1
 438 450 l 1,8,-1
 221 450 l 1,9,-1
 221 0 l 1,10,-1
 127 0 l 1,11,-1
 127 450 l 1,0,-1
EndSplineSet
Validated: 1
EndChar

StartChar: zero
Encoding: 48 48 834
Width: 724
GlyphClass: 1
Flags: W
LayerCount: 2
Fore
SplineSet
208 36 m 128,-1,1
 141 84 141 84 104 171.5 c 128,-1,2
 67 259 67 259 67 373 c 256,3,4
 67 487 67 487 104 574 c 128,-1,5
 141 661 141 661 207.5 709 c 128,-1,6
 274 757 274 757 362 757 c 256,7,8
 450 757 450 757 517 709 c 128,-1,9
 584 661 584 661 621 574 c 128,-1,10
 658 487 658 487 658 373 c 256,11,12
 658 259 658 259 621 171.5 c 128,-1,13
 584 84 584 84 517.5 36 c 128,-1,14
 451 -12 451 -12 363 -12 c 256,15,0
 275 -12 275 -12 208 36 c 128,-1,1
189.5 218.5 m 128,-1,17
 214 152 214 152 259 115.5 c 128,-1,18
 304 79 304 79 363 79 c 256,19,20
 422 79 422 79 466.5 115.5 c 128,-1,21
 511 152 511 152 535.5 218.5 c 128,-1,22
 560 285 560 285 560 373 c 256,23,24
 560 461 560 461 535.5 527 c 128,-1,25
 511 593 511 593 466 629.5 c 128,-1,26
 421 666 421 666 362 666 c 256,27,28
 303 666 303 666 258.5 629.5 c 128,-1,29
 214 593 214 593 189.5 527 c 128,-1,30
 165 461 165 461 165 373 c 256,31,16
 165 285 165 285 189.5 218.5 c 128,-1,17
EndSplineSet
Validated: 1
Substitution2: "'frac' Diagonal Fractions in Latin lookup 14 subtable" zero.numr
Substitution2: "'dnom' Denominators in Latin lookup 12 subtable" zero.dnom
Substitution2: "'numr' Numerators in Latin lookup 11 subtable" zero.numr
Substitution2: "'sups' Superscript in Latin lookup 10 subtable" uni2070
Substitution2: "'sinf' Scientific Inferiors in Latin lookup 9 subtable" uni2080
Substitution2: "'subs' Subscript in Latin lookup 8 subtable" uni2080
AlternateSubs2: "'aalt' Access All Alternates in Latin lookup 1 subtable" uni2080 uni2070 zero.numr zero.dnom
EndChar

StartChar: one
Encoding: 49 49 835
Width: 382
GlyphClass: 1
Flags: W
LayerCount: 2
Fore
SplineSet
178 660 m 1,0,-1
 37 660 l 1,1,-1
 37 745 l 1,2,-1
 277 745 l 1,3,-1
 277 0 l 1,4,-1
 178 0 l 1,5,-1
 178 660 l 1,0,-1
EndSplineSet
Validated: 1
Substitution2: "'frac' Diagonal Fractions in Latin lookup 14 subtable" one.numr
Substitution2: "'dnom' Denominators in Latin lookup 12 subtable" one.dnom
Substitution2: "'numr' Numerators in Latin lookup 11 subtable" one.numr
Substitution2: "'sups' Superscript in Latin lookup 10 subtable" uni00B9
Substitution2: "'sinf' Scientific Inferiors in Latin lookup 9 subtable" uni2081
Substitution2: "'subs' Subscript in Latin lookup 8 subtable" uni2081
AlternateSubs2: "'aalt' Access All Alternates in Latin lookup 1 subtable" uni2081 uni00B9 one.numr one.dnom
EndChar

StartChar: two
Encoding: 50 50 836
Width: 599
GlyphClass: 1
Flags: W
LayerCount: 2
Fore
SplineSet
54 68 m 1,0,-1
 260 291 l 1,1,-1
 278 310 l 2,2,3
 342 379 342 379 370.5 413.5 c 128,-1,4
 399 448 399 448 413.5 478.5 c 128,-1,5
 428 509 428 509 428 543 c 0,6,7
 428 603 428 603 392.5 636.5 c 128,-1,8
 357 670 357 670 297 670 c 256,9,10
 237 670 237 670 195 635.5 c 128,-1,11
 153 601 153 601 137 538 c 1,12,-1
 48 561 l 1,13,14
 67 651 67 651 135 704 c 128,-1,15
 203 757 203 757 297 757 c 0,16,17
 364 757 364 757 416.5 730.5 c 128,-1,18
 469 704 469 704 498 656.5 c 128,-1,19
 527 609 527 609 527 548 c 0,20,21
 527 489 527 489 492.5 432.5 c 128,-1,22
 458 376 458 376 374 285 c 2,23,-1
 190 85 l 1,24,-1
 543 85 l 1,25,-1
 543 0 l 1,26,-1
 54 0 l 1,27,-1
 54 68 l 1,0,-1
EndSplineSet
Validated: 1
Substitution2: "'frac' Diagonal Fractions in Latin lookup 14 subtable" two.numr
Substitution2: "'dnom' Denominators in Latin lookup 12 subtable" two.dnom
Substitution2: "'numr' Numerators in Latin lookup 11 subtable" two.numr
Substitution2: "'sups' Superscript in Latin lookup 10 subtable" uni00B2
Substitution2: "'sinf' Scientific Inferiors in Latin lookup 9 subtable" uni2082
Substitution2: "'subs' Subscript in Latin lookup 8 subtable" uni2082
AlternateSubs2: "'aalt' Access All Alternates in Latin lookup 1 subtable" uni2082 uni00B2 two.numr two.dnom
EndChar

StartChar: three
Encoding: 51 51 837
Width: 610
GlyphClass: 1
Flags: W
LayerCount: 2
Fore
SplineSet
136 34 m 128,-1,1
 67 80 67 80 41 160 c 1,2,-1
 124 194 l 1,3,4
 145 139 145 139 190 107.5 c 128,-1,5
 235 76 235 76 294 76 c 0,6,7
 365 76 365 76 409 116.5 c 128,-1,8
 453 157 453 157 453 228 c 256,9,10
 453 299 453 299 408.5 339.5 c 128,-1,11
 364 380 364 380 293 380 c 0,12,13
 263 380 263 380 231 372 c 1,14,-1
 210 417 l 1,15,-1
 409 660 l 1,16,-1
 79 660 l 1,17,-1
 79 745 l 1,18,-1
 520 745 l 1,19,-1
 520 663 l 1,20,-1
 350 453 l 1,21,22
 440 442 440 442 495.5 381.5 c 128,-1,23
 551 321 551 321 551 230 c 0,24,25
 551 163 551 163 518 107.5 c 128,-1,26
 485 52 485 52 426.5 20 c 128,-1,27
 368 -12 368 -12 294 -12 c 0,28,0
 205 -12 205 -12 136 34 c 128,-1,1
EndSplineSet
Validated: 1
Substitution2: "'frac' Diagonal Fractions in Latin lookup 14 subtable" three.numr
Substitution2: "'dnom' Denominators in Latin lookup 12 subtable" three.dnom
Substitution2: "'numr' Numerators in Latin lookup 11 subtable" three.numr
Substitution2: "'sups' Superscript in Latin lookup 10 subtable" uni00B3
Substitution2: "'sinf' Scientific Inferiors in Latin lookup 9 subtable" uni2083
Substitution2: "'subs' Subscript in Latin lookup 8 subtable" uni2083
AlternateSubs2: "'aalt' Access All Alternates in Latin lookup 1 subtable" uni2083 uni00B3 three.numr three.dnom
EndChar

StartChar: four
Encoding: 52 52 838
Width: 638
GlyphClass: 1
Flags: W
LayerCount: 2
Fore
SplineSet
409 172 m 1,0,-1
 43 172 l 1,1,-1
 43 253 l 1,2,-1
 407 745 l 1,3,-1
 501 745 l 1,4,-1
 501 253 l 1,5,-1
 598 253 l 1,6,-1
 598 172 l 1,7,-1
 501 172 l 1,8,-1
 501 0 l 1,9,-1
 409 0 l 1,10,-1
 409 172 l 1,0,-1
409 253 m 1,11,-1
 409 616 l 1,12,-1
 143 253 l 1,13,-1
 409 253 l 1,11,-1
EndSplineSet
Validated: 1
Substitution2: "'frac' Diagonal Fractions in Latin lookup 14 subtable" four.numr
Substitution2: "'dnom' Denominators in Latin lookup 12 subtable" four.dnom
Substitution2: "'numr' Numerators in Latin lookup 11 subtable" four.numr
Substitution2: "'sups' Superscript in Latin lookup 10 subtable" uni2074
Substitution2: "'sinf' Scientific Inferiors in Latin lookup 9 subtable" uni2084
Substitution2: "'subs' Subscript in Latin lookup 8 subtable" uni2084
AlternateSubs2: "'aalt' Access All Alternates in Latin lookup 1 subtable" uni2084 uni2074 four.numr four.dnom
EndChar

StartChar: five
Encoding: 53 53 839
Width: 616
GlyphClass: 1
Flags: W
LayerCount: 2
Fore
SplineSet
143 34 m 128,-1,1
 74 80 74 80 48 158 c 1,2,-1
 128 192 l 1,3,4
 149 138 149 138 196 107 c 128,-1,5
 243 76 243 76 300 76 c 0,6,7
 345 76 345 76 380.5 96.5 c 128,-1,8
 416 117 416 117 436.5 153.5 c 128,-1,9
 457 190 457 190 457 235 c 0,10,11
 457 281 457 281 436.5 317.5 c 128,-1,12
 416 354 416 354 380.5 374.5 c 128,-1,13
 345 395 345 395 301 395 c 0,14,15
 256 395 256 395 218 374 c 128,-1,16
 180 353 180 353 162 321 c 1,17,-1
 83 338 l 1,18,-1
 140 746 l 1,19,-1
 526 746 l 1,20,-1
 526 661 l 1,21,-1
 210 661 l 1,22,-1
 179 443 l 1,23,24
 232 481 232 481 311 481 c 0,25,26
 382 481 382 481 438 448.5 c 128,-1,27
 494 416 494 416 525 360 c 128,-1,28
 556 304 556 304 556 235 c 0,29,30
 556 165 556 165 522.5 109 c 128,-1,31
 489 53 489 53 430.5 20.5 c 128,-1,32
 372 -12 372 -12 300 -12 c 0,33,0
 212 -12 212 -12 143 34 c 128,-1,1
EndSplineSet
Validated: 1
Substitution2: "'frac' Diagonal Fractions in Latin lookup 14 subtable" five.numr
Substitution2: "'dnom' Denominators in Latin lookup 12 subtable" five.dnom
Substitution2: "'numr' Numerators in Latin lookup 11 subtable" five.numr
Substitution2: "'sups' Superscript in Latin lookup 10 subtable" uni2075
Substitution2: "'sinf' Scientific Inferiors in Latin lookup 9 subtable" uni2085
Substitution2: "'subs' Subscript in Latin lookup 8 subtable" uni2085
AlternateSubs2: "'aalt' Access All Alternates in Latin lookup 1 subtable" uni2085 uni2075 five.numr five.dnom
EndChar

StartChar: six
Encoding: 54 54 840
Width: 599
GlyphClass: 1
Flags: W
LayerCount: 2
Fore
SplineSet
173.5 19.5 m 128,-1,1
 117 51 117 51 85.5 107 c 128,-1,2
 54 163 54 163 54 234 c 0,3,4
 54 293 54 293 75 350 c 128,-1,5
 96 407 96 407 143 469 c 2,6,-1
 353 745 l 1,7,-1
 471 745 l 1,8,-1
 247 453 l 1,9,10
 274 465 274 465 315 465 c 0,11,12
 380 465 380 465 433 434.5 c 128,-1,13
 486 404 486 404 516.5 350 c 128,-1,14
 547 296 547 296 547 229 c 0,15,16
 547 161 547 161 515 106 c 128,-1,17
 483 51 483 51 427 19.5 c 128,-1,18
 371 -12 371 -12 301 -12 c 0,19,0
 230 -12 230 -12 173.5 19.5 c 128,-1,1
195 119 m 128,-1,21
 237 76 237 76 301 76 c 0,22,23
 343 76 343 76 376.5 95.5 c 128,-1,24
 410 115 410 115 429 150 c 128,-1,25
 448 185 448 185 448 228 c 0,26,27
 448 294 448 294 406.5 337 c 128,-1,28
 365 380 365 380 301 380 c 256,29,30
 237 380 237 380 195 337 c 128,-1,31
 153 294 153 294 153 228 c 256,32,20
 153 162 153 162 195 119 c 128,-1,21
EndSplineSet
Validated: 1
Substitution2: "'frac' Diagonal Fractions in Latin lookup 14 subtable" six.numr
Substitution2: "'dnom' Denominators in Latin lookup 12 subtable" six.dnom
Substitution2: "'numr' Numerators in Latin lookup 11 subtable" six.numr
Substitution2: "'sups' Superscript in Latin lookup 10 subtable" uni2076
Substitution2: "'sinf' Scientific Inferiors in Latin lookup 9 subtable" uni2086
Substitution2: "'subs' Subscript in Latin lookup 8 subtable" uni2086
AlternateSubs2: "'aalt' Access All Alternates in Latin lookup 1 subtable" uni2086 uni2076 six.numr six.dnom
EndChar

StartChar: seven
Encoding: 55 55 841
Width: 548
GlyphClass: 1
Flags: W
LayerCount: 2
Fore
SplineSet
404 661 m 1,0,-1
 39 661 l 1,1,-1
 39 746 l 1,2,-1
 507 746 l 1,3,-1
 507 661 l 1,4,-1
 183 0 l 1,5,-1
 77 0 l 1,6,-1
 404 661 l 1,0,-1
EndSplineSet
Validated: 1
Substitution2: "'frac' Diagonal Fractions in Latin lookup 14 subtable" seven.numr
Substitution2: "'dnom' Denominators in Latin lookup 12 subtable" seven.dnom
Substitution2: "'numr' Numerators in Latin lookup 11 subtable" seven.numr
Substitution2: "'sups' Superscript in Latin lookup 10 subtable" uni2077
Substitution2: "'sinf' Scientific Inferiors in Latin lookup 9 subtable" uni2087
Substitution2: "'subs' Subscript in Latin lookup 8 subtable" uni2087
AlternateSubs2: "'aalt' Access All Alternates in Latin lookup 1 subtable" uni2087 uni2077 seven.numr seven.dnom
EndChar

StartChar: eight
Encoding: 56 56 842
Width: 629
GlyphClass: 1
Flags: W
LayerCount: 2
Fore
SplineSet
183 17.5 m 128,-1,1
 125 47 125 47 92.5 99 c 128,-1,2
 60 151 60 151 60 215 c 256,3,4
 60 279 60 279 92 329 c 128,-1,5
 124 379 124 379 181 406 c 1,6,7
 141 431 141 431 118.5 472 c 128,-1,8
 96 513 96 513 96 561 c 0,9,10
 96 616 96 616 124.5 661 c 128,-1,11
 153 706 153 706 203 731.5 c 128,-1,12
 253 757 253 757 315 757 c 256,13,14
 377 757 377 757 427 732 c 128,-1,15
 477 707 477 707 505 662 c 128,-1,16
 533 617 533 617 533 561 c 0,17,18
 533 513 533 513 510 472 c 128,-1,19
 487 431 487 431 448 406 c 1,20,21
 506 378 506 378 538 328 c 128,-1,22
 570 278 570 278 570 215 c 0,23,24
 570 151 570 151 537.5 99 c 128,-1,25
 505 47 505 47 446.5 17.5 c 128,-1,26
 388 -12 388 -12 315 -12 c 0,27,0
 241 -12 241 -12 183 17.5 c 128,-1,1
202 112.5 m 128,-1,29
 245 73 245 73 315 73 c 256,30,31
 385 73 385 73 428 112.5 c 128,-1,32
 471 152 471 152 471 216 c 256,33,34
 471 280 471 280 428 319.5 c 128,-1,35
 385 359 385 359 315 359 c 256,36,37
 245 359 245 359 202 320 c 128,-1,38
 159 281 159 281 159 216 c 0,39,28
 159 152 159 152 202 112.5 c 128,-1,29
228.5 476 m 128,-1,41
 263 444 263 444 315 444 c 0,42,43
 366 444 366 444 400 476 c 128,-1,44
 434 508 434 508 434 559 c 0,45,46
 434 609 434 609 400 640.5 c 128,-1,47
 366 672 366 672 315 672 c 0,48,49
 263 672 263 672 228.5 640.5 c 128,-1,50
 194 609 194 609 194 559 c 0,51,40
 194 508 194 508 228.5 476 c 128,-1,41
EndSplineSet
Validated: 1
Substitution2: "'frac' Diagonal Fractions in Latin lookup 14 subtable" eight.numr
Substitution2: "'dnom' Denominators in Latin lookup 12 subtable" eight.dnom
Substitution2: "'numr' Numerators in Latin lookup 11 subtable" eight.numr
Substitution2: "'sups' Superscript in Latin lookup 10 subtable" uni2078
Substitution2: "'sinf' Scientific Inferiors in Latin lookup 9 subtable" uni2088
Substitution2: "'subs' Subscript in Latin lookup 8 subtable" uni2088
AlternateSubs2: "'aalt' Access All Alternates in Latin lookup 1 subtable" uni2088 uni2078 eight.numr eight.dnom
EndChar

StartChar: nine
Encoding: 57 57 843
Width: 599
GlyphClass: 1
Flags: W
LayerCount: 2
Fore
SplineSet
352 292 m 1,0,1
 325 280 325 280 284 280 c 0,2,3
 219 280 219 280 166 310.5 c 128,-1,4
 113 341 113 341 82.5 395 c 128,-1,5
 52 449 52 449 52 517 c 256,6,7
 52 585 52 585 84 640 c 128,-1,8
 116 695 116 695 172 726 c 128,-1,9
 228 757 228 757 298 757 c 0,10,11
 369 757 369 757 425.5 725.5 c 128,-1,12
 482 694 482 694 513.5 638 c 128,-1,13
 545 582 545 582 545 511 c 0,14,15
 545 452 545 452 524 395 c 128,-1,16
 503 338 503 338 456 276 c 2,17,-1
 246 0 l 1,18,-1
 128 0 l 1,19,-1
 352 292 l 1,0,1
192.5 408.5 m 128,-1,21
 234 366 234 366 298 366 c 256,22,23
 362 366 362 366 404 408.5 c 128,-1,24
 446 451 446 451 446 517 c 0,25,26
 446 560 446 560 427 595 c 128,-1,27
 408 630 408 630 374 650 c 128,-1,28
 340 670 340 670 298 670 c 0,29,30
 257 670 257 670 223 650 c 128,-1,31
 189 630 189 630 170 595 c 128,-1,32
 151 560 151 560 151 517 c 0,33,20
 151 451 151 451 192.5 408.5 c 128,-1,21
EndSplineSet
Validated: 1
Substitution2: "'frac' Diagonal Fractions in Latin lookup 14 subtable" nine.numr
Substitution2: "'dnom' Denominators in Latin lookup 12 subtable" nine.dnom
Substitution2: "'numr' Numerators in Latin lookup 11 subtable" nine.numr
Substitution2: "'sups' Superscript in Latin lookup 10 subtable" uni2079
Substitution2: "'sinf' Scientific Inferiors in Latin lookup 9 subtable" uni2089
Substitution2: "'subs' Subscript in Latin lookup 8 subtable" uni2089
AlternateSubs2: "'aalt' Access All Alternates in Latin lookup 1 subtable" uni2089 uni2079 nine.numr nine.dnom
EndChar

StartChar: zero.dnom
Encoding: 65897 -1 844
Width: 420
GlyphClass: 1
Flags: W
LayerCount: 2
Fore
SplineSet
122.5 20.5 m 128,-1,1
 84 48 84 48 63 97 c 128,-1,2
 42 146 42 146 42 209 c 256,3,4
 42 272 42 272 63 321 c 128,-1,5
 84 370 84 370 122 397 c 128,-1,6
 160 424 160 424 209 424 c 0,7,8
 259 424 259 424 297 397 c 128,-1,9
 335 370 335 370 356 321 c 128,-1,10
 377 272 377 272 377 209 c 256,11,12
 377 146 377 146 356 96.5 c 128,-1,13
 335 47 335 47 297 20 c 128,-1,14
 259 -7 259 -7 210 -7 c 256,15,0
 161 -7 161 -7 122.5 20.5 c 128,-1,1
145.5 104 m 128,-1,17
 169 65 169 65 210 65 c 256,18,19
 251 65 251 65 275 104 c 128,-1,20
 299 143 299 143 299 209 c 256,21,22
 299 275 299 275 275 313.5 c 128,-1,23
 251 352 251 352 209 352 c 0,24,25
 168 352 168 352 145 314 c 128,-1,26
 122 276 122 276 122 209 c 0,27,16
 122 143 122 143 145.5 104 c 128,-1,17
EndSplineSet
Validated: 1
EndChar

StartChar: one.dnom
Encoding: 65898 -1 845
Width: 279
GlyphClass: 1
Flags: W
LayerCount: 2
Fore
SplineSet
100 350 m 1,0,-1
 19 350 l 1,1,-1
 19 417 l 1,2,-1
 179 417 l 1,3,-1
 179 0 l 1,4,-1
 100 0 l 1,5,-1
 100 350 l 1,0,-1
EndSplineSet
Validated: 1
EndChar

StartChar: two.dnom
Encoding: 65899 -1 846
Width: 354
GlyphClass: 1
Flags: W
LayerCount: 2
Fore
SplineSet
34 60 m 1,0,-1
 147 179 l 2,1,2
 196 230 196 230 213 253 c 128,-1,3
 230 276 230 276 230 298 c 0,4,5
 230 323 230 323 214 338 c 128,-1,6
 198 353 198 353 173 353 c 0,7,8
 147 353 147 353 127.5 337.5 c 128,-1,9
 108 322 108 322 100 294 c 1,10,-1
 31 317 l 1,11,12
 41 365 41 365 81.5 394.5 c 128,-1,13
 122 424 122 424 173 424 c 0,14,15
 233 424 233 424 271 391 c 128,-1,16
 309 358 309 358 309 307 c 0,17,18
 309 271 309 271 290 240 c 128,-1,19
 271 209 271 209 233 170 c 2,20,-1
 136 68 l 1,21,-1
 315 68 l 1,22,-1
 315 0 l 1,23,-1
 34 0 l 1,24,-1
 34 60 l 1,0,-1
EndSplineSet
Validated: 1
EndChar

StartChar: three.dnom
Encoding: 65900 -1 847
Width: 363
GlyphClass: 1
Flags: W
LayerCount: 2
Fore
SplineSet
82 21.5 m 128,-1,1
 41 50 41 50 29 96 c 1,2,-1
 98 121 l 1,3,4
 108 94 108 94 128 79.5 c 128,-1,5
 148 65 148 65 175 65 c 0,6,7
 208 65 208 65 228 83.5 c 128,-1,8
 248 102 248 102 248 134 c 0,9,10
 248 165 248 165 228.5 182.5 c 128,-1,11
 209 200 209 200 175 200 c 0,12,13
 150 200 150 200 132 191 c 1,14,-1
 114 229 l 1,15,-1
 221 351 l 1,16,-1
 53 351 l 1,17,-1
 53 417 l 1,18,-1
 310 417 l 1,19,-1
 310 354 l 1,20,-1
 225 257 l 1,21,22
 272 249 272 249 299 216.5 c 128,-1,23
 326 184 326 184 326 135 c 0,24,25
 326 95 326 95 306.5 62.5 c 128,-1,26
 287 30 287 30 252.5 11.5 c 128,-1,27
 218 -7 218 -7 175 -7 c 0,28,0
 123 -7 123 -7 82 21.5 c 128,-1,1
EndSplineSet
Validated: 1
EndChar

StartChar: four.dnom
Encoding: 65901 -1 848
Width: 398
GlyphClass: 1
Flags: W
LayerCount: 2
Fore
SplineSet
224 92 m 1,0,-1
 33 92 l 1,1,-1
 33 158 l 1,2,-1
 219 417 l 1,3,-1
 302 417 l 1,4,-1
 302 158 l 1,5,-1
 364 158 l 1,6,-1
 364 92 l 1,7,-1
 302 92 l 1,8,-1
 302 0 l 1,9,-1
 224 0 l 1,10,-1
 224 92 l 1,0,-1
224 158 m 1,11,-1
 224 320 l 1,12,-1
 111 158 l 1,13,-1
 224 158 l 1,11,-1
EndSplineSet
Validated: 1
EndChar

StartChar: five.dnom
Encoding: 65902 -1 849
Width: 369
GlyphClass: 1
Flags: W
LayerCount: 2
Fore
SplineSet
87.5 20.5 m 128,-1,1
 47 48 47 48 35 95 c 1,2,-1
 104 118 l 1,3,4
 113 92 113 92 133.5 78.5 c 128,-1,5
 154 65 154 65 180 65 c 0,6,7
 210 65 210 65 229.5 84.5 c 128,-1,8
 249 104 249 104 249 135 c 0,9,10
 249 167 249 167 230 187 c 128,-1,11
 211 207 211 207 180 207 c 0,12,13
 159 207 159 207 141.5 197.5 c 128,-1,14
 124 188 124 188 116 170 c 1,15,-1
 52 185 l 1,16,-1
 85 417 l 1,17,-1
 313 417 l 1,18,-1
 313 351 l 1,19,-1
 142 351 l 1,20,-1
 129 258 l 1,21,22
 156 273 156 273 193 273 c 0,23,24
 255 273 255 273 292 234.5 c 128,-1,25
 329 196 329 196 329 135 c 0,26,27
 329 96 329 96 309.5 63.5 c 128,-1,28
 290 31 290 31 256 12 c 128,-1,29
 222 -7 222 -7 180 -7 c 0,30,0
 128 -7 128 -7 87.5 20.5 c 128,-1,1
EndSplineSet
Validated: 1
EndChar

StartChar: six.dnom
Encoding: 65903 -1 850
Width: 355
GlyphClass: 1
Flags: W
LayerCount: 2
Fore
SplineSet
73.5 32.5 m 128,-1,1
 32 72 32 72 32 131 c 0,2,3
 32 166 32 166 44 197 c 128,-1,4
 56 228 56 228 85 266 c 2,5,-1
 201 417 l 1,6,-1
 296 417 l 1,7,-1
 178 265 l 1,8,9
 182 266 182 266 191 266 c 0,10,11
 248 266 248 266 285.5 228 c 128,-1,12
 323 190 323 190 323 134 c 0,13,14
 323 73 323 73 282 33 c 128,-1,15
 241 -7 241 -7 178 -7 c 256,16,0
 115 -7 115 -7 73.5 32.5 c 128,-1,1
130 84 m 128,-1,18
 149 65 149 65 178 65 c 0,19,20
 205 65 205 65 224 84 c 128,-1,21
 243 103 243 103 243 133 c 256,22,23
 243 163 243 163 224.5 181.5 c 128,-1,24
 206 200 206 200 178 200 c 256,25,26
 150 200 150 200 130.5 181 c 128,-1,27
 111 162 111 162 111 133 c 0,28,17
 111 103 111 103 130 84 c 128,-1,18
EndSplineSet
Validated: 1
EndChar

StartChar: seven.dnom
Encoding: 65904 -1 851
Width: 322
GlyphClass: 1
Flags: W
LayerCount: 2
Fore
SplineSet
219 351 m 1,0,-1
 24 351 l 1,1,-1
 24 418 l 1,2,-1
 302 418 l 1,3,-1
 302 351 l 1,4,-1
 135 0 l 1,5,-1
 47 0 l 1,6,-1
 219 351 l 1,0,-1
EndSplineSet
Validated: 1
EndChar

StartChar: eight.dnom
Encoding: 65905 -1 852
Width: 384
GlyphClass: 1
Flags: W
LayerCount: 2
Fore
SplineSet
113 10.5 m 128,-1,1
 79 28 79 28 60.5 57 c 128,-1,2
 42 86 42 86 42 121 c 0,3,4
 42 190 42 190 103 221 c 1,5,6
 82 234 82 234 70 258 c 128,-1,7
 58 282 58 282 58 310 c 0,8,9
 58 359 58 359 95.5 391.5 c 128,-1,10
 133 424 133 424 191 424 c 0,11,12
 248 424 248 424 286 391.5 c 128,-1,13
 324 359 324 359 324 310 c 0,14,15
 324 282 324 282 312 258 c 128,-1,16
 300 234 300 234 279 221 c 1,17,18
 341 188 341 188 341 120 c 0,19,20
 341 85 341 85 322.5 56 c 128,-1,21
 304 27 304 27 269.5 10 c 128,-1,22
 235 -7 235 -7 191 -7 c 256,23,0
 147 -7 147 -7 113 10.5 c 128,-1,1
141 77.5 m 128,-1,25
 160 60 160 60 191 60 c 256,26,27
 222 60 222 60 241.5 77.5 c 128,-1,28
 261 95 261 95 261 123 c 256,29,30
 261 151 261 151 241.5 168 c 128,-1,31
 222 185 222 185 191 185 c 256,32,33
 160 185 160 185 141 168 c 128,-1,34
 122 151 122 151 122 123 c 256,35,24
 122 95 122 95 141 77.5 c 128,-1,25
153 267 m 128,-1,37
 168 252 168 252 191 252 c 256,38,39
 214 252 214 252 229 267 c 128,-1,40
 244 282 244 282 244 304 c 0,41,42
 244 327 244 327 229 342 c 128,-1,43
 214 357 214 357 191 357 c 256,44,45
 168 357 168 357 153 342 c 128,-1,46
 138 327 138 327 138 304 c 0,47,36
 138 282 138 282 153 267 c 128,-1,37
EndSplineSet
Validated: 1
EndChar

StartChar: nine.dnom
Encoding: 65906 -1 853
Width: 355
GlyphClass: 1
Flags: W
LayerCount: 2
Fore
SplineSet
177 153 m 1,0,1
 173 152 173 152 163 152 c 0,2,3
 107 152 107 152 69.5 190 c 128,-1,4
 32 228 32 228 32 284 c 0,5,6
 32 344 32 344 73.5 384 c 128,-1,7
 115 424 115 424 178 424 c 256,8,9
 241 424 241 424 282 384.5 c 128,-1,10
 323 345 323 345 323 286 c 0,11,12
 323 251 323 251 311.5 220 c 128,-1,13
 300 189 300 189 271 152 c 2,14,-1
 154 0 l 1,15,-1
 58 0 l 1,16,-1
 177 153 l 1,0,1
130.5 236 m 128,-1,18
 150 217 150 217 178 217 c 0,19,20
 205 217 205 217 224 236 c 128,-1,21
 243 255 243 255 243 285 c 0,22,23
 243 314 243 314 224 333.5 c 128,-1,24
 205 353 205 353 178 353 c 0,25,26
 149 353 149 353 130 333.5 c 128,-1,27
 111 314 111 314 111 285 c 0,28,17
 111 255 111 255 130.5 236 c 128,-1,18
EndSplineSet
Validated: 1
EndChar

StartChar: uni2080
Encoding: 8320 8320 854
Width: 501
GlyphClass: 1
Flags: W
LayerCount: 2
Fore
SplineSet
142.5 26 m 128,-1,1
 95 60 95 60 68.5 121 c 128,-1,2
 42 182 42 182 42 261 c 256,3,4
 42 340 42 340 68 401 c 128,-1,5
 94 462 94 462 141.5 496 c 128,-1,6
 189 530 189 530 250 530 c 0,7,8
 312 530 312 530 359.5 496 c 128,-1,9
 407 462 407 462 433 401 c 128,-1,10
 459 340 459 340 459 261 c 0,11,12
 459 181 459 181 433 120 c 128,-1,13
 407 59 407 59 360 25.5 c 128,-1,14
 313 -8 313 -8 251 -8 c 0,15,0
 190 -8 190 -8 142.5 26 c 128,-1,1
162.5 122.5 m 128,-1,17
 195 71 195 71 251 71 c 256,18,19
 307 71 307 71 339.5 122.5 c 128,-1,20
 372 174 372 174 372 261 c 256,21,22
 372 348 372 348 339.5 399 c 128,-1,23
 307 450 307 450 250 450 c 0,24,25
 194 450 194 450 162 399.5 c 128,-1,26
 130 349 130 349 130 261 c 0,27,16
 130 174 130 174 162.5 122.5 c 128,-1,17
EndSplineSet
Validated: 1
EndChar

